ScienceGothic-Cnd.ufo
<glyph name="quotedbl" format="2">
  <advance width="736"/>
  <unicode hex="0022"/>
  <outline>
    <contour>
      <point x="64" y="1256" type="line"/>
      <point x="144" y="855" type="line"/>
      <point x="256" y="855" type="line"/>
      <point x="336" y="1256" type="line"/>
      <point x="336" y="1355" type="line" smooth="yes"/>
      <point x="336" y="1441.78"/>
      <point x="310.196" y="1472"/>
      <point x="237" y="1472" type="qcurve" smooth="yes"/>
      <point x="163" y="1472" type="line" smooth="yes"/>
      <point x="89.8038" y="1472"/>
      <point x="64" y="1441.78"/>
      <point x="64" y="1355" type="qcurve" smooth="yes"/>
    </contour>
    <contour>
      <point x="400" y="1256" type="line"/>
      <point x="480" y="855" type="line"/>
      <point x="592" y="855" type="line"/>
      <point x="672" y="1256" type="line"/>
      <point x="672" y="1355" type="line" smooth="yes"/>
      <point x="672" y="1441.78"/>
      <point x="646.196" y="1472"/>
      <point x="573" y="1472" type="qcurve" smooth="yes"/>
      <point x="499" y="1472" type="line" smooth="yes"/>
      <point x="425.804" y="1472"/>
      <point x="400" y="1441.78"/>
      <point x="400" y="1355" type="qcurve" smooth="yes"/>
    </contour>
  </outline>
</glyph>
<glyph name="less" format="2">
  <advance width="908"/>
  <unicode hex="003C"/>
  <outline>
    <contour>
      <point x="862" y="118" type="line"/>
      <point x="862" y="345" type="line"/>
      <point x="333" y="586" type="line"/>
      <point x="862" y="826" type="line"/>
      <point x="862" y="1050" type="line"/>
      <point x="46" y="683" type="line"/>
      <point x="46" y="485" type="line"/>
    </contour>
  </outline>
</glyph>
<glyph name="greater" format="2">
  <advance width="908"/>
  <unicode hex="003E"/>
  <outline>
    <contour>
      <point x="46" y="1050" type="line"/>
      <point x="46" y="823" type="line"/>
      <point x="575" y="582" type="line"/>
      <point x="46" y="342" type="line"/>
      <point x="46" y="118" type="line"/>
      <point x="862" y="485" type="line"/>
      <point x="862" y="683" type="line"/>
    </contour>
  </outline>
</glyph>
<glyph name="A" format="2">
  <advance width="808"/>
  <unicode hex="0041"/>
  <anchor x="404" y="1550" name="top"/>
  <anchor x="404" y="-150" name="bottom"/>
  <anchor x="562" y="0" name="ogonek_in"/>
  <outline>
    <contour>
      <point x="-10" y="0" type="line"/>
      <point x="222" y="0" type="line"/>
      <point x="265" y="196" type="line"/>
      <point x="523" y="196" type="line"/>
      <point x="562" y="0" type="line"/>
      <point x="818" y="0" type="line"/>
      <point x="508" y="1400" type="line"/>
      <point x="300" y="1400" type="line"/>
    </contour>
    <contour>
      <point x="314" y="416" type="line"/>
      <point x="402" y="813" type="line"/>
      <point x="480" y="416" type="line"/>
    </contour>
  </outline>
</glyph>
<glyph name="H" format="2">
  <advance width="874"/>
  <unicode hex="0048"/>
  <anchor x="438" y="1550" name="top"/>
  <anchor x="438" y="-150" name="bottom"/>
  <outline>
    <contour>
      <point x="72" y="0" type="line"/>
      <point x="336" y="0" type="line"/>
      <point x="336" y="610" type="line"/>
      <point x="538" y="610" type="line"/>
      <point x="538" y="0" type="line"/>
      <point x="802" y="0" type="line"/>
      <point x="802" y="1400" type="line"/>
      <point x="538" y="1400" type="line"/>
      <point x="538" y="830" type="line"/>
      <point x="336" y="830" type="line"/>
      <point x="336" y="1400" type="line"/>
      <point x="72" y="1400" type="line"/>
    </contour>
  </outline>
  <guideline angle="90" x="423" y="0"/>
  <guideline angle="90" color="1,0,0,1" x="437" y="0"/>
</glyph>
<glyph name="L" format="2">
  <advance width="657"/>
  <unicode hex="004C"/>
  <anchor x="204" y="1550" name="top"/>
  <anchor x="362" y="-150" name="bottom"/>
  <anchor x="-28" y="700" name="left"/>
  <anchor x="344" y="1400" name="right"/>
  <anchor x="533" y="700" name="eldot"/>
  <outline>
    <contour>
      <point x="72" y="0" type="line"/>
      <point x="652" y="0" type="line"/>
      <point x="652" y="244" type="line"/>
      <point x="336" y="244" type="line"/>
      <point x="336" y="1400" type="line"/>
      <point x="72" y="1400" type="line"/>
    </contour>
  </outline>
</glyph>
<glyph name="N" format="2">
  <advance width="934"/>
  <unicode hex="004E"/>
  <anchor x="467" y="1550" name="top"/>
  <anchor x="467" y="-150" name="bottom"/>
  <outline>
    <contour>
      <point x="72" y="0" type="line"/>
      <point x="316" y="0" type="line"/>
      <point x="316" y="698" type="line"/>
      <point x="678" y="0" type="line"/>
      <point x="862" y="0" type="line"/>
      <point x="862" y="1400" type="line"/>
      <point x="618" y="1400" type="line"/>
      <point x="618" y="698" type="line"/>
      <point x="254" y="1400" type="line"/>
      <point x="72" y="1400" type="line"/>
    </contour>
  </outline>
</glyph>
<glyph name="V" format="2">
  <advance width="788"/>
  <unicode hex="0056"/>
  <anchor x="399" y="1550" name="top"/>
  <anchor x="388" y="-150" name="bottom"/>
  <outline>
    <contour>
      <point x="290" y="0" type="line"/>
      <point x="498" y="0" type="line"/>
      <point x="798" y="1400" type="line"/>
      <point x="554" y="1400" type="line"/>
      <point x="408" y="584" type="line"/>
      <point x="264" y="1400" type="line"/>
      <point x="-10" y="1400" type="line"/>
    </contour>
  </outline>
</glyph>
<glyph name="bracketleft" format="2">
  <advance width="511"/>
  <unicode hex="005B"/>
  <outline>
    <contour>
      <point x="72" y="-256" type="line"/>
      <point x="506" y="-256" type="line"/>
      <point x="506" y="-32" type="line"/>
      <point x="320" y="-32" type="line"/>
      <point x="320" y="1224" type="line"/>
      <point x="506" y="1224" type="line"/>
      <point x="506" y="1448" type="line"/>
      <point x="72" y="1448" type="line"/>
    </contour>
  </outline>
</glyph>
<glyph name="d" format="2">
  <advance width="744"/>
  <unicode hex="0064"/>
  <anchor x="361" y="1598" name="top"/>
  <anchor x="361" y="-150" name="bottom"/>
  <anchor x="679" y="1448" name="right"/>
  <outline>
    <contour>
      <point x="55" y="200" type="line" smooth="yes"/>
      <point x="55" y="83.7916"/>
      <point x="150.068" y="-14"/>
      <point x="221" y="-14" type="qcurve" smooth="yes"/>
      <point x="287" y="-14" type="line" smooth="yes"/>
      <point x="329.258" y="-14"/>
      <point x="409.871" y="40.1596"/>
      <point x="431" y="96" type="qcurve"/>
      <point x="431" y="0" type="line"/>
      <point x="679" y="0" type="line"/>
      <point x="679" y="1448" type="line"/>
      <point x="431" y="1448" type="line"/>
      <point x="431" y="904" type="line"/>
      <point x="409.871" y="959.84"/>
      <point x="329.258" y="1014"/>
      <point x="287" y="1014" type="qcurve" smooth="yes"/>
      <point x="221" y="1014" type="line" smooth="yes"/>
      <point x="151.577" y="1014"/>
      <point x="55" y="918.662"/>
      <point x="55" y="810" type="qcurve" smooth="yes"/>
    </contour>
    <contour>
      <point x="431" y="790" type="line"/>
      <point x="431" y="210" type="line"/>
      <point x="303" y="210" type="line"/>
      <point x="303" y="210"/>
      <point x="303" y="210"/>
      <point x="303" y="210" type="qcurve"/>
      <point x="303" y="790" type="line"/>
      <point x="303" y="790"/>
      <point x="303" y="790"/>
      <point x="303" y="790" type="qcurve"/>
    </contour>
  </outline>
</glyph>
<glyph name="f" format="2">
  <advance width="449"/>
  <unicode hex="0066"/>
  <outline>
    <contour>
      <point x="83" y="1000" type="line"/>
      <point x="35" y="1000" type="line"/>
      <point x="35" y="796" type="line"/>
      <point x="83" y="796" type="line"/>
      <point x="83" y="0" type="line"/>
      <point x="331" y="0" type="line"/>
      <point x="331" y="796" type="line"/>
      <point x="418" y="796" type="line"/>
      <point x="418" y="1000" type="line"/>
      <point x="331" y="1000" type="line"/>
      <point x="331" y="1244" type="line"/>
      <point x="331" y="1244"/>
      <point x="331" y="1244"/>
      <point x="331" y="1244" type="qcurve"/>
      <point x="432" y="1244" type="line"/>
      <point x="474" y="1448" type="line"/>
      <point x="331" y="1448" type="line" smooth="yes"/>
      <point x="214.792" y="1448"/>
      <point x="83" y="1328.32"/>
      <point x="83" y="1194" type="qcurve" smooth="yes"/>
    </contour>
  </outline>
</glyph>
<glyph name="exclamdown" format="2">
  <advance width="433"/>
  <unicode hex="00A1"/>
  <outline>
    <contour>
      <point x="369" y="881" type="line" smooth="yes"/>
      <point x="369" y="969.288"/>
      <point x="338.288" y="1000"/>
      <point x="250" y="1000" type="qcurve" smooth="yes"/>
      <point x="184" y="1000" type="line" smooth="yes"/>
      <point x="96.25" y="1000"/>
      <point x="64" y="968.75"/>
      <point x="64" y="881" type="qcurve" smooth="yes"/>
      <point x="64" y="772" type="line" smooth="yes"/>
      <point x="64" y="685.221"/>
      <point x="95.7118" y="655"/>
      <point x="184" y="655" type="qcurve" smooth="yes"/>
      <point x="250" y="655" type="line" smooth="yes"/>
      <point x="337.75" y="655"/>
      <point x="369" y="685.75"/>
      <point x="369" y="772" type="qcurve" smooth="yes"/>
    </contour>
    <contour>
      <point x="307" y="530" type="line"/>
      <point x="126" y="530" type="line"/>
      <point x="64" y="-408" type="line"/>
      <point x="369" y="-408" type="line"/>
    </contour>
  </outline>
</glyph>
<glyph name="cent" format="2">
  <advance width="830"/>
  <unicode hex="00A2"/>
  <outline>
    <contour>
      <point x="383" y="-100" type="line"/>
      <point x="467" y="-100" type="line"/>
      <point x="467" y="136" type="line"/>
      <point x="533" y="136" type="line" smooth="yes"/>
      <point x="673.356" y="136"/>
      <point x="789" y="233.792"/>
      <point x="789" y="350" type="qcurve" smooth="yes"/>
      <point x="789" y="452" type="line"/>
      <point x="545" y="502" type="line"/>
      <point x="545" y="360" type="line"/>
      <point x="545" y="360"/>
      <point x="545" y="360"/>
      <point x="545" y="360" type="qcurve"/>
      <point x="467" y="360" type="line"/>
      <point x="467" y="940" type="line"/>
      <point x="541" y="940" type="line"/>
      <point x="541" y="940"/>
      <point x="541" y="940"/>
      <point x="541" y="940" type="qcurve"/>
      <point x="541" y="804" type="line"/>
      <point x="785" y="850" type="line"/>
      <point x="785" y="960" type="line" smooth="yes"/>
      <point x="785" y="1070.17"/>
      <point x="667.846" y="1164"/>
      <point x="529" y="1164" type="qcurve" smooth="yes"/>
      <point x="467" y="1164" type="line"/>
      <point x="467" y="1400" type="line"/>
      <point x="383" y="1400" type="line"/>
      <point x="383" y="1164" type="line"/>
      <point x="311" y="1164" type="line" smooth="yes"/>
      <point x="173.663" y="1164"/>
      <point x="55" y="1070.17"/>
      <point x="55" y="960" type="qcurve" smooth="yes"/>
      <point x="55" y="350" type="line" smooth="yes"/>
      <point x="55" y="233.792"/>
      <point x="170.644" y="136"/>
      <point x="311" y="136" type="qcurve" smooth="yes"/>
      <point x="383" y="136" type="line"/>
    </contour>
    <contour>
      <point x="383" y="940" type="line"/>
      <point x="383" y="360" type="line"/>
      <point x="303" y="360" type="line"/>
      <point x="303" y="360"/>
      <point x="303" y="360"/>
      <point x="303" y="360" type="qcurve"/>
      <point x="303" y="940" type="line"/>
      <point x="303" y="940"/>
      <point x="303" y="940"/>
      <point x="303" y="940" type="qcurve"/>
    </contour>
  </outline>
</glyph>
<glyph name="yen" format="2">
  <advance width="774"/>
  <unicode hex="00A5"/>
  <outline>
    <contour>
      <point x="255" y="0" type="line"/>
      <point x="519" y="0" type="line"/>
      <point x="519" y="315" type="line"/>
      <point x="688" y="315" type="line"/>
      <point x="688" y="475" type="line"/>
      <point x="519" y="475" type="line"/>
      <point x="519" y="545" type="line"/>
      <point x="688" y="545" type="line"/>
      <point x="688" y="705" type="line"/>
      <point x="569" y="705" type="line"/>
      <point x="784" y="1400" type="line"/>
      <point x="524" y="1400" type="line"/>
      <point x="397" y="882" type="line"/>
      <point x="269" y="1400" type="line"/>
      <point x="-10" y="1400" type="line"/>
      <point x="205" y="705" type="line"/>
      <point x="86" y="705" type="line"/>
      <point x="86" y="545" type="line"/>
      <point x="255" y="545" type="line"/>
      <point x="255" y="545" type="line"/>
      <point x="255" y="475" type="line"/>
      <point x="86" y="475" type="line"/>
      <point x="86" y="315" type="line"/>
      <point x="255" y="315" type="line"/>
    </contour>
  </outline>
</glyph>
<glyph name="copyright" format="2">
  <advance width="1333"/>
  <unicode hex="00A9"/>
  <outline>
    <contour>
      <point x="397" y="550" type="line" smooth="yes"/>
      <point x="397" y="433.792"/>
      <point x="512.644" y="336"/>
      <point x="653" y="336" type="qcurve" smooth="yes"/>
      <point x="685" y="336" type="line" smooth="yes"/>
      <point x="825.356" y="336"/>
      <point x="941" y="433.792"/>
      <point x="941" y="550" type="qcurve" smooth="yes"/>
      <point x="941" y="582" type="line"/>
      <point x="713" y="632" type="line"/>
      <point x="713" y="540" type="line"/>
      <point x="713" y="540"/>
      <point x="713" y="540"/>
      <point x="713" y="540" type="qcurve"/>
      <point x="625" y="540" type="line"/>
      <point x="625" y="540"/>
      <point x="625" y="540"/>
      <point x="625" y="540" type="qcurve"/>
      <point x="625" y="860" type="line"/>
      <point x="625" y="860"/>
      <point x="625" y="860"/>
      <point x="625" y="860" type="qcurve"/>
      <point x="709" y="860" type="line"/>
      <point x="709" y="860"/>
      <point x="709" y="860"/>
      <point x="709" y="860" type="qcurve"/>
      <point x="709" y="774" type="line"/>
      <point x="937" y="820" type="line"/>
      <point x="937" y="860" type="line" smooth="yes"/>
      <point x="937" y="970.172"/>
      <point x="819.846" y="1064"/>
      <point x="681" y="1064" type="qcurve" smooth="yes"/>
      <point x="653" y="1064" type="line" smooth="yes"/>
      <point x="515.663" y="1064"/>
      <point x="397" y="970.172"/>
      <point x="397" y="860" type="qcurve" smooth="yes"/>
    </contour>
    <contour>
      <point x="62" y="1084" type="qcurve" smooth="yes"/>
      <point x="62" y="328" type="line" smooth="yes"/>
      <point x="62" y="152.5"/>
      <point x="243.5" y="42"/>
      <point x="404" y="42" type="qcurve" smooth="yes"/>
      <point x="921" y="42" type="line" smooth="yes"/>
      <point x="1082.48" y="42"/>
      <point x="1265" y="149.914"/>
      <point x="1265" y="328" type="qcurve" smooth="yes"/>
      <point x="1265" y="1084" type="line" smooth="yes"/>
      <point x="1265" y="1255"/>
      <point x="1072.5" y="1358"/>
      <point x="921" y="1358" type="qcurve" smooth="yes"/>
      <point x="404" y="1358" type="line" smooth="yes"/>
      <point x="252.5" y="1358"/>
      <point x="62" y="1255"/>
    </contour>
    <contour>
      <point x="256" y="1084" type="line" smooth="yes"/>
      <point x="256" y="1148.9"/>
      <point x="337.595" y="1188"/>
      <point x="404" y="1188" type="qcurve" smooth="yes"/>
      <point x="921" y="1188" type="line" smooth="yes"/>
      <point x="1014.57" y="1188"/>
      <point x="1071" y="1130.03"/>
      <point x="1071" y="1084" type="qcurve" smooth="yes"/>
      <point x="1071" y="328" type="line" smooth="yes"/>
      <point x="1071" y="275.933"/>
      <point x="1013.82" y="212"/>
      <point x="921" y="212" type="qcurve" smooth="yes"/>
      <point x="404" y="212" type="line" smooth="yes"/>
      <point x="311.184" y="212"/>
      <point x="256" y="275.933"/>
      <point x="256" y="328" type="qcurve" smooth="yes"/>
    </contour>
  </outline>
</glyph>
<glyph name="macron" format="2">
  <advance width="394"/>
  <unicode hex="00AF"/>
  <outline>
    <contour>
      <point x="5" y="1138" type="line"/>
      <point x="389" y="1138" type="line"/>
      <point x="389" y="1298" type="line"/>
      <point x="5" y="1298" type="line"/>
    </contour>
  </outline>
</glyph>
<glyph name="threesuperior" format="2">
  <advance width="590"/>
  <unicode hex="00B3"/>
  <outline>
    <contour>
      <point x="57" y="1169" type="line"/>
      <point x="57" y="1109" type="line" smooth="yes"/>
      <point x="57" y="1010.15"/>
      <point x="173.902" y="950"/>
      <point x="272" y="950" type="qcurve" smooth="yes"/>
      <point x="302" y="950" type="line" smooth="yes"/>
      <point x="400.853" y="950"/>
      <point x="533" y="1025.15"/>
      <point x="533" y="1124" type="qcurve" smooth="yes"/>
      <point x="533" y="1193" type="line" smooth="yes"/>
      <point x="533" y="1282.04"/>
      <point x="428.043" y="1361.21"/>
      <point x="339" y="1368" type="qcurve"/>
      <point x="421.251" y="1382.34"/>
      <point x="503" y="1459.12"/>
      <point x="503" y="1521" type="qcurve" smooth="yes"/>
      <point x="503" y="1594" type="line" smooth="yes"/>
      <point x="503" y="1668.71"/>
      <point x="393.153" y="1760"/>
      <point x="286" y="1760" type="qcurve" smooth="yes"/>
      <point x="281" y="1760" type="line" smooth="yes"/>
      <point x="227.75" y="1760"/>
      <point x="146.625" y="1740.94"/>
      <point x="91.875" y="1703.06"/>
      <point x="64" y="1646.5"/>
      <point x="64" y="1609" type="qcurve" smooth="yes"/>
      <point x="64" y="1542" type="line"/>
      <point x="264" y="1506" type="line"/>
      <point x="264" y="1579" type="line"/>
      <point x="264" y="1579"/>
      <point x="264" y="1579"/>
      <point x="264" y="1579" type="qcurve"/>
      <point x="266" y="1579" type="line" smooth="yes"/>
      <point x="281.092" y="1579"/>
      <point x="303" y="1563.34"/>
      <point x="303" y="1549" type="qcurve" smooth="yes"/>
      <point x="303" y="1489" type="line" smooth="yes"/>
      <point x="303" y="1467.87"/>
      <point x="273.883" y="1443"/>
      <point x="252" y="1443" type="qcurve" smooth="yes"/>
      <point x="241" y="1443" type="line"/>
      <point x="241" y="1278" type="line"/>
      <point x="272" y="1278" type="line" smooth="yes"/>
      <point x="298.411" y="1278"/>
      <point x="333" y="1246.9"/>
      <point x="333" y="1222" type="qcurve" smooth="yes"/>
      <point x="333" y="1165" type="line" smooth="yes"/>
      <point x="333" y="1149.91"/>
      <point x="314.092" y="1131"/>
      <point x="299" y="1131" type="qcurve" smooth="yes"/>
      <point x="257" y="1131" type="line"/>
      <point x="257" y="1131"/>
      <point x="257" y="1131"/>
      <point x="257" y="1131" type="qcurve"/>
      <point x="257" y="1204" type="line"/>
    </contour>
  </outline>
</glyph>
<glyph name="guillemotright" format="2">
  <advance width="704"/>
  <unicode hex="00BB"/>
  <outline>
    <contour>
      <point x="556" y="870" type="line"/>
      <point x="358" y="870" type="line"/>
      <point x="480" y="500" type="line"/>
      <point x="358" y="130" type="line"/>
      <point x="556" y="130" type="line"/>
      <point x="678" y="500" type="line"/>
    </contour>
    <contour>
      <point x="222" y="870" type="line"/>
      <point x="24" y="870" type="line"/>
      <point x="146" y="500" type="line"/>
      <point x="24" y="130" type="line"/>
      <point x="222" y="130" type="line"/>
      <point x="344" y="500" type="line"/>
    </contour>
  </outline>
</glyph>
<glyph name="onequarter" format="2">
  <advance width="1307"/>
  <unicode hex="00BC"/>
  <outline>
    <contour>
      <point x="164" y="614" type="line"/>
      <point x="364" y="614" type="line"/>
      <point x="364" y="1407" type="line"/>
      <point x="38" y="1332" type="line"/>
      <point x="38" y="1208" type="line"/>
      <point x="164" y="1210" type="line"/>
    </contour>
    <contour>
      <point x="944" y="1400" type="line"/>
      <point x="16" y="0" type="line"/>
      <point x="239" y="0" type="line"/>
      <point x="1167" y="1400" type="line"/>
    </contour>
    <contour>
      <point x="731" y="151" type="line"/>
      <point x="989" y="151" type="line"/>
      <point x="989" y="0" type="line"/>
      <point x="1189" y="0" type="line"/>
      <point x="1189" y="151" type="line"/>
      <point x="1271" y="151" type="line"/>
      <point x="1271" y="332" type="line"/>
      <point x="1189" y="332" type="line"/>
      <point x="1189" y="784" type="line"/>
      <point x="970" y="784" type="line"/>
      <point x="731" y="297" type="line"/>
    </contour>
    <contour>
      <point x="922" y="332" type="line"/>
      <point x="989" y="469" type="line"/>
      <point x="989" y="332" type="line"/>
    </contour>
  </outline>
  <guideline angle="90" color="0.4,0.4,0.4,1" name="halfwidth" x="653.5" y="0"/>
</glyph>
<glyph name="onehalf" format="2">
  <advance width="1297"/>
  <unicode hex="00BD"/>
  <outline>
    <contour>
      <point x="166" y="614" type="line"/>
      <point x="366" y="614" type="line"/>
      <point x="366" y="1407" type="line"/>
      <point x="40" y="1332" type="line"/>
      <point x="40" y="1208" type="line"/>
      <point x="166" y="1210" type="line"/>
    </contour>
    <contour>
      <point x="944" y="1400" type="line"/>
      <point x="16" y="0" type="line"/>
      <point x="239" y="0" type="line"/>
      <point x="1167" y="1400" type="line"/>
    </contour>
    <contour>
      <point x="782" y="0" type="line"/>
      <point x="1066" y="0" type="line" smooth="yes"/>
      <point x="1137.69" y="0"/>
      <point x="1252" y="62.3192"/>
      <point x="1252" y="174" type="qcurve" smooth="yes"/>
      <point x="1252" y="216" type="line"/>
      <point x="1067" y="248" type="line"/>
      <point x="1067" y="181" type="line"/>
      <point x="1067" y="181"/>
      <point x="1067" y="181"/>
      <point x="1067" y="181" type="qcurve"/>
      <point x="974" y="181" type="line"/>
      <point x="974" y="186" type="line" smooth="yes"/>
      <point x="974" y="203.356"/>
      <point x="989.344" y="238.344"/>
      <point x="1015" y="264" type="qcurve" smooth="yes"/>
      <point x="1156" y="405" type="line" smooth="yes"/>
      <point x="1193.73" y="442.73"/>
      <point x="1233" y="532.896"/>
      <point x="1233" y="591" type="qcurve" smooth="yes"/>
      <point x="1233" y="638" type="line" smooth="yes"/>
      <point x="1233" y="719.497"/>
      <point x="1127.01" y="798"/>
      <point x="1044" y="798" type="qcurve" smooth="yes"/>
      <point x="973" y="798" type="line" smooth="yes"/>
      <point x="889.994" y="798"/>
      <point x="784" y="708.497"/>
      <point x="784" y="627" type="qcurve" smooth="yes"/>
      <point x="784" y="572" type="line"/>
      <point x="976" y="532" type="line"/>
      <point x="976" y="617" type="line"/>
      <point x="976" y="617"/>
      <point x="976" y="617"/>
      <point x="976" y="617" type="qcurve"/>
      <point x="1041" y="617" type="line"/>
      <point x="1041" y="617"/>
      <point x="1041" y="617"/>
      <point x="1041" y="617" type="qcurve"/>
      <point x="1041" y="588" type="line" smooth="yes"/>
      <point x="1041" y="566.871"/>
      <point x="1031.11" y="526.11"/>
      <point x="1013" y="508" type="qcurve" smooth="yes"/>
      <point x="866" y="361" type="line" smooth="yes"/>
      <point x="822.988" y="317.988"/>
      <point x="782" y="237.123"/>
      <point x="782" y="176" type="qcurve" smooth="yes"/>
    </contour>
  </outline>
  <guideline angle="90" color="0.4,0.4,0.4,1" name="halfwidth" x="648.5" y="0"/>
</glyph>
<glyph name="threequarters" format="2">
  <advance width="1441"/>
  <unicode hex="00BE"/>
  <outline>
    <contour>
      <point x="57" y="833" type="line"/>
      <point x="57" y="773" type="line" smooth="yes"/>
      <point x="57" y="674.147"/>
      <point x="173.902" y="614"/>
      <point x="272" y="614" type="qcurve" smooth="yes"/>
      <point x="302" y="614" type="line" smooth="yes"/>
      <point x="400.853" y="614"/>
      <point x="533" y="689.147"/>
      <point x="533" y="788" type="qcurve" smooth="yes"/>
      <point x="533" y="857" type="line" smooth="yes"/>
      <point x="533" y="946.043"/>
      <point x="428.043" y="1025.21"/>
      <point x="339" y="1032" type="qcurve"/>
      <point x="421.251" y="1046.34"/>
      <point x="503" y="1123.12"/>
      <point x="503" y="1185" type="qcurve" smooth="yes"/>
      <point x="503" y="1258" type="line" smooth="yes"/>
      <point x="503" y="1332.71"/>
      <point x="393.153" y="1424"/>
      <point x="286" y="1424" type="qcurve" smooth="yes"/>
      <point x="281" y="1424" type="line" smooth="yes"/>
      <point x="227.75" y="1424"/>
      <point x="146.625" y="1404.94"/>
      <point x="91.875" y="1367.06"/>
      <point x="64" y="1310.5"/>
      <point x="64" y="1273" type="qcurve" smooth="yes"/>
      <point x="64" y="1206" type="line"/>
      <point x="264" y="1170" type="line"/>
      <point x="264" y="1243" type="line"/>
      <point x="264" y="1243"/>
      <point x="264" y="1243"/>
      <point x="264" y="1243" type="qcurve"/>
      <point x="266" y="1243" type="line" smooth="yes"/>
      <point x="281.092" y="1243"/>
      <point x="303" y="1227.34"/>
      <point x="303" y="1213" type="qcurve" smooth="yes"/>
      <point x="303" y="1153" type="line" smooth="yes"/>
      <point x="303" y="1131.87"/>
      <point x="273.883" y="1107"/>
      <point x="252" y="1107" type="qcurve" smooth="yes"/>
      <point x="241" y="1107" type="line"/>
      <point x="241" y="942" type="line"/>
      <point x="272" y="942" type="line" smooth="yes"/>
      <point x="298.411" y="942"/>
      <point x="333" y="910.902"/>
      <point x="333" y="886" type="qcurve" smooth="yes"/>
      <point x="333" y="829" type="line" smooth="yes"/>
      <point x="333" y="813.908"/>
      <point x="314.092" y="795"/>
      <point x="299" y="795" type="qcurve" smooth="yes"/>
      <point x="257" y="795" type="line"/>
      <point x="257" y="795"/>
      <point x="257" y="795"/>
      <point x="257" y="795" type="qcurve"/>
      <point x="257" y="868" type="line"/>
    </contour>
    <contour>
      <point x="1078" y="1400" type="line"/>
      <point x="150" y="0" type="line"/>
      <point x="373" y="0" type="line"/>
      <point x="1301" y="1400" type="line"/>
    </contour>
    <contour>
      <point x="865" y="151" type="line"/>
      <point x="1123" y="151" type="line"/>
      <point x="1123" y="0" type="line"/>
      <point x="1323" y="0" type="line"/>
      <point x="1323" y="151" type="line"/>
      <point x="1405" y="151" type="line"/>
      <point x="1405" y="332" type="line"/>
      <point x="1323" y="332" type="line"/>
      <point x="1323" y="784" type="line"/>
      <point x="1104" y="784" type="line"/>
      <point x="865" y="297" type="line"/>
    </contour>
    <contour>
      <point x="1056" y="332" type="line"/>
      <point x="1123" y="469" type="line"/>
      <point x="1123" y="332" type="line"/>
    </contour>
  </outline>
</glyph>
<glyph name="Acircumflex" format="2">
  <advance width="808"/>
  <unicode hex="00C2"/>
  <anchor x="404" y="1880" name="top"/>
  <anchor x="404" y="-150" name="bottom"/>
  <anchor x="562" y="0" name="ogonek_in"/>
  <anchor x="660" y="1575" name="topright"/>
  <outline>
    <contour>
      <point x="-10" y="0" type="line"/>
      <point x="222" y="0" type="line"/>
      <point x="265" y="196" type="line"/>
      <point x="523" y="196" type="line"/>
      <point x="562" y="0" type="line"/>
      <point x="818" y="0" type="line"/>
      <point x="508" y="1400" type="line"/>
      <point x="300" y="1400" type="line"/>
    </contour>
    <contour>
      <point x="314" y="416" type="line"/>
      <point x="402" y="813" type="line"/>
      <point x="480" y="416" type="line"/>
    </contour>
    <contour>
      <point x="157" y="1475" type="line"/>
      <point x="358" y="1475" type="line"/>
      <point x="401" y="1593" type="line"/>
      <point x="444" y="1475" type="line"/>
      <point x="660" y="1475" type="line"/>
      <point x="498" y="1800" type="line"/>
      <point x="319" y="1800" type="line"/>
    </contour>
  </outline>
</glyph>
<glyph name="Adieresis" format="2">
  <advance width="808"/>
  <unicode hex="00C4"/>
  <anchor x="404" y="1850" name="top"/>
  <anchor x="404" y="-150" name="bottom"/>
  <anchor x="562" y="0" name="ogonek_in"/>
  <outline>
    <contour>
      <point x="-10" y="0" type="line"/>
      <point x="222" y="0" type="line"/>
      <point x="265" y="196" type="line"/>
      <point x="523" y="196" type="line"/>
      <point x="562" y="0" type="line"/>
      <point x="818" y="0" type="line"/>
      <point x="508" y="1400" type="line"/>
      <point x="300" y="1400" type="line"/>
    </contour>
    <contour>
      <point x="314" y="416" type="line"/>
      <point x="402" y="813" type="line"/>
      <point x="480" y="416" type="line"/>
    </contour>
    <contour>
      <point x="194" y="1504" type="qcurve" smooth="yes"/>
      <point x="264" y="1504" type="line" smooth="yes"/>
      <point x="330.405" y="1504"/>
      <point x="354" y="1527.6"/>
      <point x="354" y="1594" type="qcurve" smooth="yes"/>
      <point x="354" y="1666" type="line" smooth="yes"/>
      <point x="354" y="1730.9"/>
      <point x="330.405" y="1754"/>
      <point x="264" y="1754" type="qcurve" smooth="yes"/>
      <point x="194" y="1754" type="line" smooth="yes"/>
      <point x="127.595" y="1754"/>
      <point x="104" y="1730.9"/>
      <point x="104" y="1666" type="qcurve" smooth="yes"/>
      <point x="104" y="1594" type="line" smooth="yes"/>
      <point x="104" y="1527.6"/>
      <point x="127.595" y="1504"/>
    </contour>
    <contour>
      <point x="544" y="1504" type="qcurve" smooth="yes"/>
      <point x="614" y="1504" type="line" smooth="yes"/>
      <point x="680.405" y="1504"/>
      <point x="704" y="1527.6"/>
      <point x="704" y="1594" type="qcurve" smooth="yes"/>
      <point x="704" y="1666" type="line" smooth="yes"/>
      <point x="704" y="1730.9"/>
      <point x="680.405" y="1754"/>
      <point x="614" y="1754" type="qcurve" smooth="yes"/>
      <point x="544" y="1754" type="line" smooth="yes"/>
      <point x="477.595" y="1754"/>
      <point x="454" y="1730.9"/>
      <point x="454" y="1666" type="qcurve" smooth="yes"/>
      <point x="454" y="1594" type="line" smooth="yes"/>
      <point x="454" y="1527.6"/>
      <point x="477.595" y="1504"/>
    </contour>
  </outline>
</glyph>
<glyph name="Icircumflex" format="2">
  <advance width="408"/>
  <unicode hex="00CE"/>
  <anchor x="204" y="1880" name="top"/>
  <anchor x="204" y="-150" name="bottom"/>
  <anchor x="225" y="0" name="ogonek"/>
  <anchor x="460" y="1575" name="topright"/>
  <outline>
    <contour>
      <point x="72" y="0" type="line"/>
      <point x="336" y="0" type="line"/>
      <point x="336" y="1400" type="line"/>
      <point x="72" y="1400" type="line"/>
    </contour>
    <contour>
      <point x="-43" y="1475" type="line"/>
      <point x="158" y="1475" type="line"/>
      <point x="201" y="1593" type="line"/>
      <point x="244" y="1475" type="line"/>
      <point x="460" y="1475" type="line"/>
      <point x="298" y="1800" type="line"/>
      <point x="119" y="1800" type="line"/>
    </contour>
  </outline>
</glyph>
<glyph name="Eth" format="2">
  <advance width="850"/>
  <unicode hex="00D0"/>
  <anchor x="382.5" y="1550" name="top"/>
  <anchor x="382.5" y="-150" name="bottom"/>
  <outline>
    <contour>
      <point x="72" y="0" type="line"/>
      <point x="390" y="0" type="line" smooth="yes"/>
      <point x="501.75" y="0"/>
      <point x="660.312" y="55.0625"/>
      <point x="761.188" y="208.438"/>
      <point x="808" y="481.75"/>
      <point x="808" y="700" type="qcurve" smooth="yes"/>
      <point x="808" y="907"/>
      <point x="771.875" y="1177.5"/>
      <point x="678.125" y="1336.5"/>
      <point x="516" y="1400"/>
      <point x="390" y="1400" type="qcurve" smooth="yes"/>
      <point x="72" y="1400" type="line"/>
      <point x="72" y="812" type="line"/>
      <point x="21" y="812" type="line"/>
      <point x="21" y="588" type="line"/>
      <point x="72" y="588" type="line"/>
    </contour>
    <contour>
      <point x="336" y="244" type="line"/>
      <point x="336" y="588" type="line"/>
      <point x="428" y="588" type="line"/>
      <point x="428" y="812" type="line"/>
      <point x="336" y="812" type="line"/>
      <point x="336" y="1156" type="line"/>
      <point x="400" y="1156" type="line" smooth="yes"/>
      <point x="438.25" y="1156"/>
      <point x="491.562" y="1132"/>
      <point x="524.938" y="1042"/>
      <point x="540" y="865"/>
      <point x="540" y="712" type="qcurve" smooth="yes"/>
      <point x="540" y="553.75"/>
      <point x="526.062" y="367.938"/>
      <point x="493.438" y="271.562"/>
      <point x="439.75" y="244"/>
      <point x="400" y="244" type="qcurve" smooth="yes"/>
    </contour>
  </outline>
</glyph>
<glyph name="Ntilde" format="2">
  <advance width="934"/>
  <unicode hex="00D1"/>
  <anchor x="467" y="1857" name="top"/>
  <anchor x="467" y="-150" name="bottom"/>
  <outline>
    <contour>
      <point x="72" y="0" type="line"/>
      <point x="316" y="0" type="line"/>
      <point x="316" y="698" type="line"/>
      <point x="678" y="0" type="line"/>
      <point x="862" y="0" type="line"/>
      <point x="862" y="1400" type="line"/>
      <point x="618" y="1400" type="line"/>
      <point x="618" y="698" type="line"/>
      <point x="254" y="1400" type="line"/>
      <point x="72" y="1400" type="line"/>
    </contour>
    <contour>
      <point x="192" y="1562" type="qcurve"/>
      <point x="365" y="1532" type="line"/>
      <point x="366.509" y="1544.83"/>
      <point x="388.644" y="1562"/>
      <point x="406" y="1562" type="qcurve" smooth="yes"/>
      <point x="420.25" y="1562"/>
      <point x="445.781" y="1552.62"/>
      <point x="477.469" y="1541.38"/>
      <point x="519.875" y="1532"/>
      <point x="551" y="1532" type="qcurve" smooth="yes"/>
      <point x="592.25" y="1532"/>
      <point x="658.312" y="1559.47"/>
      <point x="706.688" y="1610.28"/>
      <point x="736.75" y="1682.38"/>
      <point x="742" y="1727" type="qcurve"/>
      <point x="569" y="1757" type="line"/>
      <point x="567.491" y="1744.17"/>
      <point x="545.356" y="1727"/>
      <point x="528" y="1727" type="qcurve" smooth="yes"/>
      <point x="513.75" y="1727"/>
      <point x="485.688" y="1736.38"/>
      <point x="452.312" y="1747.62"/>
      <point x="410.75" y="1757"/>
      <point x="383" y="1757" type="qcurve" smooth="yes"/>
      <point x="341.75" y="1757"/>
      <point x="275.688" y="1729.53"/>
      <point x="227.312" y="1678.72"/>
      <point x="197.25" y="1606.62"/>
    </contour>
  </outline>
</glyph>
<glyph name="ntilde" format="2">
  <advance width="751"/>
  <unicode hex="00F1"/>
  <anchor x="375" y="1444" name="top"/>
  <anchor x="375" y="-150" name="bottom"/>
  <outline>
    <contour>
      <point x="65" y="0" type="line"/>
      <point x="313" y="0" type="line"/>
      <point x="313" y="790" type="line"/>
      <point x="441" y="790" type="line"/>
      <point x="441" y="790"/>
      <point x="441" y="790"/>
      <point x="441" y="790" type="qcurve"/>
      <point x="441" y="0" type="line"/>
      <point x="689" y="0" type="line"/>
      <point x="689" y="832" type="line" smooth="yes"/>
      <point x="689" y="913"/>
      <point x="593.5" y="1014"/>
      <point x="517" y="1014" type="qcurve" smooth="yes"/>
      <point x="481" y="1014" type="line" smooth="yes"/>
      <point x="426.669" y="1014"/>
      <point x="341.675" y="961.313"/>
      <point x="313" y="910" type="qcurve"/>
      <point x="313" y="1000" type="line"/>
      <point x="65" y="1000" type="line"/>
    </contour>
    <contour>
      <point x="110" y="1156" type="qcurve"/>
      <point x="268" y="1128" type="line"/>
      <point x="273.282" y="1140.83"/>
      <point x="294.38" y="1163"/>
      <point x="314" y="1163" type="qcurve" smooth="yes"/>
      <point x="328.25" y="1163"/>
      <point x="353.781" y="1152.06"/>
      <point x="385.469" y="1138.94"/>
      <point x="427.875" y="1128"/>
      <point x="459" y="1128" type="qcurve" smooth="yes"/>
      <point x="541.5" y="1128"/>
      <point x="629.5" y="1231.75"/>
      <point x="640" y="1321" type="qcurve"/>
      <point x="482" y="1349" type="line"/>
      <point x="476.718" y="1336.17"/>
      <point x="455.62" y="1314"/>
      <point x="436" y="1314" type="qcurve" smooth="yes"/>
      <point x="421.75" y="1314"/>
      <point x="393.688" y="1324.94"/>
      <point x="360.312" y="1338.06"/>
      <point x="318.75" y="1349"/>
      <point x="291" y="1349" type="qcurve" smooth="yes"/>
      <point x="208.5" y="1349"/>
      <point x="120.5" y="1245.25"/>
    </contour>
  </outline>
</glyph>
<glyph name="divide" format="2">
  <advance width="908"/>
  <unicode hex="00F7"/>
  <outline>
    <contour>
      <point x="429" y="97" type="qcurve" smooth="yes"/>
      <point x="477" y="97" type="line" smooth="yes"/>
      <point x="538.877" y="97"/>
      <point x="566" y="120.423"/>
      <point x="566" y="174" type="qcurve" smooth="yes"/>
      <point x="566" y="301" type="line" smooth="yes"/>
      <point x="566" y="353.822"/>
      <point x="538.877" y="377"/>
      <point x="477" y="377" type="qcurve" smooth="yes"/>
      <point x="429" y="377" type="line" smooth="yes"/>
      <point x="368.632" y="377"/>
      <point x="342" y="353.822"/>
      <point x="342" y="301" type="qcurve" smooth="yes"/>
      <point x="342" y="174" type="line" smooth="yes"/>
      <point x="342" y="119.669"/>
      <point x="367.877" y="97"/>
    </contour>
    <contour>
      <point x="46" y="483" type="line"/>
      <point x="862" y="483" type="line"/>
      <point x="862" y="691" type="line"/>
      <point x="46" y="691" type="line"/>
    </contour>
    <contour>
      <point x="429" y="795" type="qcurve" smooth="yes"/>
      <point x="477" y="795" type="line" smooth="yes"/>
      <point x="538.877" y="795"/>
      <point x="566" y="818.423"/>
      <point x="566" y="872" type="qcurve" smooth="yes"/>
      <point x="566" y="999" type="line" smooth="yes"/>
      <point x="566" y="1051.82"/>
      <point x="538.877" y="1075"/>
      <point x="477" y="1075" type="qcurve" smooth="yes"/>
      <point x="429" y="1075" type="line" smooth="yes"/>
      <point x="368.632" y="1075"/>
      <point x="342" y="1051.82"/>
      <point x="342" y="999" type="qcurve" smooth="yes"/>
      <point x="342" y="872" type="line" smooth="yes"/>
      <point x="342" y="817.669"/>
      <point x="367.877" y="795"/>
    </contour>
  </outline>
</glyph>
<glyph name="edotaccent" format="2">
  <advance width="732"/>
  <unicode hex="0117"/>
  <anchor x="362" y="1460" name="top"/>
  <anchor x="355" y="-150" name="bottom"/>
  <anchor x="499" y="0" name="ogonek"/>
  <outline>
    <contour>
      <point x="55" y="246" type="line" smooth="yes"/>
      <point x="55" y="104.135"/>
      <point x="202.08" y="-14"/>
      <point x="353" y="-14" type="qcurve" smooth="yes"/>
      <point x="359" y="-14" type="line" smooth="yes"/>
      <point x="531.049" y="-14"/>
      <point x="677" y="105.644"/>
      <point x="677" y="246" type="qcurve" smooth="yes"/>
      <point x="677" y="260" type="line"/>
      <point x="429" y="304" type="line"/>
      <point x="429" y="190" type="line"/>
      <point x="429" y="190"/>
      <point x="429" y="190"/>
      <point x="429" y="190" type="qcurve"/>
      <point x="303" y="190" type="line"/>
      <point x="303" y="190"/>
      <point x="303" y="190"/>
      <point x="303" y="190" type="qcurve"/>
      <point x="303" y="402" type="line"/>
      <point x="677" y="402" type="line"/>
      <point x="677" y="790" type="line" smooth="yes"/>
      <point x="677" y="898.662"/>
      <point x="542.337" y="1014"/>
      <point x="405" y="1014" type="qcurve" smooth="yes"/>
      <point x="325" y="1014" type="line" smooth="yes"/>
      <point x="187.663" y="1014"/>
      <point x="55" y="901.153"/>
      <point x="55" y="794" type="qcurve" smooth="yes"/>
    </contour>
    <contour>
      <point x="303" y="606" type="line"/>
      <point x="303" y="810" type="line"/>
      <point x="303" y="810"/>
      <point x="303" y="810"/>
      <point x="303" y="810" type="qcurve"/>
      <point x="429" y="810" type="line"/>
      <point x="429" y="810"/>
      <point x="429" y="810"/>
      <point x="429" y="810" type="qcurve"/>
      <point x="429" y="606" type="line"/>
    </contour>
    <contour>
      <point x="332" y="1132" type="qcurve" smooth="yes"/>
      <point x="392" y="1132" type="line" smooth="yes"/>
      <point x="458.405" y="1132"/>
      <point x="482" y="1155.1"/>
      <point x="482" y="1220" type="qcurve" smooth="yes"/>
      <point x="482" y="1282" type="line" smooth="yes"/>
      <point x="482" y="1346.9"/>
      <point x="458.405" y="1370"/>
      <point x="392" y="1370" type="qcurve" smooth="yes"/>
      <point x="332" y="1370" type="line" smooth="yes"/>
      <point x="265.595" y="1370"/>
      <point x="242" y="1346.9"/>
      <point x="242" y="1282" type="qcurve" smooth="yes"/>
      <point x="242" y="1220" type="line" smooth="yes"/>
      <point x="242" y="1155.1"/>
      <point x="265.595" y="1132"/>
    </contour>
  </outline>
  <guideline angle="0" color="1,0,0,1" x="0" y="-1014"/>
</glyph>
<glyph name="Gbreve" format="2">
  <advance width="842"/>
  <unicode hex="011E"/>
  <anchor x="426" y="1918" name="top"/>
  <anchor x="426" y="-168" name="bottom"/>
  <outline>
    <contour>
      <point x="62" y="1144" type="qcurve" smooth="yes"/>
      <point x="62" y="268" type="line" smooth="yes"/>
      <point x="62" y="112.552"/>
      <point x="216.859" y="-18"/>
      <point x="404" y="-18" type="qcurve" smooth="yes"/>
      <point x="446" y="-18" type="line" smooth="yes"/>
      <point x="633.141" y="-18"/>
      <point x="790" y="112.552"/>
      <point x="790" y="268" type="qcurve" smooth="yes"/>
      <point x="790" y="806" type="line"/>
      <point x="426" y="806" type="line"/>
      <point x="426" y="562" type="line"/>
      <point x="526" y="562" type="line"/>
      <point x="526" y="226" type="line"/>
      <point x="526" y="226"/>
      <point x="526" y="226"/>
      <point x="526" y="226" type="qcurve"/>
      <point x="326" y="226" type="line"/>
      <point x="326" y="226"/>
      <point x="326" y="226"/>
      <point x="326" y="226" type="qcurve"/>
      <point x="326" y="1174" type="line"/>
      <point x="326" y="1174"/>
      <point x="326" y="1174"/>
      <point x="326" y="1174" type="qcurve"/>
      <point x="518" y="1174" type="line"/>
      <point x="518" y="1174"/>
      <point x="518" y="1174"/>
      <point x="518" y="1174" type="qcurve"/>
      <point x="518" y="980" type="line"/>
      <point x="782" y="1036" type="line"/>
      <point x="782" y="1144" type="line" smooth="yes"/>
      <point x="782" y="1291"/>
      <point x="622.5" y="1418"/>
      <point x="438" y="1418" type="qcurve" smooth="yes"/>
      <point x="404" y="1418" type="line" smooth="yes"/>
      <point x="221" y="1418"/>
      <point x="62" y="1291"/>
    </contour>
    <contour>
      <point x="426" y="1514" type="qcurve" smooth="yes"/>
      <point x="494.25" y="1514"/>
      <point x="594.438" y="1536.44"/>
      <point x="660.062" y="1602.06"/>
      <point x="692" y="1721.25"/>
      <point x="692" y="1818" type="qcurve"/>
      <point x="517" y="1818" type="line"/>
      <point x="517" y="1774.88"/>
      <point x="503.75" y="1722.22"/>
      <point x="479.75" y="1693.53"/>
      <point x="446.25" y="1684"/>
      <point x="426" y="1684" type="qcurve" smooth="yes"/>
      <point x="404.625" y="1684"/>
      <point x="370.844" y="1693.53"/>
      <point x="347.406" y="1722.22"/>
      <point x="335" y="1774.88"/>
      <point x="335" y="1818" type="qcurve"/>
      <point x="160" y="1818" type="line"/>
      <point x="160" y="1721.25"/>
      <point x="191.656" y="1602.06"/>
      <point x="257.094" y="1536.44"/>
      <point x="357.375" y="1514"/>
    </contour>
  </outline>
  <guideline angle="0" x="0" y="806"/>
  <guideline angle="0" x="0" y="700"/>
  <guideline angle="0" x="0" y="906"/>
  <guideline angle="0" x="0" y="494"/>
</glyph>
<glyph name="Gdotaccent" format="2">
  <advance width="842"/>
  <unicode hex="0120"/>
  <anchor x="426" y="1878" name="top"/>
  <anchor x="426" y="-168" name="bottom"/>
  <outline>
    <contour>
      <point x="62" y="1144" type="qcurve" smooth="yes"/>
      <point x="62" y="268" type="line" smooth="yes"/>
      <point x="62" y="112.552"/>
      <point x="216.859" y="-18"/>
      <point x="404" y="-18" type="qcurve" smooth="yes"/>
      <point x="446" y="-18" type="line" smooth="yes"/>
      <point x="633.141" y="-18"/>
      <point x="790" y="112.552"/>
      <point x="790" y="268" type="qcurve" smooth="yes"/>
      <point x="790" y="806" type="line"/>
      <point x="426" y="806" type="line"/>
      <point x="426" y="562" type="line"/>
      <point x="526" y="562" type="line"/>
      <point x="526" y="226" type="line"/>
      <point x="526" y="226"/>
      <point x="526" y="226"/>
      <point x="526" y="226" type="qcurve"/>
      <point x="326" y="226" type="line"/>
      <point x="326" y="226"/>
      <point x="326" y="226"/>
      <point x="326" y="226" type="qcurve"/>
      <point x="326" y="1174" type="line"/>
      <point x="326" y="1174"/>
      <point x="326" y="1174"/>
      <point x="326" y="1174" type="qcurve"/>
      <point x="518" y="1174" type="line"/>
      <point x="518" y="1174"/>
      <point x="518" y="1174"/>
      <point x="518" y="1174" type="qcurve"/>
      <point x="518" y="980" type="line"/>
      <point x="782" y="1036" type="line"/>
      <point x="782" y="1144" type="line" smooth="yes"/>
      <point x="782" y="1291"/>
      <point x="622.5" y="1418"/>
      <point x="438" y="1418" type="qcurve" smooth="yes"/>
      <point x="404" y="1418" type="line" smooth="yes"/>
      <point x="221" y="1418"/>
      <point x="62" y="1291"/>
    </contour>
    <contour>
      <point x="396" y="1550" type="qcurve" smooth="yes"/>
      <point x="456" y="1550" type="line" smooth="yes"/>
      <point x="522.405" y="1550"/>
      <point x="546" y="1573.1"/>
      <point x="546" y="1638" type="qcurve" smooth="yes"/>
      <point x="546" y="1700" type="line" smooth="yes"/>
      <point x="546" y="1764.9"/>
      <point x="522.405" y="1788"/>
      <point x="456" y="1788" type="qcurve" smooth="yes"/>
      <point x="396" y="1788" type="line" smooth="yes"/>
      <point x="329.595" y="1788"/>
      <point x="306" y="1764.9"/>
      <point x="306" y="1700" type="qcurve" smooth="yes"/>
      <point x="306" y="1638" type="line" smooth="yes"/>
      <point x="306" y="1573.1"/>
      <point x="329.595" y="1550"/>
    </contour>
  </outline>
  <guideline angle="0" x="0" y="806"/>
  <guideline angle="0" x="0" y="700"/>
  <guideline angle="0" x="0" y="906"/>
  <guideline angle="0" x="0" y="494"/>
</glyph>
<glyph name="uni0123" format="2">
  <advance width="741"/>
  <unicode hex="0123"/>
  <anchor x="370.5" y="1150" name="top"/>
  <anchor x="370.5" y="-578" name="bottom"/>
  <outline>
    <contour>
      <point x="303" y="210" type="qcurve"/>
      <point x="303" y="790" type="line"/>
      <point x="303" y="790"/>
      <point x="303" y="790"/>
      <point x="303" y="790" type="qcurve"/>
      <point x="431" y="790" type="line"/>
      <point x="431" y="210" type="line"/>
      <point x="303" y="210" type="line"/>
      <point x="303" y="210"/>
      <point x="303" y="210"/>
    </contour>
    <contour>
      <point x="118" y="-428" type="line"/>
      <point x="364" y="-428" type="line" smooth="yes"/>
      <point x="441.25" y="-428"/>
      <point x="559" y="-402.062"/>
      <point x="638.5" y="-342.438"/>
      <point x="679" y="-245.25"/>
      <point x="679" y="-174" type="qcurve" smooth="yes"/>
      <point x="679" y="1000" type="line"/>
      <point x="431" y="1000" type="line"/>
      <point x="431" y="904" type="line"/>
      <point x="409.871" y="959.84"/>
      <point x="329.258" y="1014"/>
      <point x="287" y="1014" type="qcurve" smooth="yes"/>
      <point x="221" y="1014" type="line" smooth="yes"/>
      <point x="151.577" y="1014"/>
      <point x="55" y="918.662"/>
      <point x="55" y="810" type="qcurve" smooth="yes"/>
      <point x="55" y="200" type="line" smooth="yes"/>
      <point x="55" y="83.7916"/>
      <point x="150.068" y="-14"/>
      <point x="221" y="-14" type="qcurve" smooth="yes"/>
      <point x="287" y="-14" type="line" smooth="yes"/>
      <point x="329.258" y="-14"/>
      <point x="409.871" y="40.1596"/>
      <point x="431" y="96" type="qcurve"/>
      <point x="431" y="-204" type="line"/>
      <point x="431" y="-204"/>
      <point x="431" y="-204"/>
      <point x="431" y="-204" type="qcurve"/>
      <point x="72" y="-204" type="line"/>
    </contour>
    <contour>
      <point x="413" y="1558" type="line"/>
      <point x="258" y="1304" type="line" smooth="yes"/>
      <point x="251.963" y="1294.19"/>
      <point x="250" y="1258.43"/>
      <point x="250" y="1229" type="qcurve" smooth="yes"/>
      <point x="250" y="1175" type="line" smooth="yes"/>
      <point x="250" y="1107.09"/>
      <point x="274.577" y="1083"/>
      <point x="344" y="1083" type="qcurve" smooth="yes"/>
      <point x="397" y="1083" type="line" smooth="yes"/>
      <point x="466.423" y="1083"/>
      <point x="491" y="1107.09"/>
      <point x="491" y="1175" type="qcurve" smooth="yes"/>
      <point x="491" y="1229" type="line" smooth="yes"/>
      <point x="491" y="1297.67"/>
      <point x="466.423" y="1322"/>
      <point x="397" y="1322" type="qcurve" smooth="yes"/>
      <point x="383" y="1322" type="line"/>
      <point x="485" y="1533" type="line"/>
    </contour>
  </outline>
</glyph>
<glyph name="itilde" format="2">
  <advance width="374"/>
  <unicode hex="0129"/>
  <anchor x="187" y="-150" name="bottom"/>
  <anchor x="187" y="1430" name="top"/>
  <anchor x="218" y="0" name="ogonek"/>
  <outline>
    <contour>
      <point x="65" y="0" type="line"/>
      <point x="309" y="0" type="line"/>
      <point x="309" y="1000" type="line"/>
      <point x="65" y="1000" type="line"/>
    </contour>
    <contour>
      <point x="-78" y="1142" type="qcurve"/>
      <point x="80" y="1114" type="line"/>
      <point x="85.2822" y="1126.83"/>
      <point x="106.38" y="1149"/>
      <point x="126" y="1149" type="qcurve" smooth="yes"/>
      <point x="140.25" y="1149"/>
      <point x="165.781" y="1138.06"/>
      <point x="197.469" y="1124.94"/>
      <point x="239.875" y="1114"/>
      <point x="271" y="1114" type="qcurve" smooth="yes"/>
      <point x="353.5" y="1114"/>
      <point x="441.5" y="1217.75"/>
      <point x="452" y="1307" type="qcurve"/>
      <point x="294" y="1335" type="line"/>
      <point x="288.718" y="1322.17"/>
      <point x="267.62" y="1300"/>
      <point x="248" y="1300" type="qcurve" smooth="yes"/>
      <point x="233.75" y="1300"/>
      <point x="205.688" y="1310.94"/>
      <point x="172.312" y="1324.06"/>
      <point x="130.75" y="1335"/>
      <point x="103" y="1335" type="qcurve" smooth="yes"/>
      <point x="20.5" y="1335"/>
      <point x="-67.5" y="1231.25"/>
    </contour>
  </outline>
</glyph>
<glyph name="dotlessi" format="2">
  <advance width="374"/>
  <unicode hex="0131"/>
  <anchor x="187" y="-150" name="bottom"/>
  <anchor x="187" y="1150" name="top"/>
  <anchor x="218" y="0" name="ogonek"/>
  <outline>
    <contour>
      <point x="65" y="0" type="line"/>
      <point x="309" y="0" type="line"/>
      <point x="309" y="1000" type="line"/>
      <point x="65" y="1000" type="line"/>
    </contour>
  </outline>
</glyph>
<glyph name="Jcircumflex" format="2">
  <advance width="778"/>
  <unicode hex="0134"/>
  <anchor x="580" y="1898" name="top"/>
  <anchor x="392" y="-168" name="bottom"/>
  <anchor x="836" y="1593" name="topright"/>
  <outline>
    <contour>
      <point x="711" y="1400" type="line"/>
      <point x="447" y="1400" type="line"/>
      <point x="447" y="226" type="line"/>
      <point x="447" y="226"/>
      <point x="447" y="226"/>
      <point x="447" y="226" type="qcurve"/>
      <point x="297" y="226" type="line"/>
      <point x="297" y="226"/>
      <point x="297" y="226"/>
      <point x="297" y="226" type="qcurve"/>
      <point x="297" y="640" type="line"/>
      <point x="33" y="592" type="line"/>
      <point x="33" y="256" type="line" smooth="yes"/>
      <point x="33" y="109"/>
      <point x="176.5" y="-18"/>
      <point x="367" y="-18" type="qcurve" smooth="yes"/>
      <point x="379" y="-18" type="line" smooth="yes"/>
      <point x="556" y="-18"/>
      <point x="711" y="109"/>
      <point x="711" y="256" type="qcurve" smooth="yes"/>
    </contour>
    <contour>
      <point x="333" y="1493" type="line"/>
      <point x="534" y="1493" type="line"/>
      <point x="577" y="1611" type="line"/>
      <point x="620" y="1493" type="line"/>
      <point x="836" y="1493" type="line"/>
      <point x="674" y="1818" type="line"/>
      <point x="495" y="1818" type="line"/>
    </contour>
  </outline>
</glyph>
<glyph name="jcircumflex" format="2">
  <advance width="378"/>
  <unicode hex="0135"/>
  <anchor x="189" y="1500" name="top"/>
  <anchor x="422" y="1243" name="topright"/>
  <outline>
    <contour>
      <point x="-182" y="-204" type="line"/>
      <point x="-136" y="-428" type="line"/>
      <point x="14" y="-428" type="line" smooth="yes"/>
      <point x="99.125" y="-428"/>
      <point x="218.844" y="-420.062"/>
      <point x="294.406" y="-372.438"/>
      <point x="329" y="-269.25"/>
      <point x="329" y="-174" type="qcurve" smooth="yes"/>
      <point x="329" y="1000" type="line"/>
      <point x="81" y="1000" type="line"/>
      <point x="81" y="-204" type="line"/>
      <point x="81" y="-204"/>
      <point x="81" y="-204"/>
      <point x="81" y="-204" type="qcurve"/>
    </contour>
    <contour>
      <point x="-42" y="1085" type="line"/>
      <point x="147" y="1085" type="line"/>
      <point x="185" y="1213" type="line"/>
      <point x="223" y="1085" type="line"/>
      <point x="422" y="1085" type="line"/>
      <point x="267" y="1400" type="line"/>
      <point x="113" y="1400" type="line"/>
    </contour>
  </outline>
</glyph>
<glyph name="uni0136" format="2">
  <advance width="840"/>
  <unicode hex="0136"/>
  <anchor x="444" y="1550" name="top"/>
  <anchor x="435" y="-150" name="bottom"/>
  <outline>
    <contour>
      <point x="816" y="1400" type="line"/>
      <point x="546" y="1400" type="line"/>
      <point x="323" y="714" type="line"/>
      <point x="336" y="714" type="line"/>
      <point x="336" y="1400" type="line"/>
      <point x="72" y="1400" type="line"/>
      <point x="72" y="0" type="line"/>
      <point x="336" y="0" type="line"/>
      <point x="336" y="708" type="line"/>
      <point x="323" y="708" type="line"/>
      <point x="543" y="0" type="line"/>
      <point x="850" y="0" type="line"/>
      <point x="570" y="782" type="line"/>
      <point x="570" y="666" type="line"/>
    </contour>
    <contour>
      <point x="392" y="-578" type="line"/>
      <point x="547" y="-324" type="line" smooth="yes"/>
      <point x="553.037" y="-314.19"/>
      <point x="555" y="-278.429"/>
      <point x="555" y="-249" type="qcurve" smooth="yes"/>
      <point x="555" y="-195" type="line" smooth="yes"/>
      <point x="555" y="-127.086"/>
      <point x="530.423" y="-103"/>
      <point x="461" y="-103" type="qcurve" smooth="yes"/>
      <point x="408" y="-103" type="line" smooth="yes"/>
      <point x="338.577" y="-103"/>
      <point x="314" y="-127.086"/>
      <point x="314" y="-195" type="qcurve" smooth="yes"/>
      <point x="314" y="-249" type="line" smooth="yes"/>
      <point x="314" y="-317.669"/>
      <point x="338.577" y="-342"/>
      <point x="408" y="-342" type="qcurve" smooth="yes"/>
      <point x="422" y="-342" type="line"/>
      <point x="320" y="-553" type="line"/>
    </contour>
  </outline>
</glyph>
<glyph name="kgreenlandic" format="2">
  <advance width="781"/>
  <unicode hex="0138"/>
  <anchor x="449" y="1150" name="top"/>
  <outline>
    <contour>
      <point x="65" y="0" type="line"/>
      <point x="313" y="0" type="line"/>
      <point x="313" y="486" type="line"/>
      <point x="507" y="0" type="line"/>
      <point x="781" y="0" type="line"/>
      <point x="546" y="553" type="line"/>
      <point x="745" y="1000" type="line"/>
      <point x="499" y="1000" type="line"/>
      <point x="313" y="564" type="line"/>
      <point x="313" y="1000" type="line"/>
      <point x="65" y="1000" type="line"/>
    </contour>
  </outline>
  <guideline angle="90" x="327" y="0"/>
  <guideline angle="90" x="433" y="0"/>
</glyph>
<glyph name="Lacute" format="2">
  <advance width="657"/>
  <unicode hex="0139"/>
  <anchor x="204" y="1550" name="top"/>
  <anchor x="362" y="-150" name="bottom"/>
  <anchor x="-28" y="700" name="left"/>
  <anchor x="344" y="1400" name="right"/>
  <anchor x="533" y="700" name="eldot"/>
  <anchor x="107" y="1475" name="topright"/>
  <outline>
    <contour>
      <point x="72" y="0" type="line"/>
      <point x="652" y="0" type="line"/>
      <point x="652" y="244" type="line"/>
      <point x="336" y="244" type="line"/>
      <point x="336" y="1400" type="line"/>
      <point x="72" y="1400" type="line"/>
    </contour>
    <contour>
      <point x="47" y="1475" type="line"/>
      <point x="266" y="1475" type="line"/>
      <point x="504" y="1800" type="line"/>
      <point x="260" y="1800" type="line"/>
    </contour>
  </outline>
</glyph>
<glyph name="Lslash" format="2">
  <advance width="657"/>
  <unicode hex="0141"/>
  <outline>
    <contour>
      <point x="72" y="0" type="line"/>
      <point x="652" y="0" type="line"/>
      <point x="652" y="244" type="line"/>
      <point x="336" y="244" type="line"/>
      <point x="336" y="565" type="line"/>
      <point x="555" y="645" type="line"/>
      <point x="555" y="805" type="line"/>
      <point x="336" y="725" type="line"/>
      <point x="336" y="1400" type="line"/>
      <point x="72" y="1400" type="line"/>
      <point x="72" y="629" type="line"/>
      <point x="13" y="608" type="line"/>
      <point x="13" y="448" type="line"/>
      <point x="72" y="469" type="line"/>
    </contour>
  </outline>
</glyph>
<glyph name="Nacute" format="2">
  <advance width="934"/>
  <unicode hex="0143"/>
  <anchor x="467" y="1550" name="top"/>
  <anchor x="467" y="-150" name="bottom"/>
  <anchor x="370" y="1475" name="topright"/>
  <outline>
    <contour>
      <point x="72" y="0" type="line"/>
      <point x="316" y="0" type="line"/>
      <point x="316" y="698" type="line"/>
      <point x="678" y="0" type="line"/>
      <point x="862" y="0" type="line"/>
      <point x="862" y="1400" type="line"/>
      <point x="618" y="1400" type="line"/>
      <point x="618" y="698" type="line"/>
      <point x="254" y="1400" type="line"/>
      <point x="72" y="1400" type="line"/>
    </contour>
    <contour>
      <point x="310" y="1475" type="line"/>
      <point x="529" y="1475" type="line"/>
      <point x="767" y="1800" type="line"/>
      <point x="523" y="1800" type="line"/>
    </contour>
  </outline>
</glyph>
<glyph name="uni0145" format="2">
  <advance width="934"/>
  <unicode hex="0145"/>
  <anchor x="467" y="1550" name="top"/>
  <anchor x="467" y="-150" name="bottom"/>
  <outline>
    <contour>
      <point x="72" y="0" type="line"/>
      <point x="316" y="0" type="line"/>
      <point x="316" y="698" type="line"/>
      <point x="678" y="0" type="line"/>
      <point x="862" y="0" type="line"/>
      <point x="862" y="1400" type="line"/>
      <point x="618" y="1400" type="line"/>
      <point x="618" y="698" type="line"/>
      <point x="254" y="1400" type="line"/>
      <point x="72" y="1400" type="line"/>
    </contour>
    <contour>
      <point x="424" y="-578" type="line"/>
      <point x="579" y="-324" type="line" smooth="yes"/>
      <point x="585.037" y="-314.19"/>
      <point x="587" y="-278.429"/>
      <point x="587" y="-249" type="qcurve" smooth="yes"/>
      <point x="587" y="-195" type="line" smooth="yes"/>
      <point x="587" y="-127.086"/>
      <point x="562.423" y="-103"/>
      <point x="493" y="-103" type="qcurve" smooth="yes"/>
      <point x="440" y="-103" type="line" smooth="yes"/>
      <point x="370.577" y="-103"/>
      <point x="346" y="-127.086"/>
      <point x="346" y="-195" type="qcurve" smooth="yes"/>
      <point x="346" y="-249" type="line" smooth="yes"/>
      <point x="346" y="-317.669"/>
      <point x="370.577" y="-342"/>
      <point x="440" y="-342" type="qcurve" smooth="yes"/>
      <point x="454" y="-342" type="line"/>
      <point x="352" y="-553" type="line"/>
    </contour>
  </outline>
</glyph>
<glyph name="OE" format="2">
  <advance width="1139"/>
  <unicode hex="0152"/>
  <outline>
    <contour>
      <point x="403" y="0" type="qcurve" smooth="yes"/>
      <point x="1101" y="0" type="line"/>
      <point x="1101" y="221" type="line"/>
      <point x="787" y="221" type="line"/>
      <point x="787" y="596" type="line"/>
      <point x="1067" y="596" type="line"/>
      <point x="1067" y="840" type="line"/>
      <point x="787" y="840" type="line"/>
      <point x="787" y="1179" type="line"/>
      <point x="1087" y="1179" type="line"/>
      <point x="1087" y="1400" type="line"/>
      <point x="403" y="1400" type="line" smooth="yes"/>
      <point x="327.625" y="1400"/>
      <point x="202.219" y="1384.12"/>
      <point x="112.031" y="1330.88"/>
      <point x="62" y="1229.5"/>
      <point x="62" y="1144" type="qcurve" smooth="yes"/>
      <point x="62" y="268" type="line" smooth="yes"/>
      <point x="62" y="180.25"/>
      <point x="108.656" y="74.5625"/>
      <point x="196.594" y="17.9375"/>
      <point x="323.125" y="0"/>
    </contour>
    <contour>
      <point x="524" y="222" type="line"/>
      <point x="326" y="222" type="line"/>
      <point x="326.755" y="222"/>
      <point x="326" y="222"/>
      <point x="326" y="222" type="qcurve"/>
      <point x="326" y="1179" type="line"/>
      <point x="326" y="1179"/>
      <point x="326" y="1179"/>
      <point x="326" y="1179" type="qcurve"/>
      <point x="524" y="1179" type="line"/>
    </contour>
  </outline>
  <guideline angle="90" color="1,0,0,1" x="524" y="0"/>
</glyph>
<glyph name="Scircumflex" format="2">
  <advance width="744"/>
  <unicode hex="015C"/>
  <anchor x="374" y="1918" name="top"/>
  <anchor x="374" y="-168" name="bottom"/>
  <anchor x="607" y="1661" name="topright"/>
  <outline>
    <contour>
      <point x="32" y="378" type="line"/>
      <point x="32" y="268" type="line" smooth="yes"/>
      <point x="32" y="179.5"/>
      <point x="74.125" y="68"/>
      <point x="155.875" y="5"/>
      <point x="276" y="-18"/>
      <point x="354" y="-18" type="qcurve" smooth="yes"/>
      <point x="392" y="-18" type="line" smooth="yes"/>
      <point x="537.5" y="-18"/>
      <point x="716" y="91"/>
      <point x="716" y="268" type="qcurve" smooth="yes"/>
      <point x="716" y="556" type="line" smooth="yes"/>
      <point x="716" y="642.25"/>
      <point x="662.75" y="749.438"/>
      <point x="568.25" y="809.062"/>
      <point x="438.5" y="830"/>
      <point x="362" y="830" type="qcurve" smooth="yes"/>
      <point x="304" y="830" type="line"/>
      <point x="304" y="830"/>
      <point x="304" y="830"/>
      <point x="304" y="830" type="qcurve"/>
      <point x="304" y="1174" type="line"/>
      <point x="304" y="1174"/>
      <point x="304" y="1174"/>
      <point x="304" y="1174" type="qcurve"/>
      <point x="444" y="1174" type="line"/>
      <point x="444" y="1174"/>
      <point x="444" y="1174"/>
      <point x="444" y="1174" type="qcurve"/>
      <point x="444" y="990" type="line"/>
      <point x="696" y="1040" type="line"/>
      <point x="696" y="1144" type="line" smooth="yes"/>
      <point x="696" y="1229.5"/>
      <point x="646.812" y="1336.5"/>
      <point x="561.688" y="1396.5"/>
      <point x="447.25" y="1418"/>
      <point x="382" y="1418" type="qcurve" smooth="yes"/>
      <point x="366" y="1418" type="line" smooth="yes"/>
      <point x="300.75" y="1418"/>
      <point x="186.312" y="1396.5"/>
      <point x="101.188" y="1336.5"/>
      <point x="52" y="1229.5"/>
      <point x="52" y="1144" type="qcurve" smooth="yes"/>
      <point x="52" y="874" type="line" smooth="yes"/>
      <point x="52" y="785.5"/>
      <point x="99.25" y="673.375"/>
      <point x="187.75" y="609.625"/>
      <point x="314.5" y="586"/>
      <point x="394" y="586" type="qcurve" smooth="yes"/>
      <point x="464" y="586" type="line"/>
      <point x="464" y="586"/>
      <point x="464" y="586"/>
      <point x="464" y="586" type="qcurve"/>
      <point x="464" y="226" type="line"/>
      <point x="464" y="226"/>
      <point x="464" y="226"/>
      <point x="464" y="226" type="qcurve"/>
      <point x="284" y="226" type="line"/>
      <point x="284" y="226"/>
      <point x="284" y="226"/>
      <point x="284" y="226" type="qcurve"/>
      <point x="284" y="430" type="line"/>
    </contour>
    <contour>
      <point x="143" y="1503" type="line"/>
      <point x="332" y="1503" type="line"/>
      <point x="370" y="1631" type="line"/>
      <point x="408" y="1503" type="line"/>
      <point x="607" y="1503" type="line"/>
      <point x="452" y="1818" type="line"/>
      <point x="298" y="1818" type="line"/>
    </contour>
  </outline>
</glyph>
<glyph name="uni0162" format="2">
  <advance width="786"/>
  <unicode hex="0162"/>
  <anchor x="393" y="1550" name="top"/>
  <anchor x="393" y="-150" name="bottom"/>
  <outline>
    <contour>
      <point x="261" y="0" type="line"/>
      <point x="525" y="0" type="line"/>
      <point x="525" y="1156" type="line"/>
      <point x="781" y="1156" type="line"/>
      <point x="781" y="1400" type="line"/>
      <point x="5" y="1400" type="line"/>
      <point x="5" y="1156" type="line"/>
      <point x="261" y="1156" type="line"/>
    </contour>
    <contour>
      <point x="373" y="-438" type="qcurve" smooth="yes"/>
      <point x="418.75" y="-438"/>
      <point x="493.312" y="-415.406"/>
      <point x="546.188" y="-371.344"/>
      <point x="575" y="-306.375"/>
      <point x="575" y="-264" type="qcurve" smooth="yes"/>
      <point x="575" y="-225"/>
      <point x="550.344" y="-164.406"/>
      <point x="505.906" y="-121.844"/>
      <point x="444.125" y="-97.625"/>
      <point x="407" y="-95" type="qcurve"/>
      <point x="436" y="0" type="line"/>
      <point x="350" y="0" type="line"/>
      <point x="285" y="-210" type="line"/>
      <point x="302.356" y="-204.718"/>
      <point x="328.436" y="-200"/>
      <point x="339" y="-200" type="qcurve" smooth="yes"/>
      <point x="364.656" y="-200"/>
      <point x="395" y="-228.08"/>
      <point x="395" y="-256" type="qcurve" smooth="yes"/>
      <point x="395" y="-286.184"/>
      <point x="369.656" y="-319"/>
      <point x="344" y="-319" type="qcurve" smooth="yes"/>
      <point x="326.644" y="-319"/>
      <point x="296.074" y="-307.546"/>
      <point x="284" y="-300" type="qcurve"/>
      <point x="234" y="-388" type="line"/>
      <point x="267.957" y="-412.147"/>
      <point x="320.178" y="-438"/>
    </contour>
  </outline>
</glyph>
<glyph name="uni0163" format="2">
  <advance width="468"/>
  <unicode hex="0163"/>
  <anchor x="236" y="1394" name="top"/>
  <anchor x="236" y="-164" name="bottom"/>
  <anchor x="346" y="1400" name="right"/>
  <outline>
    <contour>
      <point x="338" y="-14" type="qcurve" smooth="yes"/>
      <point x="403" y="-14" type="line"/>
      <point x="444" y="190" type="line"/>
      <point x="346" y="190" type="line"/>
      <point x="346" y="190"/>
      <point x="346" y="190"/>
      <point x="346" y="190" type="qcurve"/>
      <point x="346" y="796" type="line"/>
      <point x="444" y="796" type="line"/>
      <point x="444" y="1000" type="line"/>
      <point x="346" y="1000" type="line"/>
      <point x="346" y="1244" type="line"/>
      <point x="98" y="1244" type="line"/>
      <point x="98" y="1000" type="line"/>
      <point x="26" y="1000" type="line"/>
      <point x="26" y="796" type="line"/>
      <point x="98" y="796" type="line"/>
      <point x="98" y="200" type="line" smooth="yes"/>
      <point x="98" y="83.7916"/>
      <point x="199.154" y="-14"/>
    </contour>
    <contour>
      <point x="216" y="-452" type="qcurve" smooth="yes"/>
      <point x="261.75" y="-452"/>
      <point x="333.188" y="-430.281"/>
      <point x="382.312" y="-386.969"/>
      <point x="408" y="-322.125"/>
      <point x="408" y="-279" type="qcurve" smooth="yes"/>
      <point x="408" y="-240.75"/>
      <point x="386.625" y="-183.438"/>
      <point x="345.375" y="-144.062"/>
      <point x="285" y="-122"/>
      <point x="246" y="-119" type="qcurve"/>
      <point x="279" y="-14" type="line"/>
      <point x="193" y="-14" type="line"/>
      <point x="124" y="-234" type="line"/>
      <point x="141.356" y="-228.718"/>
      <point x="167.436" y="-224"/>
      <point x="178" y="-224" type="qcurve" smooth="yes"/>
      <point x="203.656" y="-224"/>
      <point x="234" y="-252.08"/>
      <point x="234" y="-280" type="qcurve" smooth="yes"/>
      <point x="234" y="-310.184"/>
      <point x="208.656" y="-343"/>
      <point x="183" y="-343" type="qcurve" smooth="yes"/>
      <point x="165.644" y="-343"/>
      <point x="135.074" y="-331.546"/>
      <point x="123" y="-324" type="qcurve"/>
      <point x="77" y="-402" type="line"/>
      <point x="110.957" y="-426.147"/>
      <point x="163.178" y="-452"/>
    </contour>
  </outline>
</glyph>
<glyph name="Uring" format="2">
  <advance width="846"/>
  <unicode hex="016E"/>
  <anchor x="423" y="1937" name="top"/>
  <anchor x="423" y="-150" name="bottom"/>
  <anchor x="500" y="0" name="ogonek"/>
  <anchor x="779" y="1400" name="horn"/>
  <outline>
    <contour>
      <point x="67" y="1400" type="line"/>
      <point x="67" y="268" type="line" smooth="yes"/>
      <point x="67" y="179.5"/>
      <point x="114.25" y="68"/>
      <point x="202.75" y="5"/>
      <point x="329.5" y="-18"/>
      <point x="409" y="-18" type="qcurve" smooth="yes"/>
      <point x="435" y="-18" type="line" smooth="yes"/>
      <point x="595.5" y="-18"/>
      <point x="779" y="91"/>
      <point x="779" y="268" type="qcurve" smooth="yes"/>
      <point x="779" y="1400" type="line"/>
      <point x="515" y="1400" type="line"/>
      <point x="515" y="236" type="line"/>
      <point x="515" y="236"/>
      <point x="515" y="236"/>
      <point x="515" y="236" type="qcurve"/>
      <point x="331" y="236" type="line"/>
      <point x="331" y="236"/>
      <point x="331" y="236"/>
      <point x="331" y="236" type="qcurve"/>
      <point x="331" y="1400" type="line"/>
    </contour>
    <contour>
      <point x="423" y="1472" type="qcurve" smooth="yes"/>
      <point x="481.125" y="1472"/>
      <point x="552.844" y="1483.75"/>
      <point x="592.406" y="1521.25"/>
      <point x="606" y="1591.5"/>
      <point x="606" y="1650" type="qcurve" smooth="yes"/>
      <point x="606" y="1708.5"/>
      <point x="592.406" y="1778.44"/>
      <point x="552.844" y="1815.56"/>
      <point x="481.125" y="1827"/>
      <point x="423" y="1827" type="qcurve" smooth="yes"/>
      <point x="364.875" y="1827"/>
      <point x="293.156" y="1815.56"/>
      <point x="253.594" y="1778.44"/>
      <point x="240" y="1708.5"/>
      <point x="240" y="1650" type="qcurve" smooth="yes"/>
      <point x="240" y="1591.5"/>
      <point x="253.594" y="1521.25"/>
      <point x="293.156" y="1483.75"/>
      <point x="364.875" y="1472"/>
    </contour>
    <contour>
      <point x="423" y="1596" type="qcurve" smooth="yes"/>
      <point x="395.08" y="1596"/>
      <point x="380" y="1616.8"/>
      <point x="380" y="1650" type="qcurve" smooth="yes"/>
      <point x="380" y="1683"/>
      <point x="395.25" y="1703"/>
      <point x="423" y="1703" type="qcurve" smooth="yes"/>
      <point x="450.166" y="1703"/>
      <point x="466" y="1683.2"/>
      <point x="466" y="1650" type="qcurve" smooth="yes"/>
      <point x="466" y="1616.8"/>
      <point x="450.166" y="1596"/>
    </contour>
  </outline>
</glyph>
<glyph name="uhungarumlaut" format="2">
  <advance width="736"/>
  <unicode hex="0171"/>
  <anchor x="368" y="1150" name="top"/>
  <anchor x="368" y="-164" name="bottom"/>
  <anchor x="445" y="0" name="ogonek"/>
  <anchor x="676" y="1000" name="horn"/>
  <outline>
    <contour>
      <point x="60" y="190" type="line" smooth="yes"/>
      <point x="60" y="63.2272"/>
      <point x="189.301" y="-14"/>
      <point x="304" y="-14" type="qcurve" smooth="yes"/>
      <point x="430" y="-14" type="line" smooth="yes"/>
      <point x="544.699" y="-14"/>
      <point x="676" y="63.2272"/>
      <point x="676" y="190" type="qcurve" smooth="yes"/>
      <point x="676" y="1000" type="line"/>
      <point x="428" y="1000" type="line"/>
      <point x="428" y="210" type="line"/>
      <point x="428" y="210"/>
      <point x="428" y="210"/>
      <point x="428" y="210" type="qcurve"/>
      <point x="308" y="210" type="line"/>
      <point x="308" y="210"/>
      <point x="308" y="210"/>
      <point x="308" y="210" type="qcurve"/>
      <point x="308" y="1000" type="line"/>
      <point x="60" y="1000" type="line"/>
    </contour>
    <contour>
      <point x="105.15" y="1085" type="line"/>
      <point x="278.55" y="1085" type="line"/>
      <point x="478.3" y="1400" type="line"/>
      <point x="284.5" y="1400" type="line"/>
    </contour>
    <contour>
      <point x="384.15" y="1085" type="line"/>
      <point x="557.55" y="1085" type="line"/>
      <point x="757.3" y="1400" type="line"/>
      <point x="563.5" y="1400" type="line"/>
    </contour>
  </outline>
</glyph>
<glyph name="Ydieresis" format="2">
  <advance width="774"/>
  <unicode hex="0178"/>
  <anchor x="382" y="1850" name="top"/>
  <anchor x="387" y="-150" name="bottom"/>
  <outline>
    <contour>
      <point x="255" y="0" type="line"/>
      <point x="519" y="0" type="line"/>
      <point x="519" y="518" type="line"/>
      <point x="784" y="1400" type="line"/>
      <point x="524" y="1400" type="line"/>
      <point x="397" y="855" type="line"/>
      <point x="269" y="1400" type="line"/>
      <point x="-10" y="1400" type="line"/>
      <point x="255" y="518" type="line"/>
    </contour>
    <contour>
      <point x="172" y="1504" type="qcurve" smooth="yes"/>
      <point x="242" y="1504" type="line" smooth="yes"/>
      <point x="308.405" y="1504"/>
      <point x="332" y="1527.6"/>
      <point x="332" y="1594" type="qcurve" smooth="yes"/>
      <point x="332" y="1666" type="line" smooth="yes"/>
      <point x="332" y="1730.9"/>
      <point x="308.405" y="1754"/>
      <point x="242" y="1754" type="qcurve" smooth="yes"/>
      <point x="172" y="1754" type="line" smooth="yes"/>
      <point x="105.595" y="1754"/>
      <point x="82" y="1730.9"/>
      <point x="82" y="1666" type="qcurve" smooth="yes"/>
      <point x="82" y="1594" type="line" smooth="yes"/>
      <point x="82" y="1527.6"/>
      <point x="105.595" y="1504"/>
    </contour>
    <contour>
      <point x="522" y="1504" type="qcurve" smooth="yes"/>
      <point x="592" y="1504" type="line" smooth="yes"/>
      <point x="658.405" y="1504"/>
      <point x="682" y="1527.6"/>
      <point x="682" y="1594" type="qcurve" smooth="yes"/>
      <point x="682" y="1666" type="line" smooth="yes"/>
      <point x="682" y="1730.9"/>
      <point x="658.405" y="1754"/>
      <point x="592" y="1754" type="qcurve" smooth="yes"/>
      <point x="522" y="1754" type="line" smooth="yes"/>
      <point x="455.595" y="1754"/>
      <point x="432" y="1730.9"/>
      <point x="432" y="1666" type="qcurve" smooth="yes"/>
      <point x="432" y="1594" type="line" smooth="yes"/>
      <point x="432" y="1527.6"/>
      <point x="455.595" y="1504"/>
    </contour>
  </outline>
  <guideline angle="90" color="1,0,0,1" x="382" y="0"/>
</glyph>
<glyph name="Zacute" format="2">
  <advance width="765"/>
  <unicode hex="0179"/>
  <anchor x="422" y="1550" name="top"/>
  <anchor x="375" y="-150" name="bottom"/>
  <anchor x="325" y="1475" name="topright"/>
  <outline>
    <contour>
      <point x="55" y="0" type="line"/>
      <point x="695" y="0" type="line"/>
      <point x="695" y="244" type="line"/>
      <point x="337" y="244" type="line"/>
      <point x="345" y="233" type="line"/>
      <point x="693" y="1248" type="line"/>
      <point x="693" y="1400" type="line"/>
      <point x="99" y="1400" type="line"/>
      <point x="99" y="1156" type="line"/>
      <point x="411" y="1156" type="line"/>
      <point x="403" y="1167" type="line"/>
      <point x="55" y="152" type="line"/>
    </contour>
    <contour>
      <point x="265" y="1475" type="line"/>
      <point x="484" y="1475" type="line"/>
      <point x="722" y="1800" type="line"/>
      <point x="478" y="1800" type="line"/>
    </contour>
  </outline>
</glyph>
<glyph name="zacute" format="2">
  <advance width="622"/>
  <unicode hex="017A"/>
  <anchor x="312" y="1150" name="top"/>
  <anchor x="312" y="-150" name="bottom"/>
  <outline>
    <contour>
      <point x="27" y="0" type="line"/>
      <point x="595" y="0" type="line"/>
      <point x="595" y="224" type="line"/>
      <point x="300" y="224" type="line"/>
      <point x="307" y="213" type="line"/>
      <point x="589" y="892" type="line"/>
      <point x="589" y="1000" type="line"/>
      <point x="65" y="1000" type="line"/>
      <point x="65" y="776" type="line"/>
      <point x="305" y="776" type="line"/>
      <point x="297" y="787" type="line"/>
      <point x="27" y="108" type="line"/>
    </contour>
    <contour>
      <point x="171" y="1085" type="line"/>
      <point x="375" y="1085" type="line"/>
      <point x="610" y="1400" type="line"/>
      <point x="382" y="1400" type="line"/>
    </contour>
  </outline>
</glyph>
<glyph name="uni01C7" format="2">
  <advance width="1435"/>
  <unicode hex="01C7"/>
  <anchor x="1237" y="1568" name="top"/>
  <anchor x="1049" y="-168" name="bottom"/>
  <anchor x="-28" y="700" name="left"/>
  <anchor x="344" y="1400" name="right"/>
  <anchor x="533" y="700" name="eldot"/>
  <outline>
    <contour>
      <point x="72" y="0" type="line"/>
      <point x="652" y="0" type="line"/>
      <point x="652" y="244" type="line"/>
      <point x="336" y="244" type="line"/>
      <point x="336" y="1400" type="line"/>
      <point x="72" y="1400" type="line"/>
    </contour>
    <contour>
      <point x="1368" y="1400" type="line"/>
      <point x="1104" y="1400" type="line"/>
      <point x="1104" y="226" type="line"/>
      <point x="1104" y="226"/>
      <point x="1104" y="226"/>
      <point x="1104" y="226" type="qcurve"/>
      <point x="954" y="226" type="line"/>
      <point x="954" y="226"/>
      <point x="954" y="226"/>
      <point x="954" y="226" type="qcurve"/>
      <point x="954" y="640" type="line"/>
      <point x="690" y="592" type="line"/>
      <point x="690" y="256" type="line" smooth="yes"/>
      <point x="690" y="109"/>
      <point x="833.5" y="-18"/>
      <point x="1024" y="-18" type="qcurve" smooth="yes"/>
      <point x="1036" y="-18" type="line" smooth="yes"/>
      <point x="1213" y="-18"/>
      <point x="1368" y="109"/>
      <point x="1368" y="256" type="qcurve" smooth="yes"/>
    </contour>
  </outline>
</glyph>
<glyph name="uni01C9" format="2">
  <advance width="756"/>
  <unicode hex="01C9"/>
  <anchor x="567" y="1150" name="top"/>
  <anchor x="189" y="-150" name="bottom"/>
  <anchor x="313" y="1448" name="right"/>
  <anchor x="378" y="700" name="eldot"/>
  <outline>
    <contour>
      <point x="65" y="0" type="line"/>
      <point x="313" y="0" type="line"/>
      <point x="313" y="1448" type="line"/>
      <point x="65" y="1448" type="line"/>
    </contour>
    <contour>
      <point x="186" y="-204" type="line"/>
      <point x="232" y="-428" type="line"/>
      <point x="382" y="-428" type="line" smooth="yes"/>
      <point x="467.125" y="-428"/>
      <point x="586.844" y="-420.062"/>
      <point x="662.406" y="-372.438"/>
      <point x="697" y="-269.25"/>
      <point x="697" y="-174" type="qcurve" smooth="yes"/>
      <point x="697" y="1000" type="line"/>
      <point x="449" y="1000" type="line"/>
      <point x="449" y="-204" type="line"/>
      <point x="449" y="-204"/>
      <point x="449" y="-204"/>
      <point x="449" y="-204" type="qcurve"/>
    </contour>
    <contour>
      <point x="435" y="1230" type="line" smooth="yes"/>
      <point x="435" y="1163.6"/>
      <point x="458.595" y="1140"/>
      <point x="525" y="1140" type="qcurve" smooth="yes"/>
      <point x="609" y="1140" type="line" smooth="yes"/>
      <point x="675.405" y="1140"/>
      <point x="699" y="1163.6"/>
      <point x="699" y="1230" type="qcurve" smooth="yes"/>
      <point x="699" y="1312" type="line" smooth="yes"/>
      <point x="699" y="1376.9"/>
      <point x="675.405" y="1400"/>
      <point x="609" y="1400" type="qcurve" smooth="yes"/>
      <point x="525" y="1400" type="line" smooth="yes"/>
      <point x="458.595" y="1400"/>
      <point x="435" y="1376.9"/>
      <point x="435" y="1312" type="qcurve" smooth="yes"/>
    </contour>
  </outline>
</glyph>
<glyph name="gcaron" format="2">
  <advance width="741"/>
  <unicode hex="01E7"/>
  <anchor x="370.5" y="1490" name="top"/>
  <anchor x="370.5" y="-578" name="bottom"/>
  <anchor x="140" y="1232" name="topright"/>
  <outline>
    <contour>
      <point x="303" y="210" type="qcurve"/>
      <point x="303" y="790" type="line"/>
      <point x="303" y="790"/>
      <point x="303" y="790"/>
      <point x="303" y="790" type="qcurve"/>
      <point x="431" y="790" type="line"/>
      <point x="431" y="210" type="line"/>
      <point x="303" y="210" type="line"/>
      <point x="303" y="210"/>
      <point x="303" y="210"/>
    </contour>
    <contour>
      <point x="118" y="-428" type="line"/>
      <point x="364" y="-428" type="line" smooth="yes"/>
      <point x="441.25" y="-428"/>
      <point x="559" y="-402.062"/>
      <point x="638.5" y="-342.438"/>
      <point x="679" y="-245.25"/>
      <point x="679" y="-174" type="qcurve" smooth="yes"/>
      <point x="679" y="1000" type="line"/>
      <point x="431" y="1000" type="line"/>
      <point x="431" y="904" type="line"/>
      <point x="409.871" y="959.84"/>
      <point x="329.258" y="1014"/>
      <point x="287" y="1014" type="qcurve" smooth="yes"/>
      <point x="221" y="1014" type="line" smooth="yes"/>
      <point x="151.577" y="1014"/>
      <point x="55" y="918.662"/>
      <point x="55" y="810" type="qcurve" smooth="yes"/>
      <point x="55" y="200" type="line" smooth="yes"/>
      <point x="55" y="83.7916"/>
      <point x="150.068" y="-14"/>
      <point x="221" y="-14" type="qcurve" smooth="yes"/>
      <point x="287" y="-14" type="line" smooth="yes"/>
      <point x="329.258" y="-14"/>
      <point x="409.871" y="40.1596"/>
      <point x="431" y="96" type="qcurve"/>
      <point x="431" y="-204" type="line"/>
      <point x="431" y="-204"/>
      <point x="431" y="-204"/>
      <point x="431" y="-204" type="qcurve"/>
      <point x="72" y="-204" type="line"/>
    </contour>
    <contour>
      <point x="604" y="1390" type="line"/>
      <point x="415" y="1390" type="line"/>
      <point x="377" y="1262" type="line"/>
      <point x="339" y="1390" type="line"/>
      <point x="140" y="1390" type="line"/>
      <point x="295" y="1075" type="line"/>
      <point x="449" y="1075" type="line"/>
    </contour>
  </outline>
</glyph>
<glyph name="uni01F8" format="2">
  <advance width="934"/>
  <unicode hex="01F8"/>
  <anchor x="467" y="1550" name="top"/>
  <anchor x="467" y="-150" name="bottom"/>
  <anchor x="564" y="1475" name="topright"/>
  <outline>
    <contour>
      <point x="72" y="0" type="line"/>
      <point x="316" y="0" type="line"/>
      <point x="316" y="698" type="line"/>
      <point x="678" y="0" type="line"/>
      <point x="862" y="0" type="line"/>
      <point x="862" y="1400" type="line"/>
      <point x="618" y="1400" type="line"/>
      <point x="618" y="698" type="line"/>
      <point x="254" y="1400" type="line"/>
      <point x="72" y="1400" type="line"/>
    </contour>
    <contour>
      <point x="405" y="1475" type="line"/>
      <point x="624" y="1475" type="line"/>
      <point x="411" y="1800" type="line"/>
      <point x="167" y="1800" type="line"/>
    </contour>
  </outline>
</glyph>
<glyph name="uni0208" format="2">
  <advance width="408"/>
  <unicode hex="0208"/>
  <anchor x="204" y="1550" name="top"/>
  <anchor x="204" y="-150" name="bottom"/>
  <anchor x="225" y="0" name="ogonek"/>
  <anchor x="109.45" y="1475" name="topright"/>
  <outline>
    <contour>
      <point x="72" y="0" type="line"/>
      <point x="336" y="0" type="line"/>
      <point x="336" y="1400" type="line"/>
      <point x="72" y="1400" type="line"/>
    </contour>
    <contour>
      <point x="487.45" y="1475" type="line"/>
      <point x="306.4" y="1800" type="line"/>
      <point x="99" y="1800" type="line"/>
      <point x="301.3" y="1475" type="line"/>
    </contour>
    <contour>
      <point x="160.45" y="1475" type="line"/>
      <point x="-20.6" y="1800" type="line"/>
      <point x="-228" y="1800" type="line"/>
      <point x="-25.7" y="1475" type="line"/>
    </contour>
  </outline>
</glyph>
<glyph name="uni0209" format="2">
  <advance width="374"/>
  <unicode hex="0209"/>
  <anchor x="187" y="-150" name="bottom"/>
  <anchor x="187" y="1150" name="top"/>
  <anchor x="218" y="0" name="ogonek"/>
  <outline>
    <contour>
      <point x="65" y="0" type="line"/>
      <point x="309" y="0" type="line"/>
      <point x="309" y="1000" type="line"/>
      <point x="65" y="1000" type="line"/>
    </contour>
    <contour>
      <point x="262.85" y="-65" type="line"/>
      <point x="83.5" y="250" type="line"/>
      <point x="-110.3" y="250" type="line"/>
      <point x="89.45" y="-65" type="line"/>
    </contour>
    <contour>
      <point x="-16.15" y="-65" type="line"/>
      <point x="-195.5" y="250" type="line"/>
      <point x="-389.3" y="250" type="line"/>
      <point x="-189.55" y="-65" type="line"/>
    </contour>
  </outline>
</glyph>
<glyph name="uni0211" format="2">
  <advance width="705"/>
  <unicode hex="0211"/>
  <anchor x="375" y="1164" name="top"/>
  <anchor x="189" y="-150" name="bottom"/>
  <anchor x="-35" y="507" name="left"/>
  <outline>
    <contour>
      <point x="65" y="0" type="line"/>
      <point x="313" y="0" type="line"/>
      <point x="313" y="790" type="line"/>
      <point x="437" y="790" type="line"/>
      <point x="437" y="790"/>
      <point x="437" y="790"/>
      <point x="437" y="790" type="qcurve"/>
      <point x="437" y="654" type="line"/>
      <point x="685" y="701" type="line"/>
      <point x="685" y="832" type="line" smooth="yes"/>
      <point x="685" y="872.5"/>
      <point x="659.938" y="939.5"/>
      <point x="614.562" y="987.5"/>
      <point x="551.25" y="1014"/>
      <point x="513" y="1014" type="qcurve" smooth="yes"/>
      <point x="481" y="1014" type="line" smooth="yes"/>
      <point x="426.669" y="1014"/>
      <point x="341.675" y="961.313"/>
      <point x="313" y="910" type="qcurve"/>
      <point x="313" y="1000" type="line"/>
      <point x="65" y="1000" type="line"/>
    </contour>
    <contour>
      <point x="637.85" y="1099" type="line"/>
      <point x="458.5" y="1414" type="line"/>
      <point x="264.7" y="1414" type="line"/>
      <point x="464.45" y="1099" type="line"/>
    </contour>
    <contour>
      <point x="358.85" y="1099" type="line"/>
      <point x="179.5" y="1414" type="line"/>
      <point x="-14.3" y="1414" type="line"/>
      <point x="185.45" y="1099" type="line"/>
    </contour>
  </outline>
  <guideline angle="0" x="0" y="988"/>
  <guideline angle="0" x="0" y="870"/>
</glyph>
<glyph name="uni0216" format="2">
  <advance width="846"/>
  <unicode hex="0216"/>
  <anchor x="423" y="1550" name="top"/>
  <anchor x="423" y="-150" name="bottom"/>
  <anchor x="500" y="0" name="ogonek"/>
  <anchor x="779" y="1400" name="horn"/>
  <outline>
    <contour>
      <point x="67" y="1400" type="line"/>
      <point x="67" y="268" type="line" smooth="yes"/>
      <point x="67" y="179.5"/>
      <point x="114.25" y="68"/>
      <point x="202.75" y="5"/>
      <point x="329.5" y="-18"/>
      <point x="409" y="-18" type="qcurve" smooth="yes"/>
      <point x="435" y="-18" type="line" smooth="yes"/>
      <point x="595.5" y="-18"/>
      <point x="779" y="91"/>
      <point x="779" y="268" type="qcurve" smooth="yes"/>
      <point x="779" y="1400" type="line"/>
      <point x="515" y="1400" type="line"/>
      <point x="515" y="236" type="line"/>
      <point x="515" y="236"/>
      <point x="515" y="236"/>
      <point x="515" y="236" type="qcurve"/>
      <point x="331" y="236" type="line"/>
      <point x="331" y="236"/>
      <point x="331" y="236"/>
      <point x="331" y="236" type="qcurve"/>
      <point x="331" y="1400" type="line"/>
    </contour>
    <contour>
      <point x="423" y="1800" type="qcurve" smooth="yes"/>
      <point x="354.375" y="1800"/>
      <point x="254.094" y="1777.56"/>
      <point x="188.656" y="1711.94"/>
      <point x="157" y="1592.75"/>
      <point x="157" y="1496" type="qcurve"/>
      <point x="332" y="1496" type="line"/>
      <point x="332" y="1539.12"/>
      <point x="344.406" y="1591.78"/>
      <point x="367.844" y="1620.47"/>
      <point x="401.625" y="1630"/>
      <point x="423" y="1630" type="qcurve" smooth="yes"/>
      <point x="443.25" y="1630"/>
      <point x="476.75" y="1620.47"/>
      <point x="500.75" y="1591.78"/>
      <point x="514" y="1539.12"/>
      <point x="514" y="1496" type="qcurve"/>
      <point x="689" y="1496" type="line"/>
      <point x="689" y="1592.75"/>
      <point x="657.062" y="1711.94"/>
      <point x="591.438" y="1777.56"/>
      <point x="491.25" y="1800"/>
    </contour>
  </outline>
</glyph>
<glyph name="uni021A" format="2">
  <advance width="786"/>
  <unicode hex="021A"/>
  <anchor x="393" y="1550" name="top"/>
  <anchor x="393" y="-150" name="bottom"/>
  <outline>
    <contour>
      <point x="261" y="0" type="line"/>
      <point x="525" y="0" type="line"/>
      <point x="525" y="1156" type="line"/>
      <point x="781" y="1156" type="line"/>
      <point x="781" y="1400" type="line"/>
      <point x="5" y="1400" type="line"/>
      <point x="5" y="1156" type="line"/>
      <point x="261" y="1156" type="line"/>
    </contour>
    <contour>
      <point x="350" y="-578" type="line"/>
      <point x="505" y="-324" type="line" smooth="yes"/>
      <point x="511.037" y="-314.19"/>
      <point x="513" y="-278.429"/>
      <point x="513" y="-249" type="qcurve" smooth="yes"/>
      <point x="513" y="-195" type="line" smooth="yes"/>
      <point x="513" y="-127.086"/>
      <point x="488.423" y="-103"/>
      <point x="419" y="-103" type="qcurve" smooth="yes"/>
      <point x="366" y="-103" type="line" smooth="yes"/>
      <point x="296.577" y="-103"/>
      <point x="272" y="-127.086"/>
      <point x="272" y="-195" type="qcurve" smooth="yes"/>
      <point x="272" y="-249" type="line" smooth="yes"/>
      <point x="272" y="-317.669"/>
      <point x="296.577" y="-342"/>
      <point x="366" y="-342" type="qcurve" smooth="yes"/>
      <point x="380" y="-342" type="line"/>
      <point x="278" y="-553" type="line"/>
    </contour>
  </outline>
</glyph>
<glyph name="uni021B" format="2">
  <advance width="468"/>
  <unicode hex="021B"/>
  <anchor x="236" y="1394" name="top"/>
  <anchor x="236" y="-164" name="bottom"/>
  <anchor x="346" y="1400" name="right"/>
  <outline>
    <contour>
      <point x="338" y="-14" type="qcurve" smooth="yes"/>
      <point x="403" y="-14" type="line"/>
      <point x="444" y="190" type="line"/>
      <point x="346" y="190" type="line"/>
      <point x="346" y="190"/>
      <point x="346" y="190"/>
      <point x="346" y="190" type="qcurve"/>
      <point x="346" y="796" type="line"/>
      <point x="444" y="796" type="line"/>
      <point x="444" y="1000" type="line"/>
      <point x="346" y="1000" type="line"/>
      <point x="346" y="1244" type="line"/>
      <point x="98" y="1244" type="line"/>
      <point x="98" y="1000" type="line"/>
      <point x="26" y="1000" type="line"/>
      <point x="26" y="796" type="line"/>
      <point x="98" y="796" type="line"/>
      <point x="98" y="200" type="line" smooth="yes"/>
      <point x="98" y="83.7916"/>
      <point x="199.154" y="-14"/>
    </contour>
    <contour>
      <point x="193" y="-592" type="line"/>
      <point x="348" y="-338" type="line" smooth="yes"/>
      <point x="354.037" y="-328.19"/>
      <point x="356" y="-292.429"/>
      <point x="356" y="-263" type="qcurve" smooth="yes"/>
      <point x="356" y="-209" type="line" smooth="yes"/>
      <point x="356" y="-141.086"/>
      <point x="331.423" y="-117"/>
      <point x="262" y="-117" type="qcurve" smooth="yes"/>
      <point x="209" y="-117" type="line" smooth="yes"/>
      <point x="139.577" y="-117"/>
      <point x="115" y="-141.086"/>
      <point x="115" y="-209" type="qcurve" smooth="yes"/>
      <point x="115" y="-263" type="line" smooth="yes"/>
      <point x="115" y="-331.669"/>
      <point x="139.577" y="-356"/>
      <point x="209" y="-356" type="qcurve" smooth="yes"/>
      <point x="223" y="-356" type="line"/>
      <point x="121" y="-567" type="line"/>
    </contour>
  </outline>
</glyph>
<glyph name="uni0253" format="2">
  <advance width="744"/>
  <unicode hex="0253"/>
  <anchor x="385" y="1600" name="top"/>
  <anchor x="385" y="-152" name="bottom"/>
  <outline>
    <contour>
      <point x="313" y="210" type="line"/>
      <point x="313" y="792" type="line"/>
      <point x="441" y="792" type="line"/>
      <point x="441" y="792"/>
      <point x="441" y="792"/>
      <point x="441" y="792" type="qcurve"/>
      <point x="441" y="210" type="line"/>
      <point x="441" y="210"/>
      <point x="441" y="210"/>
      <point x="441" y="210" type="qcurve"/>
    </contour>
    <contour>
      <point x="65" y="-2" type="line"/>
      <point x="313" y="-2" type="line"/>
      <point x="313" y="96" type="line"/>
      <point x="334.129" y="39.405"/>
      <point x="416.742" y="-16"/>
      <point x="459" y="-16" type="qcurve" smooth="yes"/>
      <point x="523" y="-16" type="line" smooth="yes"/>
      <point x="619.589" y="-16"/>
      <point x="689" y="95.1106"/>
      <point x="689" y="200" type="qcurve" smooth="yes"/>
      <point x="689" y="812" type="line" smooth="yes"/>
      <point x="689" y="912.362"/>
      <point x="616.57" y="1016"/>
      <point x="523" y="1016" type="qcurve" smooth="yes"/>
      <point x="459" y="1016" type="line" smooth="yes"/>
      <point x="416.742" y="1016"/>
      <point x="334.129" y="962.595"/>
      <point x="313" y="906" type="qcurve"/>
      <point x="313" y="1244" type="line"/>
      <point x="313" y="1244"/>
      <point x="313" y="1244"/>
      <point x="313" y="1244" type="qcurve"/>
      <point x="413" y="1244" type="line"/>
      <point x="455" y="1448" type="line"/>
      <point x="313" y="1448" type="line" smooth="yes"/>
      <point x="196.792" y="1448"/>
      <point x="65" y="1328.32"/>
      <point x="65" y="1194" type="qcurve" smooth="yes"/>
    </contour>
  </outline>
  <guideline angle="0" x="0" y="988"/>
  <guideline angle="0" x="0" y="42"/>
  <guideline angle="0" x="0" y="988"/>
  <guideline angle="0" x="0" y="42"/>
</glyph>
<glyph name="caron" format="2">
  <advance width="564"/>
  <unicode hex="02C7"/>
  <outline>
    <contour>
      <point x="205" y="1075" type="line"/>
      <point x="359" y="1075" type="line"/>
      <point x="514" y="1390" type="line"/>
      <point x="325" y="1390" type="line"/>
      <point x="287" y="1262" type="line"/>
      <point x="249" y="1390" type="line"/>
      <point x="50" y="1390" type="line"/>
    </contour>
  </outline>
</glyph>
<glyph name="tilde" format="2">
  <advance width="630"/>
  <unicode hex="02DC"/>
  <outline>
    <contour>
      <point x="50" y="1142" type="qcurve"/>
      <point x="208" y="1114" type="line"/>
      <point x="213.282" y="1126.83"/>
      <point x="234.38" y="1149"/>
      <point x="254" y="1149" type="qcurve" smooth="yes"/>
      <point x="268.25" y="1149"/>
      <point x="293.781" y="1138.06"/>
      <point x="325.469" y="1124.94"/>
      <point x="367.875" y="1114"/>
      <point x="399" y="1114" type="qcurve" smooth="yes"/>
      <point x="481.5" y="1114"/>
      <point x="569.5" y="1217.75"/>
      <point x="580" y="1307" type="qcurve"/>
      <point x="422" y="1335" type="line"/>
      <point x="416.718" y="1322.17"/>
      <point x="395.62" y="1300"/>
      <point x="376" y="1300" type="qcurve" smooth="yes"/>
      <point x="361.75" y="1300"/>
      <point x="333.688" y="1310.94"/>
      <point x="300.312" y="1324.06"/>
      <point x="258.75" y="1335"/>
      <point x="231" y="1335" type="qcurve" smooth="yes"/>
      <point x="148.5" y="1335"/>
      <point x="60.5" y="1231.25"/>
    </contour>
  </outline>
</glyph>
<glyph name="tildecomb" format="2">
  <unicode hex="0303"/>
  <anchor x="0" y="1150" name="_top"/>
  <anchor x="0" y="1430" name="top"/>
  <outline>
    <contour>
      <point x="-265" y="1142" type="qcurve"/>
      <point x="-107" y="1114" type="line"/>
      <point x="-101.718" y="1126.83"/>
      <point x="-80.6196" y="1149"/>
      <point x="-61" y="1149" type="qcurve" smooth="yes"/>
      <point x="-46.75" y="1149"/>
      <point x="-21.2188" y="1138.06"/>
      <point x="10.4688" y="1124.94"/>
      <point x="52.875" y="1114"/>
      <point x="84" y="1114" type="qcurve" smooth="yes"/>
      <point x="166.5" y="1114"/>
      <point x="254.5" y="1217.75"/>
      <point x="265" y="1307" type="qcurve"/>
      <point x="107" y="1335" type="line"/>
      <point x="101.718" y="1322.17"/>
      <point x="80.6196" y="1300"/>
      <point x="61" y="1300" type="qcurve" smooth="yes"/>
      <point x="46.75" y="1300"/>
      <point x="18.6875" y="1310.94"/>
      <point x="-14.6875" y="1324.06"/>
      <point x="-56.25" y="1335"/>
      <point x="-84" y="1335" type="qcurve" smooth="yes"/>
      <point x="-166.5" y="1335"/>
      <point x="-254.5" y="1231.25"/>
    </contour>
  </outline>
</glyph>
<glyph name="uni0324" format="2">
  <unicode hex="0324"/>
  <anchor x="0" y="-302" name="_top"/>
  <anchor x="0" y="98" name="_bottom"/>
  <anchor x="0" y="-12" name="top"/>
  <outline>
    <contour>
      <point x="-175" y="-342" type="qcurve" smooth="yes"/>
      <point x="-135" y="-342" type="line" smooth="yes"/>
      <point x="-68.5952" y="-342"/>
      <point x="-45" y="-318.405"/>
      <point x="-45" y="-252" type="qcurve" smooth="yes"/>
      <point x="-45" y="-190" type="line" smooth="yes"/>
      <point x="-45" y="-125.104"/>
      <point x="-68.5952" y="-102"/>
      <point x="-135" y="-102" type="qcurve" smooth="yes"/>
      <point x="-175" y="-102" type="line" smooth="yes"/>
      <point x="-241.405" y="-102"/>
      <point x="-265" y="-125.104"/>
      <point x="-265" y="-190" type="qcurve" smooth="yes"/>
      <point x="-265" y="-252" type="line" smooth="yes"/>
      <point x="-265" y="-318.405"/>
      <point x="-241.405" y="-342"/>
    </contour>
    <contour>
      <point x="135" y="-342" type="qcurve" smooth="yes"/>
      <point x="175" y="-342" type="line" smooth="yes"/>
      <point x="241.405" y="-342"/>
      <point x="265" y="-318.405"/>
      <point x="265" y="-252" type="qcurve" smooth="yes"/>
      <point x="265" y="-190" type="line" smooth="yes"/>
      <point x="265" y="-125.104"/>
      <point x="241.405" y="-102"/>
      <point x="175" y="-102" type="qcurve" smooth="yes"/>
      <point x="135" y="-102" type="line" smooth="yes"/>
      <point x="68.5952" y="-102"/>
      <point x="45" y="-125.104"/>
      <point x="45" y="-190" type="qcurve" smooth="yes"/>
      <point x="45" y="-252" type="line" smooth="yes"/>
      <point x="45" y="-318.405"/>
      <point x="68.5952" y="-342"/>
    </contour>
  </outline>
</glyph>
<glyph name="uni0328" format="2">
  <unicode hex="0328"/>
  <anchor x="0" y="-150" name="_bottom"/>
  <anchor x="88" y="0" name="_ogonek"/>
  <outline>
    <contour>
      <point x="18.2925" y="-428" type="qcurve" smooth="yes"/>
      <point x="51.4877" y="-428"/>
      <point x="111.816" y="-414.337"/>
      <point x="142" y="-400" type="qcurve"/>
      <point x="174" y="-226" type="line"/>
      <point x="157.399" y="-232.791"/>
      <point x="123.774" y="-240"/>
      <point x="107.705" y="-240" type="qcurve" smooth="yes"/>
      <point x="63.4063" y="-240"/>
      <point x="11" y="-187.599"/>
      <point x="11" y="-143.318" type="qcurve" smooth="yes"/>
      <point x="11" y="-100.82"/>
      <point x="56.3068" y="-16.6012"/>
      <point x="88" y="0" type="qcurve"/>
      <point x="-65" y="0" type="line"/>
      <point x="-117.822" y="-49.049"/>
      <point x="-174" y="-169.64"/>
      <point x="-174" y="-236.183" type="qcurve" smooth="yes"/>
      <point x="-174" y="-326.597"/>
      <point x="-72.2667" y="-428"/>
    </contour>
  </outline>
</glyph>
<glyph name="uni032E" format="2">
  <unicode hex="032E"/>
  <anchor x="-1" y="-150" name="_bottom"/>
  <anchor x="0" y="-350" name="_top"/>
  <anchor x="0" y="0" name="top"/>
  <outline>
    <contour>
      <point x="0" y="-404" type="qcurve" smooth="yes"/>
      <point x="64.5" y="-404"/>
      <point x="151.875" y="-381.562"/>
      <point x="205.125" y="-315.938"/>
      <point x="228" y="-196.75"/>
      <point x="228" y="-100" type="qcurve"/>
      <point x="70" y="-100" type="line"/>
      <point x="70" y="-148.75"/>
      <point x="60.5" y="-207.5"/>
      <point x="42.5" y="-239"/>
      <point x="16.5" y="-249"/>
      <point x="0" y="-249" type="qcurve" smooth="yes"/>
      <point x="-17.625" y="-249"/>
      <point x="-44.5312" y="-239"/>
      <point x="-62.7188" y="-207.5"/>
      <point x="-72" y="-148.75"/>
      <point x="-72" y="-100" type="qcurve"/>
      <point x="-230" y="-100" type="line"/>
      <point x="-230" y="-196.75"/>
      <point x="-206.781" y="-315.938"/>
      <point x="-152.969" y="-381.562"/>
      <point x="-64.875" y="-404"/>
    </contour>
  </outline>
  <guideline angle="0" x="0" y="-100"/>
</glyph>
<glyph name="uni040E" format="2">
  <advance width="774"/>
  <unicode hex="040E"/>
  <anchor x="402" y="1900" name="top"/>
  <outline>
    <contour>
      <point x="158" y="0" type="line"/>
      <point x="287" y="0" type="line" smooth="yes"/>
      <point x="357.932" y="0"/>
      <point x="460.644" y="97.8222"/>
      <point x="478" y="168" type="qcurve" smooth="yes"/>
      <point x="784" y="1400" type="line"/>
      <point x="543" y="1400" type="line"/>
      <point x="400" y="772" type="line"/>
      <point x="238" y="1400" type="line"/>
      <point x="-10" y="1400" type="line"/>
      <point x="286" y="307" type="line"/>
      <point x="266" y="220" type="line"/>
      <point x="266" y="220"/>
      <point x="266" y="220"/>
      <point x="266" y="220" type="qcurve"/>
      <point x="113" y="220" type="line"/>
    </contour>
    <contour>
      <point x="402" y="1496" type="qcurve" smooth="yes"/>
      <point x="466.5" y="1496"/>
      <point x="553.875" y="1518.44"/>
      <point x="607.125" y="1584.06"/>
      <point x="630" y="1703.25"/>
      <point x="630" y="1800" type="qcurve"/>
      <point x="472" y="1800" type="line"/>
      <point x="472" y="1751.25"/>
      <point x="462.5" y="1692.5"/>
      <point x="444.5" y="1661"/>
      <point x="418.5" y="1651"/>
      <point x="402" y="1651" type="qcurve" smooth="yes"/>
      <point x="384.375" y="1651"/>
      <point x="357.469" y="1661"/>
      <point x="339.281" y="1692.5"/>
      <point x="330" y="1751.25"/>
      <point x="330" y="1800" type="qcurve"/>
      <point x="172" y="1800" type="line"/>
      <point x="172" y="1703.25"/>
      <point x="195.219" y="1584.06"/>
      <point x="249.031" y="1518.44"/>
      <point x="337.125" y="1496"/>
    </contour>
  </outline>
  <guideline angle="90" x="400" y="0"/>
</glyph>
<glyph name="uni0417" format="2">
  <advance width="782"/>
  <unicode hex="0417"/>
  <anchor x="399" y="1550" name="top"/>
  <anchor x="463" y="0" name="ogonek"/>
  <outline>
    <contour>
      <point x="28" y="381" type="line"/>
      <point x="28" y="242" type="line" smooth="yes"/>
      <point x="28" y="80.5156"/>
      <point x="201.117" y="-18"/>
      <point x="346" y="-18" type="qcurve" smooth="yes"/>
      <point x="440" y="-18" type="line" smooth="yes"/>
      <point x="506.75" y="-18"/>
      <point x="618.438" y="2.96875"/>
      <point x="699.062" y="64.2812"/>
      <point x="744" y="175.625"/>
      <point x="744" y="266" type="qcurve" smooth="yes"/>
      <point x="744" y="412" type="line" smooth="yes"/>
      <point x="744" y="550.846"/>
      <point x="677" y="708.153"/>
      <point x="554" y="724" type="qcurve"/>
      <point x="659.644" y="745.883"/>
      <point x="728" y="885.773"/>
      <point x="728" y="1005" type="qcurve" smooth="yes"/>
      <point x="728" y="1144" type="line" smooth="yes"/>
      <point x="728" y="1231.38"/>
      <point x="683.062" y="1338.84"/>
      <point x="602.438" y="1397.91"/>
      <point x="490.75" y="1418"/>
      <point x="424" y="1418" type="qcurve" smooth="yes"/>
      <point x="346" y="1418" type="line" smooth="yes"/>
      <point x="266.5" y="1418"/>
      <point x="147.25" y="1386.62"/>
      <point x="67.75" y="1324.38"/>
      <point x="28" y="1231.5"/>
      <point x="28" y="1170" type="qcurve" smooth="yes"/>
      <point x="28" y="983" type="line"/>
      <point x="292" y="935" type="line"/>
      <point x="292" y="1178" type="line"/>
      <point x="292" y="1178"/>
      <point x="292" y="1178"/>
      <point x="292" y="1178" type="qcurve"/>
      <point x="374" y="1178" type="line" smooth="yes"/>
      <point x="426.822" y="1178"/>
      <point x="464" y="1137.31"/>
      <point x="464" y="1086" type="qcurve" smooth="yes"/>
      <point x="464" y="935" type="line" smooth="yes"/>
      <point x="464" y="876.141"/>
      <point x="426.822" y="835"/>
      <point x="374" y="835" type="qcurve" smooth="yes"/>
      <point x="228" y="835" type="line"/>
      <point x="228" y="595" type="line"/>
      <point x="390" y="595" type="line" smooth="yes"/>
      <point x="442.822" y="595"/>
      <point x="480" y="553.859"/>
      <point x="480" y="495" type="qcurve" smooth="yes"/>
      <point x="480" y="314" type="line" smooth="yes"/>
      <point x="480" y="262.687"/>
      <point x="442.822" y="222"/>
      <point x="390" y="222" type="qcurve" smooth="yes"/>
      <point x="292" y="222" type="line"/>
      <point x="292" y="222"/>
      <point x="292" y="222"/>
      <point x="292" y="222" type="qcurve"/>
      <point x="292" y="429" type="line"/>
    </contour>
  </outline>
</glyph>
<glyph name="uni0419" format="2">
  <advance width="874"/>
  <unicode hex="0419"/>
  <anchor x="437" y="-150" name="bottom"/>
  <anchor x="437" y="1900" name="top"/>
  <outline>
    <contour>
      <point x="72" y="0" type="line"/>
      <point x="276" y="0" type="line"/>
      <point x="558" y="776" type="line"/>
      <point x="558" y="0" type="line"/>
      <point x="802" y="0" type="line"/>
      <point x="802" y="1400" type="line"/>
      <point x="598" y="1400" type="line"/>
      <point x="316" y="620" type="line"/>
      <point x="316" y="1400" type="line"/>
      <point x="72" y="1400" type="line"/>
    </contour>
    <contour>
      <point x="437" y="1496" type="qcurve" smooth="yes"/>
      <point x="501.5" y="1496"/>
      <point x="588.875" y="1518.44"/>
      <point x="642.125" y="1584.06"/>
      <point x="665" y="1703.25"/>
      <point x="665" y="1800" type="qcurve"/>
      <point x="507" y="1800" type="line"/>
      <point x="507" y="1751.25"/>
      <point x="497.5" y="1692.5"/>
      <point x="479.5" y="1661"/>
      <point x="453.5" y="1651"/>
      <point x="437" y="1651" type="qcurve" smooth="yes"/>
      <point x="419.375" y="1651"/>
      <point x="392.469" y="1661"/>
      <point x="374.281" y="1692.5"/>
      <point x="365" y="1751.25"/>
      <point x="365" y="1800" type="qcurve"/>
      <point x="207" y="1800" type="line"/>
      <point x="207" y="1703.25"/>
      <point x="230.219" y="1584.06"/>
      <point x="284.031" y="1518.44"/>
      <point x="372.125" y="1496"/>
    </contour>
  </outline>
</glyph>
<glyph name="uni041F" format="2">
  <advance width="864"/>
  <unicode hex="041F"/>
  <outline>
    <contour>
      <point x="72" y="0" type="line"/>
      <point x="336" y="0" type="line"/>
      <point x="336" y="1180" type="line"/>
      <point x="528" y="1180" type="line"/>
      <point x="528" y="0" type="line"/>
      <point x="792" y="0" type="line"/>
      <point x="792" y="1400" type="line"/>
      <point x="72" y="1400" type="line"/>
    </contour>
  </outline>
</glyph>
<glyph name="uni0429" format="2">
  <advance width="1290"/>
  <unicode hex="0429"/>
  <outline>
    <contour>
      <point x="72" y="0" type="line"/>
      <point x="1058" y="0" type="line"/>
      <point x="1070" y="-260" type="line"/>
      <point x="1290" y="-260" type="line"/>
      <point x="1290" y="220" type="line"/>
      <point x="1180" y="220" type="line"/>
      <point x="1180" y="1400" type="line"/>
      <point x="916" y="1400" type="line"/>
      <point x="916" y="220" type="line"/>
      <point x="758" y="220" type="line"/>
      <point x="758" y="1400" type="line"/>
      <point x="494" y="1400" type="line"/>
      <point x="494" y="220" type="line"/>
      <point x="336" y="220" type="line"/>
      <point x="336" y="1400" type="line"/>
      <point x="72" y="1400" type="line"/>
    </contour>
  </outline>
</glyph>
<glyph name="uni042B" format="2">
  <advance width="1220"/>
  <unicode hex="042B"/>
  <anchor x="610" y="1550" name="top"/>
  <outline>
    <contour>
      <point x="72" y="0" type="line"/>
      <point x="420" y="0" type="line" smooth="yes"/>
      <point x="495.75" y="0"/>
      <point x="622.188" y="21.25"/>
      <point x="713.312" y="79.75"/>
      <point x="764" y="183.5"/>
      <point x="764" y="266" type="qcurve" smooth="yes"/>
      <point x="764" y="634" type="line" smooth="yes"/>
      <point x="764" y="719.5"/>
      <point x="716.688" y="827.75"/>
      <point x="627.812" y="889.25"/>
      <point x="500.25" y="912"/>
      <point x="420" y="912" type="qcurve" smooth="yes"/>
      <point x="336" y="912" type="line"/>
      <point x="336" y="1400" type="line"/>
      <point x="72" y="1400" type="line"/>
    </contour>
    <contour>
      <point x="336" y="232" type="line"/>
      <point x="336" y="680" type="line"/>
      <point x="432" y="680" type="line" smooth="yes"/>
      <point x="465.202" y="680"/>
      <point x="500" y="647.166"/>
      <point x="500" y="620" type="qcurve" smooth="yes"/>
      <point x="500" y="292" type="line" smooth="yes"/>
      <point x="500" y="264.834"/>
      <point x="465.202" y="232"/>
      <point x="432" y="232" type="qcurve" smooth="yes"/>
    </contour>
    <contour>
      <point x="884" y="0" type="line"/>
      <point x="1148" y="0" type="line"/>
      <point x="1148" y="1400" type="line"/>
      <point x="884" y="1400" type="line"/>
    </contour>
  </outline>
  <guideline angle="90" color="1,0,0,1" x="763.6" y="0"/>
</glyph>
<glyph name="uni0432" format="2">
  <advance width="756"/>
  <unicode hex="0432"/>
  <outline>
    <contour>
      <point x="62" y="0" type="line"/>
      <point x="396" y="0" type="line" smooth="yes"/>
      <point x="534.846" y="0"/>
      <point x="701" y="100.7"/>
      <point x="701" y="232" type="qcurve" smooth="yes"/>
      <point x="701" y="307" type="line" smooth="yes"/>
      <point x="701" y="396.797"/>
      <point x="630.669" y="504.626"/>
      <point x="562" y="525" type="qcurve"/>
      <point x="623.123" y="541.601"/>
      <point x="686" y="630.012"/>
      <point x="686" y="710" type="qcurve" smooth="yes"/>
      <point x="686" y="785" type="line" smooth="yes"/>
      <point x="686" y="911.773"/>
      <point x="527.564" y="1000"/>
      <point x="394" y="1000" type="qcurve" smooth="yes"/>
      <point x="62" y="1000" type="line"/>
    </contour>
    <contour>
      <point x="310" y="204" type="line"/>
      <point x="310" y="410" type="line"/>
      <point x="373" y="410" type="line" smooth="yes"/>
      <point x="411.485" y="410"/>
      <point x="453" y="380.466"/>
      <point x="453" y="345" type="qcurve" smooth="yes"/>
      <point x="453" y="269" type="line" smooth="yes"/>
      <point x="453" y="233.534"/>
      <point x="411.485" y="204"/>
      <point x="373" y="204" type="qcurve" smooth="yes"/>
    </contour>
    <contour>
      <point x="310" y="608" type="line"/>
      <point x="310" y="796" type="line"/>
      <point x="371" y="796" type="line" smooth="yes"/>
      <point x="404.957" y="796"/>
      <point x="438" y="764.448"/>
      <point x="438" y="732" type="qcurve" smooth="yes"/>
      <point x="438" y="672" type="line" smooth="yes"/>
      <point x="438" y="639.552"/>
      <point x="404.957" y="608"/>
      <point x="371" y="608" type="qcurve" smooth="yes"/>
    </contour>
  </outline>
</glyph>
<glyph name="uni0438" format="2">
  <advance width="773"/>
  <unicode hex="0438"/>
  <anchor x="387" y="1150" name="top"/>
  <outline>
    <contour>
      <point x="62" y="0" type="line"/>
      <point x="280" y="0" type="line"/>
      <point x="473" y="488" type="line"/>
      <point x="473" y="0" type="line"/>
      <point x="711" y="0" type="line"/>
      <point x="711" y="1000" type="line"/>
      <point x="493" y="1000" type="line"/>
      <point x="300" y="508" type="line"/>
      <point x="300" y="1000" type="line"/>
      <point x="62" y="1000" type="line"/>
    </contour>
  </outline>
</glyph>
<glyph name="uni0444" format="2">
  <advance width="1094"/>
  <unicode hex="0444"/>
  <outline>
    <contour>
      <point x="221" y="-14" type="qcurve" smooth="yes"/>
      <point x="279" y="-14" type="line" smooth="yes"/>
      <point x="321.258" y="-14"/>
      <point x="401.871" y="40.1596"/>
      <point x="423" y="96" type="qcurve"/>
      <point x="423" y="-428" type="line"/>
      <point x="671" y="-428" type="line"/>
      <point x="671" y="-14" type="line"/>
      <point x="873" y="-14" type="line" smooth="yes"/>
      <point x="942.423" y="-14"/>
      <point x="1039" y="81.3376"/>
      <point x="1039" y="190" type="qcurve" smooth="yes"/>
      <point x="1039" y="800" type="line" smooth="yes"/>
      <point x="1039" y="916.208"/>
      <point x="943.932" y="1014"/>
      <point x="873" y="1014" type="qcurve" smooth="yes"/>
      <point x="815" y="1014" type="line" smooth="yes"/>
      <point x="772.742" y="1014"/>
      <point x="692.129" y="959.84"/>
      <point x="671" y="904" type="qcurve"/>
      <point x="671" y="1400" type="line"/>
      <point x="423" y="1400" type="line"/>
      <point x="423" y="1014" type="line"/>
      <point x="221" y="1014" type="line" smooth="yes"/>
      <point x="151.577" y="1014"/>
      <point x="55" y="918.662"/>
      <point x="55" y="810" type="qcurve" smooth="yes"/>
      <point x="55" y="200" type="line" smooth="yes"/>
      <point x="55" y="83.7916"/>
      <point x="150.068" y="-14"/>
    </contour>
    <contour>
      <point x="423" y="210" type="line"/>
      <point x="303" y="210" type="line"/>
      <point x="303" y="210"/>
      <point x="303" y="210"/>
      <point x="303" y="210" type="qcurve"/>
      <point x="303" y="790" type="line"/>
      <point x="303" y="790"/>
      <point x="303" y="790"/>
      <point x="303" y="790" type="qcurve"/>
      <point x="423" y="790" type="line"/>
    </contour>
    <contour>
      <point x="671" y="210" type="line"/>
      <point x="671" y="790" type="line"/>
      <point x="791" y="790" type="line"/>
      <point x="791" y="790"/>
      <point x="791" y="790"/>
      <point x="791" y="790" type="qcurve"/>
      <point x="791" y="210" type="line"/>
      <point x="791" y="210"/>
      <point x="791" y="210"/>
      <point x="791" y="210" type="qcurve"/>
    </contour>
  </outline>
  <guideline angle="90" color="1,0,0,1" x="955" y="0"/>
  <guideline angle="90" color="1,0,0,1" x="547" y="0"/>
</glyph>
<glyph name="uni0449" format="2">
  <advance width="1126"/>
  <unicode hex="0449"/>
  <outline>
    <contour>
      <point x="62" y="0" type="line"/>
      <point x="910" y="0" type="line"/>
      <point x="922" y="-260" type="line"/>
      <point x="1146" y="-260" type="line"/>
      <point x="1146" y="224" type="line"/>
      <point x="1046" y="224" type="line"/>
      <point x="1046" y="1000" type="line"/>
      <point x="798" y="1000" type="line"/>
      <point x="798" y="224" type="line"/>
      <point x="678" y="224" type="line"/>
      <point x="678" y="1000" type="line"/>
      <point x="430" y="1000" type="line"/>
      <point x="430" y="224" type="line"/>
      <point x="310" y="224" type="line"/>
      <point x="310" y="1000" type="line"/>
      <point x="62" y="1000" type="line"/>
    </contour>
  </outline>
  <guideline angle="90" color="1,0,0,1" name="align" x="1129" y="0"/>
</glyph>
<glyph name="uni044C" format="2">
  <advance width="740"/>
  <unicode hex="044C"/>
  <outline>
    <contour>
      <point x="62" y="0" type="line"/>
      <point x="518" y="0" type="line" smooth="yes"/>
      <point x="588.178" y="0"/>
      <point x="685" y="85.902"/>
      <point x="685" y="184" type="qcurve" smooth="yes"/>
      <point x="685" y="556" type="line" smooth="yes"/>
      <point x="685" y="654.098"/>
      <point x="588.178" y="740"/>
      <point x="518" y="740" type="qcurve" smooth="yes"/>
      <point x="454" y="740" type="line" smooth="yes"/>
      <point x="411.742" y="740"/>
      <point x="331.129" y="690.313"/>
      <point x="310" y="639" type="qcurve"/>
      <point x="310" y="1000" type="line"/>
      <point x="62" y="1000" type="line"/>
    </contour>
    <contour>
      <point x="310" y="224" type="line"/>
      <point x="310" y="516" type="line"/>
      <point x="437" y="516" type="line"/>
      <point x="437" y="516"/>
      <point x="437" y="516"/>
      <point x="437" y="516" type="qcurve"/>
      <point x="437" y="224" type="line"/>
      <point x="437" y="224"/>
      <point x="437" y="224"/>
      <point x="437" y="224" type="qcurve"/>
    </contour>
  </outline>
</glyph>
<glyph name="uni044D" format="2">
  <advance width="734"/>
  <unicode hex="044D"/>
  <outline>
    <contour>
      <point x="311" y="-14" type="qcurve" smooth="yes"/>
      <point x="423" y="-14" type="line" smooth="yes"/>
      <point x="563.356" y="-14"/>
      <point x="679" y="83.7916"/>
      <point x="679" y="200" type="qcurve" smooth="yes"/>
      <point x="679" y="810" type="line" smooth="yes"/>
      <point x="679" y="920.172"/>
      <point x="560.337" y="1014"/>
      <point x="423" y="1014" type="qcurve" smooth="yes"/>
      <point x="315" y="1014" type="line" smooth="yes"/>
      <point x="176.154" y="1014"/>
      <point x="59" y="920.172"/>
      <point x="59" y="810" type="qcurve" smooth="yes"/>
      <point x="59" y="700" type="line"/>
      <point x="303" y="654" type="line"/>
      <point x="303" y="790" type="line"/>
      <point x="303" y="790"/>
      <point x="303" y="790"/>
      <point x="303" y="790" type="qcurve"/>
      <point x="431" y="790" type="line"/>
      <point x="431" y="790"/>
      <point x="431" y="790"/>
      <point x="431" y="790" type="qcurve"/>
      <point x="431" y="613" type="line"/>
      <point x="251" y="613" type="line"/>
      <point x="251" y="415" type="line"/>
      <point x="431" y="415" type="line"/>
      <point x="431" y="210" type="line"/>
      <point x="431" y="210"/>
      <point x="431" y="210"/>
      <point x="431" y="210" type="qcurve"/>
      <point x="299" y="210" type="line"/>
      <point x="299" y="210"/>
      <point x="299" y="210"/>
      <point x="299" y="210" type="qcurve"/>
      <point x="299" y="352" type="line"/>
      <point x="55" y="302" type="line"/>
      <point x="55" y="200" type="line" smooth="yes"/>
      <point x="55" y="83.7916"/>
      <point x="170.644" y="-14"/>
    </contour>
  </outline>
  <guideline angle="90" color="1,0,0,1" x="219" y="0"/>
</glyph>
<glyph name="uni045C" format="2">
  <advance width="781"/>
  <unicode hex="045C"/>
  <anchor x="449" y="1150" name="top"/>
  <outline>
    <contour>
      <point x="65" y="0" type="line"/>
      <point x="313" y="0" type="line"/>
      <point x="313" y="486" type="line"/>
      <point x="507" y="0" type="line"/>
      <point x="781" y="0" type="line"/>
      <point x="546" y="553" type="line"/>
      <point x="745" y="1000" type="line"/>
      <point x="499" y="1000" type="line"/>
      <point x="313" y="564" type="line"/>
      <point x="313" y="1000" type="line"/>
      <point x="65" y="1000" type="line"/>
    </contour>
    <contour>
      <point x="308" y="1085" type="line"/>
      <point x="512" y="1085" type="line"/>
      <point x="747" y="1400" type="line"/>
      <point x="519" y="1400" type="line"/>
    </contour>
  </outline>
  <guideline angle="90" x="327" y="0"/>
  <guideline angle="90" x="433" y="0"/>
</glyph>
<glyph name="uni045D" format="2">
  <advance width="773"/>
  <unicode hex="045D"/>
  <anchor x="387" y="1150" name="top"/>
  <outline>
    <contour>
      <point x="62" y="0" type="line"/>
      <point x="280" y="0" type="line"/>
      <point x="473" y="488" type="line"/>
      <point x="473" y="0" type="line"/>
      <point x="711" y="0" type="line"/>
      <point x="711" y="1000" type="line"/>
      <point x="493" y="1000" type="line"/>
      <point x="300" y="508" type="line"/>
      <point x="300" y="1000" type="line"/>
      <point x="62" y="1000" type="line"/>
    </contour>
    <contour>
      <point x="324" y="1085" type="line"/>
      <point x="528" y="1085" type="line"/>
      <point x="317" y="1400" type="line"/>
      <point x="89" y="1400" type="line"/>
    </contour>
  </outline>
</glyph>
<glyph name="uni045F" format="2">
  <advance width="746"/>
  <unicode hex="045F"/>
  <outline>
    <contour>
      <point x="65" y="0" type="line"/>
      <point x="262" y="0" type="line"/>
      <point x="274" y="-240" type="line"/>
      <point x="484" y="-240" type="line"/>
      <point x="484" y="0" type="line"/>
      <point x="681" y="0" type="line"/>
      <point x="681" y="1000" type="line"/>
      <point x="433" y="1000" type="line"/>
      <point x="433" y="224" type="line"/>
      <point x="313" y="224" type="line"/>
      <point x="313" y="1000" type="line"/>
      <point x="65" y="1000" type="line"/>
    </contour>
  </outline>
  <guideline angle="90" color="1,0,0,1" x="373" y="0"/>
</glyph>
<glyph name="uni0491" format="2">
  <advance width="612"/>
  <unicode hex="0491"/>
  <outline>
    <contour>
      <point x="62" y="0" type="line"/>
      <point x="310" y="0" type="line"/>
      <point x="310" y="776" type="line"/>
      <point x="594" y="776" type="line"/>
      <point x="594" y="1166" type="line"/>
      <point x="384" y="1166" type="line"/>
      <point x="371" y="1000" type="line"/>
      <point x="62" y="1000" type="line"/>
    </contour>
  </outline>
</glyph>
<glyph name="uni0493" format="2">
  <advance width="711"/>
  <unicode hex="0493"/>
  <outline>
    <contour>
      <point x="161" y="0" type="line"/>
      <point x="409" y="0" type="line"/>
      <point x="409" y="342" type="line"/>
      <point x="578" y="342" type="line"/>
      <point x="578" y="522" type="line"/>
      <point x="409" y="522" type="line"/>
      <point x="409" y="776" type="line"/>
      <point x="693" y="776" type="line"/>
      <point x="693" y="1000" type="line"/>
      <point x="161" y="1000" type="line"/>
      <point x="161" y="522" type="line"/>
      <point x="62" y="522" type="line"/>
      <point x="62" y="342" type="line"/>
      <point x="161" y="342" type="line"/>
    </contour>
  </outline>
</glyph>
<glyph name="uni049C" format="2">
  <advance width="891"/>
  <unicode hex="049C"/>
  <outline>
    <contour>
      <point x="72" y="0" type="line"/>
      <point x="336" y="0" type="line"/>
      <point x="336" y="608" type="line"/>
      <point x="376" y="608" type="line"/>
      <point x="376" y="280" type="line"/>
      <point x="437" y="280" type="line"/>
      <point x="437" y="1120" type="line"/>
      <point x="376" y="1120" type="line"/>
      <point x="376" y="828" type="line"/>
      <point x="336" y="828" type="line"/>
      <point x="336" y="1400" type="line"/>
      <point x="72" y="1400" type="line"/>
    </contour>
    <contour>
      <point x="405" y="711" type="line"/>
      <point x="625" y="0" type="line"/>
      <point x="901" y="0" type="line"/>
      <point x="667" y="735" type="line"/>
      <point x="847" y="1400" type="line"/>
      <point x="592" y="1400" type="line"/>
    </contour>
  </outline>
</glyph>
<glyph name="uni04A1" format="2">
  <advance width="885"/>
  <unicode hex="04A1"/>
  <outline>
    <contour>
      <point x="169" y="0" type="line"/>
      <point x="417" y="0" type="line"/>
      <point x="417" y="486" type="line"/>
      <point x="611" y="0" type="line"/>
      <point x="885" y="0" type="line"/>
      <point x="650" y="553" type="line"/>
      <point x="849" y="1000" type="line"/>
      <point x="603" y="1000" type="line"/>
      <point x="417" y="564" type="line"/>
      <point x="417" y="1000" type="line"/>
      <point x="18" y="1000" type="line"/>
      <point x="18" y="776" type="line"/>
      <point x="169" y="776" type="line"/>
    </contour>
  </outline>
  <guideline angle="90" color="1,0,0,1" x="417" y="0"/>
</glyph>
<glyph name="uni04A4" format="2">
  <advance width="1063"/>
  <unicode hex="04A4"/>
  <outline>
    <contour>
      <point x="72" y="0" type="line"/>
      <point x="336" y="0" type="line"/>
      <point x="336" y="610" type="line"/>
      <point x="538" y="610" type="line"/>
      <point x="538" y="0" type="line"/>
      <point x="802" y="0" type="line"/>
      <point x="802" y="1156" type="line"/>
      <point x="1058" y="1156" type="line"/>
      <point x="1058" y="1400" type="line"/>
      <point x="538" y="1400" type="line"/>
      <point x="538" y="830" type="line"/>
      <point x="336" y="830" type="line"/>
      <point x="336" y="1400" type="line"/>
      <point x="72" y="1400" type="line"/>
    </contour>
  </outline>
  <guideline angle="90" x="423" y="0"/>
  <guideline angle="90" color="1,0,0,1" x="437" y="0"/>
</glyph>
<glyph name="uni04A5" format="2">
  <advance width="898"/>
  <unicode hex="04A5"/>
  <outline>
    <contour>
      <point x="62" y="0" type="line"/>
      <point x="310" y="0" type="line"/>
      <point x="310" y="408" type="line"/>
      <point x="438" y="408" type="line"/>
      <point x="438" y="0" type="line"/>
      <point x="686" y="0" type="line"/>
      <point x="686" y="776" type="line"/>
      <point x="880" y="776" type="line"/>
      <point x="880" y="1000" type="line"/>
      <point x="438" y="1000" type="line"/>
      <point x="438" y="632" type="line"/>
      <point x="310" y="632" type="line"/>
      <point x="310" y="1000" type="line"/>
      <point x="62" y="1000" type="line"/>
    </contour>
  </outline>
</glyph>
<glyph name="uni04AA" format="2">
  <advance width="778"/>
  <unicode hex="04AA"/>
  <anchor x="406" y="1568" name="top"/>
  <anchor x="406" y="-168" name="bottom"/>
  <outline>
    <contour>
      <point x="62" y="1144" type="qcurve" smooth="yes"/>
      <point x="62" y="268" type="line" smooth="yes"/>
      <point x="62" y="112.552"/>
      <point x="212.896" y="-18"/>
      <point x="394" y="-18" type="qcurve" smooth="yes"/>
      <point x="416" y="-18" type="line" smooth="yes"/>
      <point x="597.104" y="-18"/>
      <point x="750" y="112.552"/>
      <point x="750" y="268" type="qcurve" smooth="yes"/>
      <point x="750" y="474" type="line"/>
      <point x="486" y="526" type="line"/>
      <point x="486" y="226" type="line"/>
      <point x="486" y="226"/>
      <point x="486" y="226"/>
      <point x="486" y="226" type="qcurve"/>
      <point x="326" y="226" type="line"/>
      <point x="326" y="226"/>
      <point x="326" y="226"/>
      <point x="326" y="226" type="qcurve"/>
      <point x="326" y="1174" type="line"/>
      <point x="326" y="1174"/>
      <point x="326" y="1174"/>
      <point x="326" y="1174" type="qcurve"/>
      <point x="478" y="1174" type="line"/>
      <point x="478" y="1174"/>
      <point x="478" y="1174"/>
      <point x="478" y="1174" type="qcurve"/>
      <point x="478" y="900" type="line"/>
      <point x="742" y="948" type="line"/>
      <point x="742" y="1144" type="line" smooth="yes"/>
      <point x="742" y="1291"/>
      <point x="598.5" y="1418"/>
      <point x="408" y="1418" type="qcurve" smooth="yes"/>
      <point x="394" y="1418" type="line" smooth="yes"/>
      <point x="217" y="1418"/>
      <point x="62" y="1291"/>
    </contour>
    <contour>
      <point x="387.741" y="-428" type="qcurve" smooth="yes"/>
      <point x="478.267" y="-428"/>
      <point x="580" y="-326.597"/>
      <point x="580" y="-236.183" type="qcurve" smooth="yes"/>
      <point x="580" y="-169.64"/>
      <point x="523.822" y="-49.049"/>
      <point x="471" y="0" type="qcurve"/>
      <point x="318" y="0" type="line"/>
      <point x="349.693" y="-16.6012"/>
      <point x="395" y="-100.82"/>
      <point x="395" y="-143.318" type="qcurve" smooth="yes"/>
      <point x="395" y="-187.599"/>
      <point x="342.594" y="-240"/>
      <point x="298.295" y="-240" type="qcurve" smooth="yes"/>
      <point x="282.226" y="-240"/>
      <point x="248.601" y="-232.791"/>
      <point x="232" y="-226" type="qcurve"/>
      <point x="264" y="-400" type="line"/>
      <point x="294.184" y="-414.337"/>
      <point x="354.512" y="-428"/>
    </contour>
  </outline>
</glyph>
<glyph name="uni04B6" format="2">
  <advance width="834"/>
  <unicode hex="04B6"/>
  <outline>
    <contour>
      <point x="480" y="0" type="line" name="ATT"/>
      <point x="602" y="0" type="line"/>
      <point x="614" y="-260" type="line"/>
      <point x="834" y="-260" type="line"/>
      <point x="834" y="220" type="line"/>
      <point x="744" y="220" type="line"/>
      <point x="744" y="1400" type="line"/>
      <point x="480" y="1400" type="line"/>
      <point x="480" y="721" type="line"/>
      <point x="316" y="721" type="line"/>
      <point x="316" y="721"/>
      <point x="316" y="721"/>
      <point x="316" y="721" type="qcurve"/>
      <point x="316" y="1400" type="line"/>
      <point x="52" y="1400" type="line"/>
      <point x="52" y="769" type="line" smooth="yes"/>
      <point x="52" y="680.5"/>
      <point x="90.4062" y="568.375"/>
      <point x="166.344" y="504.625"/>
      <point x="279.375" y="481"/>
      <point x="354" y="481" type="qcurve" smooth="yes"/>
      <point x="480" y="481" type="line"/>
    </contour>
  </outline>
</glyph>
<glyph name="uni04C1" format="2">
  <advance width="1150"/>
  <unicode hex="04C1"/>
  <anchor x="576" y="1900" name="top"/>
  <anchor x="576" y="-150" name="bottom"/>
  <outline>
    <contour>
      <point x="-10" y="0" type="line"/>
      <point x="286" y="0" type="line"/>
      <point x="443" y="624" type="line"/>
      <point x="443" y="0" type="line"/>
      <point x="707" y="0" type="line"/>
      <point x="707" y="624" type="line"/>
      <point x="864" y="0" type="line"/>
      <point x="1160" y="0" type="line"/>
      <point x="944" y="736" type="line"/>
      <point x="1106" y="1400" type="line"/>
      <point x="841" y="1400" type="line"/>
      <point x="707" y="808" type="line"/>
      <point x="707" y="1400" type="line"/>
      <point x="443" y="1400" type="line"/>
      <point x="443" y="808" type="line"/>
      <point x="309" y="1400" type="line"/>
      <point x="44" y="1400" type="line"/>
      <point x="206" y="736" type="line"/>
    </contour>
    <contour>
      <point x="576" y="1496" type="qcurve" smooth="yes"/>
      <point x="640.5" y="1496"/>
      <point x="727.875" y="1518.44"/>
      <point x="781.125" y="1584.06"/>
      <point x="804" y="1703.25"/>
      <point x="804" y="1800" type="qcurve"/>
      <point x="646" y="1800" type="line"/>
      <point x="646" y="1751.25"/>
      <point x="636.5" y="1692.5"/>
      <point x="618.5" y="1661"/>
      <point x="592.5" y="1651"/>
      <point x="576" y="1651" type="qcurve" smooth="yes"/>
      <point x="558.375" y="1651"/>
      <point x="531.469" y="1661"/>
      <point x="513.281" y="1692.5"/>
      <point x="504" y="1751.25"/>
      <point x="504" y="1800" type="qcurve"/>
      <point x="346" y="1800" type="line"/>
      <point x="346" y="1703.25"/>
      <point x="369.219" y="1584.06"/>
      <point x="423.031" y="1518.44"/>
      <point x="511.125" y="1496"/>
    </contour>
  </outline>
</glyph>
<glyph name="uni04D1" format="2">
  <advance width="713"/>
  <unicode hex="04D1"/>
  <anchor x="360" y="1500" name="top"/>
  <anchor x="360" y="-150" name="bottom"/>
  <anchor x="556" y="0" name="ogonek"/>
  <outline>
    <contour>
      <point x="213" y="-14" type="qcurve" smooth="yes"/>
      <point x="237" y="-14" type="line" smooth="yes"/>
      <point x="295.859" y="-14"/>
      <point x="381.871" y="60.54"/>
      <point x="403" y="136" type="qcurve"/>
      <point x="403" y="0" type="line"/>
      <point x="651" y="0" type="line"/>
      <point x="651" y="818" type="line" smooth="yes"/>
      <point x="651" y="941.754"/>
      <point x="515.172" y="1014"/>
      <point x="405" y="1014" type="qcurve" smooth="yes"/>
      <point x="307" y="1014" type="line" smooth="yes"/>
      <point x="196.828" y="1014"/>
      <point x="61" y="941.754"/>
      <point x="61" y="818" type="qcurve" smooth="yes"/>
      <point x="61" y="764" type="line"/>
      <point x="309" y="718" type="line"/>
      <point x="309" y="810" type="line"/>
      <point x="309" y="810"/>
      <point x="309" y="810"/>
      <point x="309" y="810" type="qcurve"/>
      <point x="403" y="810" type="line"/>
      <point x="403" y="810"/>
      <point x="403" y="810"/>
      <point x="403" y="810" type="qcurve"/>
      <point x="403" y="598" type="line"/>
      <point x="213" y="598" type="line" smooth="yes"/>
      <point x="157.5" y="598"/>
      <point x="47" y="510.5"/>
      <point x="47" y="404" type="qcurve" smooth="yes"/>
      <point x="47" y="190" type="line" smooth="yes"/>
      <point x="47" y="78.3192"/>
      <point x="157.16" y="-14"/>
    </contour>
    <contour>
      <point x="295" y="190" type="qcurve"/>
      <point x="295" y="394" type="line"/>
      <point x="295" y="394"/>
      <point x="295" y="394"/>
      <point x="295" y="394" type="qcurve"/>
      <point x="403" y="394" type="line"/>
      <point x="403" y="190" type="line"/>
      <point x="295" y="190" type="line"/>
      <point x="295" y="190"/>
      <point x="295" y="190"/>
    </contour>
    <contour>
      <point x="360" y="1096" type="qcurve" smooth="yes"/>
      <point x="424.5" y="1096"/>
      <point x="511.875" y="1118.44"/>
      <point x="565.125" y="1184.06"/>
      <point x="588" y="1303.25"/>
      <point x="588" y="1400" type="qcurve"/>
      <point x="430" y="1400" type="line"/>
      <point x="430" y="1351.25"/>
      <point x="420.5" y="1292.5"/>
      <point x="402.5" y="1261"/>
      <point x="376.5" y="1251"/>
      <point x="360" y="1251" type="qcurve" smooth="yes"/>
      <point x="342.375" y="1251"/>
      <point x="315.469" y="1261"/>
      <point x="297.281" y="1292.5"/>
      <point x="288" y="1351.25"/>
      <point x="288" y="1400" type="qcurve"/>
      <point x="130" y="1400" type="line"/>
      <point x="130" y="1303.25"/>
      <point x="153.219" y="1184.06"/>
      <point x="207.031" y="1118.44"/>
      <point x="295.125" y="1096"/>
    </contour>
  </outline>
  <guideline angle="90" color="1,0,0,1" x="403" y="0"/>
</glyph>
<glyph name="uni04D9" format="2">
  <advance width="732"/>
  <unicode hex="04D9"/>
  <anchor x="370" y="-150" name="top"/>
  <anchor x="377" y="1150" name="bottom"/>
  <anchor x="233" y="1000" name="ogonek"/>
  <outline>
    <contour>
      <point x="677" y="754" type="line" smooth="yes"/>
      <point x="677" y="895.865"/>
      <point x="529.92" y="1014"/>
      <point x="379" y="1014" type="qcurve" smooth="yes"/>
      <point x="373" y="1014" type="line" smooth="yes"/>
      <point x="200.951" y="1014"/>
      <point x="55" y="894.356"/>
      <point x="55" y="754" type="qcurve" smooth="yes"/>
      <point x="55" y="740" type="line"/>
      <point x="303" y="696" type="line"/>
      <point x="303" y="810" type="line"/>
      <point x="303" y="810"/>
      <point x="303" y="810"/>
      <point x="303" y="810" type="qcurve"/>
      <point x="429" y="810" type="line"/>
      <point x="429" y="810"/>
      <point x="429" y="810"/>
      <point x="429" y="810" type="qcurve"/>
      <point x="429" y="598" type="line"/>
      <point x="55" y="598" type="line"/>
      <point x="55" y="210" type="line" smooth="yes"/>
      <point x="55" y="101.338"/>
      <point x="189.663" y="-14"/>
      <point x="327" y="-14" type="qcurve" smooth="yes"/>
      <point x="407" y="-14" type="line" smooth="yes"/>
      <point x="544.337" y="-14"/>
      <point x="677" y="98.8468"/>
      <point x="677" y="206" type="qcurve" smooth="yes"/>
    </contour>
    <contour>
      <point x="429" y="394" type="line"/>
      <point x="429" y="190" type="line"/>
      <point x="429" y="190"/>
      <point x="429" y="190"/>
      <point x="429" y="190" type="qcurve"/>
      <point x="303" y="190" type="line"/>
      <point x="303" y="190"/>
      <point x="303" y="190"/>
      <point x="303" y="190" type="qcurve"/>
      <point x="303" y="394" type="line"/>
    </contour>
  </outline>
  <guideline angle="0" color="1,0,0,1" x="0" y="2014"/>
</glyph>
<glyph name="uni04DF" format="2">
  <advance width="735"/>
  <unicode hex="04DF"/>
  <anchor x="360" y="1440" name="top"/>
  <anchor x="437" y="0" name="ogonek"/>
  <outline>
    <contour>
      <point x="322" y="-10" type="qcurve" smooth="yes"/>
      <point x="375" y="-10" type="line" smooth="yes"/>
      <point x="444" y="-10"/>
      <point x="556.562" y="13.5625"/>
      <point x="636.438" y="67.9375"/>
      <point x="680" y="156.75"/>
      <point x="680" y="222" type="qcurve" smooth="yes"/>
      <point x="680" y="297" type="line" smooth="yes"/>
      <point x="680" y="387.552"/>
      <point x="608.423" y="495.626"/>
      <point x="539" y="516" type="qcurve"/>
      <point x="600.877" y="534.11"/>
      <point x="665" y="629.258"/>
      <point x="665" y="710" type="qcurve" smooth="yes"/>
      <point x="665" y="785" type="line" smooth="yes"/>
      <point x="665" y="911"/>
      <point x="505.75" y="1010"/>
      <point x="373" y="1010" type="qcurve" smooth="yes"/>
      <point x="322" y="1010" type="line" smooth="yes"/>
      <point x="253.75" y="1010"/>
      <point x="148.875" y="983.875"/>
      <point x="77.625" y="932.125"/>
      <point x="41" y="855"/>
      <point x="41" y="804" type="qcurve" smooth="yes"/>
      <point x="41" y="708" type="line"/>
      <point x="289" y="668" type="line"/>
      <point x="289" y="796" type="line"/>
      <point x="289" y="796"/>
      <point x="289" y="796"/>
      <point x="289" y="796" type="qcurve"/>
      <point x="346" y="796" type="line" smooth="yes"/>
      <point x="379.957" y="796"/>
      <point x="417" y="764.448"/>
      <point x="417" y="732" type="qcurve" smooth="yes"/>
      <point x="417" y="672" type="line" smooth="yes"/>
      <point x="417" y="639.552"/>
      <point x="379.957" y="608"/>
      <point x="346" y="608" type="qcurve" smooth="yes"/>
      <point x="216" y="608" type="line"/>
      <point x="216" y="410" type="line"/>
      <point x="348" y="410" type="line" smooth="yes"/>
      <point x="386.485" y="410"/>
      <point x="432" y="380.466"/>
      <point x="432" y="345" type="qcurve" smooth="yes"/>
      <point x="432" y="269" type="line" smooth="yes"/>
      <point x="432" y="251.375"/>
      <point x="420.094" y="226.656"/>
      <point x="398.156" y="211.094"/>
      <point x="367.125" y="204"/>
      <point x="348" y="204" type="qcurve" smooth="yes"/>
      <point x="289" y="204" type="line"/>
      <point x="289" y="204"/>
      <point x="289" y="204"/>
      <point x="289" y="204" type="qcurve"/>
      <point x="289" y="340" type="line"/>
      <point x="41" y="300" type="line"/>
      <point x="41" y="198" type="line" smooth="yes"/>
      <point x="41" y="133.125"/>
      <point x="82.9688" y="51.9062"/>
      <point x="157.781" y="6.34375"/>
      <point x="260.875" y="-10"/>
    </contour>
    <contour>
      <point x="185" y="1110" type="qcurve" smooth="yes"/>
      <point x="225" y="1110" type="line" smooth="yes"/>
      <point x="291.405" y="1110"/>
      <point x="315" y="1133.6"/>
      <point x="315" y="1200" type="qcurve" smooth="yes"/>
      <point x="315" y="1262" type="line" smooth="yes"/>
      <point x="315" y="1326.9"/>
      <point x="291.405" y="1350"/>
      <point x="225" y="1350" type="qcurve" smooth="yes"/>
      <point x="185" y="1350" type="line" smooth="yes"/>
      <point x="118.595" y="1350"/>
      <point x="95" y="1326.9"/>
      <point x="95" y="1262" type="qcurve" smooth="yes"/>
      <point x="95" y="1200" type="line" smooth="yes"/>
      <point x="95" y="1133.6"/>
      <point x="118.595" y="1110"/>
    </contour>
    <contour>
      <point x="495" y="1110" type="qcurve" smooth="yes"/>
      <point x="535" y="1110" type="line" smooth="yes"/>
      <point x="601.405" y="1110"/>
      <point x="625" y="1133.6"/>
      <point x="625" y="1200" type="qcurve" smooth="yes"/>
      <point x="625" y="1262" type="line" smooth="yes"/>
      <point x="625" y="1326.9"/>
      <point x="601.405" y="1350"/>
      <point x="535" y="1350" type="qcurve" smooth="yes"/>
      <point x="495" y="1350" type="line" smooth="yes"/>
      <point x="428.595" y="1350"/>
      <point x="405" y="1326.9"/>
      <point x="405" y="1262" type="qcurve" smooth="yes"/>
      <point x="405" y="1200" type="line" smooth="yes"/>
      <point x="405" y="1133.6"/>
      <point x="428.595" y="1110"/>
    </contour>
  </outline>
</glyph>
<glyph name="uni04E8" format="2">
  <advance width="850"/>
  <unicode hex="04E8"/>
  <outline>
    <contour>
      <point x="404" y="-18" type="qcurve" smooth="yes"/>
      <point x="444" y="-18" type="line" smooth="yes"/>
      <point x="605.484" y="-18"/>
      <point x="788" y="89.9144"/>
      <point x="788" y="268" type="qcurve" smooth="yes"/>
      <point x="788" y="1144" type="line" smooth="yes"/>
      <point x="788" y="1315"/>
      <point x="595.5" y="1418"/>
      <point x="444" y="1418" type="qcurve" smooth="yes"/>
      <point x="404" y="1418" type="line" smooth="yes"/>
      <point x="252.5" y="1418"/>
      <point x="62" y="1315"/>
      <point x="62" y="1144" type="qcurve" smooth="yes"/>
      <point x="62" y="268" type="line" smooth="yes"/>
      <point x="62" y="91.4236"/>
      <point x="242.516" y="-18"/>
    </contour>
    <contour>
      <point x="326" y="812" type="line"/>
      <point x="326" y="1178" type="line"/>
      <point x="326" y="1178"/>
      <point x="326" y="1178"/>
      <point x="326" y="1178" type="qcurve"/>
      <point x="524" y="1178" type="line"/>
      <point x="524" y="1178"/>
      <point x="524" y="1178"/>
      <point x="524" y="1178" type="qcurve"/>
      <point x="524" y="812" type="line"/>
    </contour>
    <contour>
      <point x="326" y="222" type="line"/>
      <point x="326" y="222"/>
      <point x="326" y="222"/>
      <point x="326" y="222" type="qcurve"/>
      <point x="326" y="588" type="line"/>
      <point x="524" y="588" type="line"/>
      <point x="524" y="222" type="line"/>
      <point x="524" y="222"/>
      <point x="524" y="222"/>
      <point x="524" y="222" type="qcurve"/>
    </contour>
  </outline>
</glyph>
<glyph name="uni04F0" format="2">
  <advance width="774"/>
  <unicode hex="04F0"/>
  <anchor x="402" y="1840" name="top"/>
  <outline>
    <contour>
      <point x="158" y="0" type="line"/>
      <point x="287" y="0" type="line" smooth="yes"/>
      <point x="357.932" y="0"/>
      <point x="460.644" y="97.8222"/>
      <point x="478" y="168" type="qcurve" smooth="yes"/>
      <point x="784" y="1400" type="line"/>
      <point x="543" y="1400" type="line"/>
      <point x="400" y="772" type="line"/>
      <point x="238" y="1400" type="line"/>
      <point x="-10" y="1400" type="line"/>
      <point x="286" y="307" type="line"/>
      <point x="266" y="220" type="line"/>
      <point x="266" y="220"/>
      <point x="266" y="220"/>
      <point x="266" y="220" type="qcurve"/>
      <point x="113" y="220" type="line"/>
    </contour>
    <contour>
      <point x="227" y="1510" type="qcurve" smooth="yes"/>
      <point x="267" y="1510" type="line" smooth="yes"/>
      <point x="333.405" y="1510"/>
      <point x="357" y="1533.6"/>
      <point x="357" y="1600" type="qcurve" smooth="yes"/>
      <point x="357" y="1662" type="line" smooth="yes"/>
      <point x="357" y="1726.9"/>
      <point x="333.405" y="1750"/>
      <point x="267" y="1750" type="qcurve" smooth="yes"/>
      <point x="227" y="1750" type="line" smooth="yes"/>
      <point x="160.595" y="1750"/>
      <point x="137" y="1726.9"/>
      <point x="137" y="1662" type="qcurve" smooth="yes"/>
      <point x="137" y="1600" type="line" smooth="yes"/>
      <point x="137" y="1533.6"/>
      <point x="160.595" y="1510"/>
    </contour>
    <contour>
      <point x="537" y="1510" type="qcurve" smooth="yes"/>
      <point x="577" y="1510" type="line" smooth="yes"/>
      <point x="643.405" y="1510"/>
      <point x="667" y="1533.6"/>
      <point x="667" y="1600" type="qcurve" smooth="yes"/>
      <point x="667" y="1662" type="line" smooth="yes"/>
      <point x="667" y="1726.9"/>
      <point x="643.405" y="1750"/>
      <point x="577" y="1750" type="qcurve" smooth="yes"/>
      <point x="537" y="1750" type="line" smooth="yes"/>
      <point x="470.595" y="1750"/>
      <point x="447" y="1726.9"/>
      <point x="447" y="1662" type="qcurve" smooth="yes"/>
      <point x="447" y="1600" type="line" smooth="yes"/>
      <point x="447" y="1533.6"/>
      <point x="470.595" y="1510"/>
    </contour>
  </outline>
  <guideline angle="90" x="400" y="0"/>
</glyph>
<glyph name="uni04F2" format="2">
  <advance width="824"/>
  <unicode hex="04F2"/>
  <anchor x="402" y="1550" name="top"/>
  <anchor x="496.55" y="1475" name="topright"/>
  <outline>
    <contour>
      <point x="158" y="0" type="line"/>
      <point x="287" y="0" type="line" smooth="yes"/>
      <point x="357.932" y="0"/>
      <point x="460.644" y="97.8222"/>
      <point x="478" y="168" type="qcurve" smooth="yes"/>
      <point x="784" y="1400" type="line"/>
      <point x="543" y="1400" type="line"/>
      <point x="400" y="772" type="line"/>
      <point x="238" y="1400" type="line"/>
      <point x="-10" y="1400" type="line"/>
      <point x="286" y="307" type="line"/>
      <point x="266" y="220" type="line"/>
      <point x="266" y="220"/>
      <point x="266" y="220"/>
      <point x="266" y="220" type="qcurve"/>
      <point x="113" y="220" type="line"/>
    </contour>
    <contour>
      <point x="118.55" y="1475" type="line"/>
      <point x="304.7" y="1475" type="line"/>
      <point x="507" y="1800" type="line"/>
      <point x="299.6" y="1800" type="line"/>
    </contour>
    <contour>
      <point x="445.55" y="1475" type="line"/>
      <point x="631.7" y="1475" type="line"/>
      <point x="834" y="1800" type="line"/>
      <point x="626.6" y="1800" type="line"/>
    </contour>
  </outline>
  <guideline angle="90" x="400" y="0"/>
</glyph>
<glyph name="uni04F8" format="2">
  <advance width="1220"/>
  <unicode hex="04F8"/>
  <anchor x="610" y="1840" name="top"/>
  <outline>
    <contour>
      <point x="72" y="0" type="line"/>
      <point x="420" y="0" type="line" smooth="yes"/>
      <point x="495.75" y="0"/>
      <point x="622.188" y="21.25"/>
      <point x="713.312" y="79.75"/>
      <point x="764" y="183.5"/>
      <point x="764" y="266" type="qcurve" smooth="yes"/>
      <point x="764" y="634" type="line" smooth="yes"/>
      <point x="764" y="719.5"/>
      <point x="716.688" y="827.75"/>
      <point x="627.812" y="889.25"/>
      <point x="500.25" y="912"/>
      <point x="420" y="912" type="qcurve" smooth="yes"/>
      <point x="336" y="912" type="line"/>
      <point x="336" y="1400" type="line"/>
      <point x="72" y="1400" type="line"/>
    </contour>
    <contour>
      <point x="336" y="232" type="line"/>
      <point x="336" y="680" type="line"/>
      <point x="432" y="680" type="line" smooth="yes"/>
      <point x="465.202" y="680"/>
      <point x="500" y="647.166"/>
      <point x="500" y="620" type="qcurve" smooth="yes"/>
      <point x="500" y="292" type="line" smooth="yes"/>
      <point x="500" y="264.834"/>
      <point x="465.202" y="232"/>
      <point x="432" y="232" type="qcurve" smooth="yes"/>
    </contour>
    <contour>
      <point x="884" y="0" type="line"/>
      <point x="1148" y="0" type="line"/>
      <point x="1148" y="1400" type="line"/>
      <point x="884" y="1400" type="line"/>
    </contour>
    <contour>
      <point x="435" y="1510" type="qcurve" smooth="yes"/>
      <point x="475" y="1510" type="line" smooth="yes"/>
      <point x="541.405" y="1510"/>
      <point x="565" y="1533.6"/>
      <point x="565" y="1600" type="qcurve" smooth="yes"/>
      <point x="565" y="1662" type="line" smooth="yes"/>
      <point x="565" y="1726.9"/>
      <point x="541.405" y="1750"/>
      <point x="475" y="1750" type="qcurve" smooth="yes"/>
      <point x="435" y="1750" type="line" smooth="yes"/>
      <point x="368.595" y="1750"/>
      <point x="345" y="1726.9"/>
      <point x="345" y="1662" type="qcurve" smooth="yes"/>
      <point x="345" y="1600" type="line" smooth="yes"/>
      <point x="345" y="1533.6"/>
      <point x="368.595" y="1510"/>
    </contour>
    <contour>
      <point x="745" y="1510" type="qcurve" smooth="yes"/>
      <point x="785" y="1510" type="line" smooth="yes"/>
      <point x="851.405" y="1510"/>
      <point x="875" y="1533.6"/>
      <point x="875" y="1600" type="qcurve" smooth="yes"/>
      <point x="875" y="1662" type="line" smooth="yes"/>
      <point x="875" y="1726.9"/>
      <point x="851.405" y="1750"/>
      <point x="785" y="1750" type="qcurve" smooth="yes"/>
      <point x="745" y="1750" type="line" smooth="yes"/>
      <point x="678.595" y="1750"/>
      <point x="655" y="1726.9"/>
      <point x="655" y="1662" type="qcurve" smooth="yes"/>
      <point x="655" y="1600" type="line" smooth="yes"/>
      <point x="655" y="1533.6"/>
      <point x="678.595" y="1510"/>
    </contour>
  </outline>
  <guideline angle="90" color="1,0,0,1" x="763.6" y="0"/>
</glyph>
<glyph name="uni051C" format="2">
  <advance width="1159"/>
  <unicode hex="051C"/>
  <anchor x="579.5" y="-150" name="bottom"/>
  <anchor x="579.5" y="1550" name="top"/>
  <outline>
    <contour>
      <point x="241" y="0" type="line"/>
      <point x="455" y="0" type="line"/>
      <point x="575" y="772" type="line"/>
      <point x="695" y="0" type="line"/>
      <point x="917" y="0" type="line"/>
      <point x="1169" y="1400" type="line"/>
      <point x="933" y="1400" type="line"/>
      <point x="814" y="567" type="line"/>
      <point x="695" y="1400" type="line"/>
      <point x="484" y="1400" type="line"/>
      <point x="365" y="573" type="line"/>
      <point x="246" y="1400" type="line"/>
      <point x="-10" y="1400" type="line"/>
    </contour>
  </outline>
</glyph>
<glyph name="uni1EB9" format="2">
  <advance width="732"/>
  <unicode hex="1EB9"/>
  <anchor x="362" y="1150" name="top"/>
  <anchor x="355" y="-150" name="bottom"/>
  <anchor x="499" y="0" name="ogonek"/>
  <outline>
    <contour>
      <point x="55" y="246" type="line" smooth="yes"/>
      <point x="55" y="104.135"/>
      <point x="202.08" y="-14"/>
      <point x="353" y="-14" type="qcurve" smooth="yes"/>
      <point x="359" y="-14" type="line" smooth="yes"/>
      <point x="531.049" y="-14"/>
      <point x="677" y="105.644"/>
      <point x="677" y="246" type="qcurve" smooth="yes"/>
      <point x="677" y="260" type="line"/>
      <point x="429" y="304" type="line"/>
      <point x="429" y="190" type="line"/>
      <point x="429" y="190"/>
      <point x="429" y="190"/>
      <point x="429" y="190" type="qcurve"/>
      <point x="303" y="190" type="line"/>
      <point x="303" y="190"/>
      <point x="303" y="190"/>
      <point x="303" y="190" type="qcurve"/>
      <point x="303" y="402" type="line"/>
      <point x="677" y="402" type="line"/>
      <point x="677" y="790" type="line" smooth="yes"/>
      <point x="677" y="898.662"/>
      <point x="542.337" y="1014"/>
      <point x="405" y="1014" type="qcurve" smooth="yes"/>
      <point x="325" y="1014" type="line" smooth="yes"/>
      <point x="187.663" y="1014"/>
      <point x="55" y="901.153"/>
      <point x="55" y="794" type="qcurve" smooth="yes"/>
    </contour>
    <contour>
      <point x="303" y="606" type="line"/>
      <point x="303" y="810" type="line"/>
      <point x="303" y="810"/>
      <point x="303" y="810"/>
      <point x="303" y="810" type="qcurve"/>
      <point x="429" y="810" type="line"/>
      <point x="429" y="810"/>
      <point x="429" y="810"/>
      <point x="429" y="810" type="qcurve"/>
      <point x="429" y="606" type="line"/>
    </contour>
    <contour>
      <point x="325" y="-339" type="qcurve" smooth="yes"/>
      <point x="385" y="-339" type="line" smooth="yes"/>
      <point x="451.405" y="-339"/>
      <point x="475" y="-315.896"/>
      <point x="475" y="-251" type="qcurve" smooth="yes"/>
      <point x="475" y="-189" type="line" smooth="yes"/>
      <point x="475" y="-124.104"/>
      <point x="451.405" y="-101"/>
      <point x="385" y="-101" type="qcurve" smooth="yes"/>
      <point x="325" y="-101" type="line" smooth="yes"/>
      <point x="258.595" y="-101"/>
      <point x="235" y="-124.104"/>
      <point x="235" y="-189" type="qcurve" smooth="yes"/>
      <point x="235" y="-251" type="line" smooth="yes"/>
      <point x="235" y="-315.896"/>
      <point x="258.595" y="-339"/>
    </contour>
  </outline>
  <guideline angle="0" color="1,0,0,1" x="0" y="-1014"/>
  <guideline angle="0" x="0" y="-100"/>
</glyph>
<glyph name="uni1EBD" format="2">
  <advance width="732"/>
  <unicode hex="1EBD"/>
  <anchor x="362" y="1430" name="top"/>
  <anchor x="355" y="-150" name="bottom"/>
  <anchor x="499" y="0" name="ogonek"/>
  <outline>
    <contour>
      <point x="55" y="246" type="line" smooth="yes"/>
      <point x="55" y="104.135"/>
      <point x="202.08" y="-14"/>
      <point x="353" y="-14" type="qcurve" smooth="yes"/>
      <point x="359" y="-14" type="line" smooth="yes"/>
      <point x="531.049" y="-14"/>
      <point x="677" y="105.644"/>
      <point x="677" y="246" type="qcurve" smooth="yes"/>
      <point x="677" y="260" type="line"/>
      <point x="429" y="304" type="line"/>
      <point x="429" y="190" type="line"/>
      <point x="429" y="190"/>
      <point x="429" y="190"/>
      <point x="429" y="190" type="qcurve"/>
      <point x="303" y="190" type="line"/>
      <point x="303" y="190"/>
      <point x="303" y="190"/>
      <point x="303" y="190" type="qcurve"/>
      <point x="303" y="402" type="line"/>
      <point x="677" y="402" type="line"/>
      <point x="677" y="790" type="line" smooth="yes"/>
      <point x="677" y="898.662"/>
      <point x="542.337" y="1014"/>
      <point x="405" y="1014" type="qcurve" smooth="yes"/>
      <point x="325" y="1014" type="line" smooth="yes"/>
      <point x="187.663" y="1014"/>
      <point x="55" y="901.153"/>
      <point x="55" y="794" type="qcurve" smooth="yes"/>
    </contour>
    <contour>
      <point x="303" y="606" type="line"/>
      <point x="303" y="810" type="line"/>
      <point x="303" y="810"/>
      <point x="303" y="810"/>
      <point x="303" y="810" type="qcurve"/>
      <point x="429" y="810" type="line"/>
      <point x="429" y="810"/>
      <point x="429" y="810"/>
      <point x="429" y="810" type="qcurve"/>
      <point x="429" y="606" type="line"/>
    </contour>
    <contour>
      <point x="97" y="1142" type="qcurve"/>
      <point x="255" y="1114" type="line"/>
      <point x="260.282" y="1126.83"/>
      <point x="281.38" y="1149"/>
      <point x="301" y="1149" type="qcurve" smooth="yes"/>
      <point x="315.25" y="1149"/>
      <point x="340.781" y="1138.06"/>
      <point x="372.469" y="1124.94"/>
      <point x="414.875" y="1114"/>
      <point x="446" y="1114" type="qcurve" smooth="yes"/>
      <point x="528.5" y="1114"/>
      <point x="616.5" y="1217.75"/>
      <point x="627" y="1307" type="qcurve"/>
      <point x="469" y="1335" type="line"/>
      <point x="463.718" y="1322.17"/>
      <point x="442.62" y="1300"/>
      <point x="423" y="1300" type="qcurve" smooth="yes"/>
      <point x="408.75" y="1300"/>
      <point x="380.688" y="1310.94"/>
      <point x="347.312" y="1324.06"/>
      <point x="305.75" y="1335"/>
      <point x="278" y="1335" type="qcurve" smooth="yes"/>
      <point x="195.5" y="1335"/>
      <point x="107.5" y="1231.25"/>
    </contour>
  </outline>
  <guideline angle="0" color="1,0,0,1" x="0" y="-1014"/>
</glyph>
<glyph name="uni1ECE" format="2">
  <advance width="850"/>
  <unicode hex="1ECE"/>
  <anchor x="425" y="1568" name="top"/>
  <anchor x="425" y="-168" name="bottom"/>
  <anchor x="788" y="1144" name="horn"/>
  <anchor x="502" y="0" name="ogonek"/>
  <outline>
    <contour>
      <point x="62" y="1144" type="qcurve" smooth="yes"/>
      <point x="62" y="268" type="line" smooth="yes"/>
      <point x="62" y="91.4236"/>
      <point x="242.516" y="-18"/>
      <point x="404" y="-18" type="qcurve" smooth="yes"/>
      <point x="444" y="-18" type="line" smooth="yes"/>
      <point x="605.484" y="-18"/>
      <point x="788" y="89.9144"/>
      <point x="788" y="268" type="qcurve" smooth="yes"/>
      <point x="788" y="1144" type="line" smooth="yes"/>
      <point x="788" y="1315"/>
      <point x="595.5" y="1418"/>
      <point x="444" y="1418" type="qcurve" smooth="yes"/>
      <point x="404" y="1418" type="line" smooth="yes"/>
      <point x="252.5" y="1418"/>
      <point x="62" y="1315"/>
    </contour>
    <contour>
      <point x="326" y="1178" type="line"/>
      <point x="326" y="1178"/>
      <point x="326" y="1178"/>
      <point x="326" y="1178" type="qcurve"/>
      <point x="524" y="1178" type="line"/>
      <point x="524" y="1178"/>
      <point x="524" y="1178"/>
      <point x="524" y="1178" type="qcurve"/>
      <point x="524" y="222" type="line"/>
      <point x="524" y="222"/>
      <point x="524" y="222"/>
      <point x="524" y="222" type="qcurve"/>
      <point x="326" y="222" type="line"/>
      <point x="326" y="222"/>
      <point x="326" y="222"/>
      <point x="326" y="222" type="qcurve"/>
    </contour>
    <contour>
      <point x="336" y="1518" type="qcurve"/>
      <point x="477" y="1518" type="line"/>
      <point x="528.313" y="1545.17"/>
      <point x="586" y="1635.4"/>
      <point x="586" y="1692" type="qcurve" smooth="yes"/>
      <point x="586" y="1759.16"/>
      <point x="489.178" y="1841"/>
      <point x="419" y="1841" type="qcurve" smooth="yes"/>
      <point x="353.35" y="1841"/>
      <point x="274.73" y="1796.47"/>
      <point x="237" y="1761" type="qcurve"/>
      <point x="291" y="1661" type="line"/>
      <point x="303.074" y="1669.3"/>
      <point x="330.399" y="1683"/>
      <point x="347" y="1683" type="qcurve" smooth="yes"/>
      <point x="374.166" y="1683"/>
      <point x="402" y="1649.39"/>
      <point x="402" y="1626" type="qcurve" smooth="yes"/>
      <point x="402" y="1592.04"/>
      <point x="363.92" y="1536.87"/>
    </contour>
  </outline>
</glyph>
<glyph name="uni1ED5" format="2">
  <advance width="744"/>
  <unicode hex="1ED5"/>
  <anchor x="372" y="1500" name="top"/>
  <anchor x="372" y="-150" name="bottom"/>
  <anchor x="689" y="809" name="horn"/>
  <anchor x="449" y="0" name="ogonek"/>
  <anchor x="605" y="1243" name="topright"/>
  <outline>
    <contour>
      <point x="55" y="200" type="line" smooth="yes"/>
      <point x="55" y="83.7916"/>
      <point x="172.154" y="-14"/>
      <point x="311" y="-14" type="qcurve" smooth="yes"/>
      <point x="433" y="-14" type="line" smooth="yes"/>
      <point x="573.356" y="-14"/>
      <point x="689" y="83.7916"/>
      <point x="689" y="200" type="qcurve" smooth="yes"/>
      <point x="689" y="810" type="line" smooth="yes"/>
      <point x="689" y="918.662"/>
      <point x="570.337" y="1014"/>
      <point x="433" y="1014" type="qcurve" smooth="yes"/>
      <point x="311" y="1014" type="line" smooth="yes"/>
      <point x="173.663" y="1014"/>
      <point x="55" y="918.662"/>
      <point x="55" y="810" type="qcurve" smooth="yes"/>
    </contour>
    <contour>
      <point x="303" y="210" type="qcurve"/>
      <point x="303" y="790" type="line"/>
      <point x="303" y="790"/>
      <point x="303" y="790"/>
      <point x="303" y="790" type="qcurve"/>
      <point x="441" y="790" type="line"/>
      <point x="441" y="790"/>
      <point x="441" y="790"/>
      <point x="441" y="790" type="qcurve"/>
      <point x="441" y="210" type="line"/>
      <point x="441" y="210"/>
      <point x="441" y="210"/>
      <point x="441" y="210" type="qcurve"/>
      <point x="303" y="210" type="line"/>
      <point x="303" y="210"/>
      <point x="303" y="210"/>
    </contour>
    <contour>
      <point x="141" y="1085" type="line"/>
      <point x="330" y="1085" type="line"/>
      <point x="368" y="1213" type="line"/>
      <point x="406" y="1085" type="line"/>
      <point x="605" y="1085" type="line"/>
      <point x="450" y="1400" type="line"/>
      <point x="296" y="1400" type="line"/>
    </contour>
    <contour>
      <point x="545" y="1243" type="qcurve"/>
      <point x="686" y="1243" type="line"/>
      <point x="732.785" y="1269.41"/>
      <point x="795" y="1347.2"/>
      <point x="795" y="1397" type="qcurve" smooth="yes"/>
      <point x="795" y="1467.93"/>
      <point x="698.515" y="1556"/>
      <point x="614" y="1556" type="qcurve" smooth="yes"/>
      <point x="558.914" y="1556"/>
      <point x="473.92" y="1520.66"/>
      <point x="446" y="1495" type="qcurve"/>
      <point x="500" y="1406" type="line"/>
      <point x="509.055" y="1415.06"/>
      <point x="540.399" y="1429"/>
      <point x="557" y="1429" type="qcurve" smooth="yes"/>
      <point x="584.92" y="1429"/>
      <point x="611" y="1388.94"/>
      <point x="611" y="1358" type="qcurve" smooth="yes"/>
      <point x="611" y="1318.76"/>
      <point x="573.675" y="1263.37"/>
    </contour>
  </outline>
</glyph>
<glyph name="uni1EE6" format="2">
  <advance width="846"/>
  <unicode hex="1EE6"/>
  <anchor x="423" y="1550" name="top"/>
  <anchor x="423" y="-150" name="bottom"/>
  <anchor x="500" y="0" name="ogonek"/>
  <anchor x="779" y="1400" name="horn"/>
  <outline>
    <contour>
      <point x="67" y="1400" type="line"/>
      <point x="67" y="268" type="line" smooth="yes"/>
      <point x="67" y="179.5"/>
      <point x="114.25" y="68"/>
      <point x="202.75" y="5"/>
      <point x="329.5" y="-18"/>
      <point x="409" y="-18" type="qcurve" smooth="yes"/>
      <point x="435" y="-18" type="line" smooth="yes"/>
      <point x="595.5" y="-18"/>
      <point x="779" y="91"/>
      <point x="779" y="268" type="qcurve" smooth="yes"/>
      <point x="779" y="1400" type="line"/>
      <point x="515" y="1400" type="line"/>
      <point x="515" y="236" type="line"/>
      <point x="515" y="236"/>
      <point x="515" y="236"/>
      <point x="515" y="236" type="qcurve"/>
      <point x="331" y="236" type="line"/>
      <point x="331" y="236"/>
      <point x="331" y="236"/>
      <point x="331" y="236" type="qcurve"/>
      <point x="331" y="1400" type="line"/>
    </contour>
    <contour>
      <point x="334" y="1500" type="qcurve"/>
      <point x="475" y="1500" type="line"/>
      <point x="526.313" y="1527.17"/>
      <point x="584" y="1617.4"/>
      <point x="584" y="1674" type="qcurve" smooth="yes"/>
      <point x="584" y="1741.16"/>
      <point x="487.178" y="1823"/>
      <point x="417" y="1823" type="qcurve" smooth="yes"/>
      <point x="351.35" y="1823"/>
      <point x="272.73" y="1778.47"/>
      <point x="235" y="1743" type="qcurve"/>
      <point x="289" y="1643" type="line"/>
      <point x="301.074" y="1651.3"/>
      <point x="328.399" y="1665"/>
      <point x="345" y="1665" type="qcurve" smooth="yes"/>
      <point x="372.166" y="1665"/>
      <point x="400" y="1631.39"/>
      <point x="400" y="1608" type="qcurve" smooth="yes"/>
      <point x="400" y="1574.04"/>
      <point x="361.92" y="1518.87"/>
    </contour>
  </outline>
</glyph>
<glyph name="uni1EE7" format="2">
  <advance width="736"/>
  <unicode hex="1EE7"/>
  <anchor x="368" y="1150" name="top"/>
  <anchor x="368" y="-164" name="bottom"/>
  <anchor x="445" y="0" name="ogonek"/>
  <anchor x="676" y="1000" name="horn"/>
  <outline>
    <contour>
      <point x="60" y="190" type="line" smooth="yes"/>
      <point x="60" y="63.2272"/>
      <point x="189.301" y="-14"/>
      <point x="304" y="-14" type="qcurve" smooth="yes"/>
      <point x="430" y="-14" type="line" smooth="yes"/>
      <point x="544.699" y="-14"/>
      <point x="676" y="63.2272"/>
      <point x="676" y="190" type="qcurve" smooth="yes"/>
      <point x="676" y="1000" type="line"/>
      <point x="428" y="1000" type="line"/>
      <point x="428" y="210" type="line"/>
      <point x="428" y="210"/>
      <point x="428" y="210"/>
      <point x="428" y="210" type="qcurve"/>
      <point x="308" y="210" type="line"/>
      <point x="308" y="210"/>
      <point x="308" y="210"/>
      <point x="308" y="210" type="qcurve"/>
      <point x="308" y="1000" type="line"/>
      <point x="60" y="1000" type="line"/>
    </contour>
    <contour>
      <point x="279" y="1100" type="qcurve"/>
      <point x="420" y="1100" type="line"/>
      <point x="466.785" y="1126.41"/>
      <point x="529" y="1204.2"/>
      <point x="529" y="1254" type="qcurve" smooth="yes"/>
      <point x="529" y="1324.93"/>
      <point x="432.515" y="1413"/>
      <point x="348" y="1413" type="qcurve" smooth="yes"/>
      <point x="292.914" y="1413"/>
      <point x="207.92" y="1377.66"/>
      <point x="180" y="1352" type="qcurve"/>
      <point x="234" y="1263" type="line"/>
      <point x="243.055" y="1272.06"/>
      <point x="274.399" y="1286"/>
      <point x="291" y="1286" type="qcurve" smooth="yes"/>
      <point x="318.92" y="1286"/>
      <point x="345" y="1245.94"/>
      <point x="345" y="1215" type="qcurve" smooth="yes"/>
      <point x="345" y="1175.76"/>
      <point x="307.675" y="1120.37"/>
    </contour>
  </outline>
</glyph>
<glyph name="uni1EF9" format="2">
  <advance width="687"/>
  <unicode hex="1EF9"/>
  <anchor x="344" y="1430" name="top"/>
  <anchor x="567" y="-210" name="bottom"/>
  <outline>
    <contour>
      <point x="58" y="-428" type="line"/>
      <point x="115" y="-428" type="line" smooth="yes"/>
      <point x="171.25" y="-428"/>
      <point x="259.094" y="-414.906"/>
      <point x="324.156" y="-379.844"/>
      <point x="367.375" y="-318.375"/>
      <point x="379" y="-270" type="qcurve" smooth="yes"/>
      <point x="687" y="1000" type="line"/>
      <point x="464" y="1000" type="line"/>
      <point x="349" y="471" type="line"/>
      <point x="255" y="1000" type="line"/>
      <point x="0" y="1000" type="line"/>
      <point x="244" y="33" type="line"/>
      <point x="192" y="-204" type="line"/>
      <point x="192" y="-204"/>
      <point x="192" y="-204"/>
      <point x="192" y="-204" type="qcurve"/>
      <point x="12" y="-204" type="line"/>
    </contour>
    <contour>
      <point x="79" y="1142" type="qcurve"/>
      <point x="237" y="1114" type="line"/>
      <point x="242.282" y="1126.83"/>
      <point x="263.38" y="1149"/>
      <point x="283" y="1149" type="qcurve" smooth="yes"/>
      <point x="297.25" y="1149"/>
      <point x="322.781" y="1138.06"/>
      <point x="354.469" y="1124.94"/>
      <point x="396.875" y="1114"/>
      <point x="428" y="1114" type="qcurve" smooth="yes"/>
      <point x="510.5" y="1114"/>
      <point x="598.5" y="1217.75"/>
      <point x="609" y="1307" type="qcurve"/>
      <point x="451" y="1335" type="line"/>
      <point x="445.718" y="1322.17"/>
      <point x="424.62" y="1300"/>
      <point x="405" y="1300" type="qcurve" smooth="yes"/>
      <point x="390.75" y="1300"/>
      <point x="362.688" y="1310.94"/>
      <point x="329.312" y="1324.06"/>
      <point x="287.75" y="1335"/>
      <point x="260" y="1335" type="qcurve" smooth="yes"/>
      <point x="177.5" y="1335"/>
      <point x="89.5" y="1231.25"/>
    </contour>
  </outline>
</glyph>
<glyph name="quoteleft" format="2">
  <advance width="433"/>
  <unicode hex="2018"/>
  <outline>
    <contour>
      <point x="270" y="1487" type="line"/>
      <point x="99" y="1203" type="line" smooth="yes"/>
      <point x="78.6258" y="1169.04"/>
      <point x="64" y="1112.03"/>
      <point x="64" y="1066" type="qcurve" smooth="yes"/>
      <point x="64" y="965" type="line" smooth="yes"/>
      <point x="64" y="878.221"/>
      <point x="94.7118" y="848"/>
      <point x="183" y="848" type="qcurve" smooth="yes"/>
      <point x="250" y="848" type="line" smooth="yes"/>
      <point x="337.75" y="848"/>
      <point x="369" y="878.75"/>
      <point x="369" y="965" type="qcurve" smooth="yes"/>
      <point x="369" y="1066" type="line" smooth="yes"/>
      <point x="369" y="1154.29"/>
      <point x="338.288" y="1185"/>
      <point x="250" y="1185" type="qcurve" smooth="yes"/>
      <point x="232" y="1185" type="line"/>
      <point x="362" y="1455" type="line"/>
    </contour>
  </outline>
</glyph>
<glyph name="quotedblleft" format="2">
  <advance width="802"/>
  <unicode hex="201C"/>
  <outline>
    <contour>
      <point x="270" y="1487" type="line"/>
      <point x="99" y="1203" type="line" smooth="yes"/>
      <point x="78.6258" y="1169.04"/>
      <point x="64" y="1112.03"/>
      <point x="64" y="1066" type="qcurve" smooth="yes"/>
      <point x="64" y="965" type="line" smooth="yes"/>
      <point x="64" y="878.221"/>
      <point x="94.7118" y="848"/>
      <point x="183" y="848" type="qcurve" smooth="yes"/>
      <point x="250" y="848" type="line" smooth="yes"/>
      <point x="337.75" y="848"/>
      <point x="369" y="878.75"/>
      <point x="369" y="965" type="qcurve" smooth="yes"/>
      <point x="369" y="1066" type="line" smooth="yes"/>
      <point x="369" y="1154.29"/>
      <point x="338.288" y="1185"/>
      <point x="250" y="1185" type="qcurve" smooth="yes"/>
      <point x="232" y="1185" type="line"/>
      <point x="362" y="1455" type="line"/>
    </contour>
    <contour>
      <point x="639" y="1487" type="line"/>
      <point x="468" y="1203" type="line" smooth="yes"/>
      <point x="447.626" y="1169.04"/>
      <point x="433" y="1112.03"/>
      <point x="433" y="1066" type="qcurve" smooth="yes"/>
      <point x="433" y="965" type="line" smooth="yes"/>
      <point x="433" y="878.221"/>
      <point x="463.712" y="848"/>
      <point x="552" y="848" type="qcurve" smooth="yes"/>
      <point x="619" y="848" type="line" smooth="yes"/>
      <point x="706.75" y="848"/>
      <point x="738" y="878.75"/>
      <point x="738" y="965" type="qcurve" smooth="yes"/>
      <point x="738" y="1066" type="line" smooth="yes"/>
      <point x="738" y="1154.29"/>
      <point x="707.288" y="1185"/>
      <point x="619" y="1185" type="qcurve" smooth="yes"/>
      <point x="601" y="1185" type="line"/>
      <point x="731" y="1455" type="line"/>
    </contour>
  </outline>
</glyph>
<glyph name="minute" format="2">
  <advance width="278"/>
  <unicode hex="2032"/>
  <outline>
    <contour>
      <point x="29" y="1335" type="qcurve"/>
      <point x="18" y="835" type="line"/>
      <point x="80" y="835" type="line"/>
      <point x="251" y="1335" type="line"/>
      <point x="266.847" y="1421.78"/>
      <point x="246.196" y="1452"/>
      <point x="173" y="1452" type="qcurve" smooth="yes"/>
      <point x="149" y="1452" type="line" smooth="yes"/>
      <point x="112.625" y="1452"/>
      <point x="71.9375" y="1447.78"/>
      <point x="49.0625" y="1425.47"/>
      <point x="36.875" y="1378.12"/>
    </contour>
  </outline>
</glyph>
<glyph name="uni2052" format="2">
  <advance width="908"/>
  <unicode hex="2052"/>
  <outline>
    <contour>
      <point x="3" y="1182" type="line" smooth="yes"/>
      <point x="3" y="1093.71"/>
      <point x="33.7118" y="1063"/>
      <point x="122" y="1063" type="qcurve" smooth="yes"/>
      <point x="188" y="1063" type="line" smooth="yes"/>
      <point x="275.75" y="1063"/>
      <point x="308" y="1094.25"/>
      <point x="308" y="1182" type="qcurve" smooth="yes"/>
      <point x="308" y="1291" type="line" smooth="yes"/>
      <point x="308" y="1377.78"/>
      <point x="276.288" y="1408"/>
      <point x="188" y="1408" type="qcurve" smooth="yes"/>
      <point x="122" y="1408" type="line" smooth="yes"/>
      <point x="34.25" y="1408"/>
      <point x="3" y="1377.25"/>
      <point x="3" y="1291" type="qcurve" smooth="yes"/>
    </contour>
    <contour>
      <point x="806" y="1400" type="line"/>
      <point x="-122" y="0" type="line"/>
      <point x="101" y="0" type="line"/>
      <point x="1029" y="1400" type="line"/>
    </contour>
    <contour>
      <point x="599" y="111" type="line" smooth="yes"/>
      <point x="599" y="22.7118"/>
      <point x="629.712" y="-8"/>
      <point x="718" y="-8" type="qcurve" smooth="yes"/>
      <point x="784" y="-8" type="line" smooth="yes"/>
      <point x="871.75" y="-8"/>
      <point x="904" y="23.25"/>
      <point x="904" y="111" type="qcurve" smooth="yes"/>
      <point x="904" y="220" type="line" smooth="yes"/>
      <point x="904" y="306.779"/>
      <point x="872.288" y="337"/>
      <point x="784" y="337" type="qcurve" smooth="yes"/>
      <point x="718" y="337" type="line" smooth="yes"/>
      <point x="630.25" y="337"/>
      <point x="599" y="306.25"/>
      <point x="599" y="220" type="qcurve" smooth="yes"/>
    </contour>
  </outline>
</glyph>
<glyph name="uni2074" format="2">
  <advance width="580"/>
  <unicode hex="2074"/>
  <outline>
    <contour>
      <point x="4" y="1101" type="line"/>
      <point x="262" y="1101" type="line"/>
      <point x="262" y="950" type="line"/>
      <point x="462" y="950" type="line"/>
      <point x="462" y="1101" type="line"/>
      <point x="544" y="1101" type="line"/>
      <point x="544" y="1282" type="line"/>
      <point x="462" y="1282" type="line"/>
      <point x="462" y="1734" type="line"/>
      <point x="243" y="1734" type="line"/>
      <point x="4" y="1247" type="line"/>
    </contour>
    <contour>
      <point x="195" y="1282" type="line"/>
      <point x="262" y="1419" type="line"/>
      <point x="262" y="1282" type="line"/>
    </contour>
  </outline>
</glyph>
<glyph name="franc" format="2">
  <advance width="658"/>
  <unicode hex="20A3"/>
  <outline>
    <contour>
      <point x="72" y="0" type="line"/>
      <point x="336" y="0" type="line"/>
      <point x="336" y="278" type="line"/>
      <point x="491" y="278" type="line"/>
      <point x="491" y="462" type="line"/>
      <point x="336" y="462" type="line"/>
      <point x="336" y="590" type="line"/>
      <point x="616" y="590" type="line"/>
      <point x="616" y="834" type="line"/>
      <point x="336" y="834" type="line"/>
      <point x="336" y="1156" type="line"/>
      <point x="636" y="1156" type="line"/>
      <point x="636" y="1400" type="line"/>
      <point x="72" y="1400" type="line"/>
      <point x="72" y="462" type="line"/>
      <point x="30" y="462" type="line"/>
      <point x="30" y="278" type="line"/>
      <point x="72" y="278" type="line"/>
    </contour>
  </outline>
</glyph>
<glyph name="onethird" format="2">
  <advance width="1317"/>
  <unicode hex="2153"/>
  <outline>
    <contour>
      <point x="164" y="614" type="line"/>
      <point x="364" y="614" type="line"/>
      <point x="364" y="1407" type="line"/>
      <point x="38" y="1332" type="line"/>
      <point x="38" y="1208" type="line"/>
      <point x="164" y="1210" type="line"/>
    </contour>
    <contour>
      <point x="944" y="1400" type="line"/>
      <point x="16" y="0" type="line"/>
      <point x="239" y="0" type="line"/>
      <point x="1167" y="1400" type="line"/>
    </contour>
    <contour>
      <point x="784" y="206" type="line"/>
      <point x="784" y="146" type="line" smooth="yes"/>
      <point x="784" y="47.1474"/>
      <point x="900.902" y="-13"/>
      <point x="999" y="-13" type="qcurve" smooth="yes"/>
      <point x="1029" y="-13" type="line" smooth="yes"/>
      <point x="1127.85" y="-13"/>
      <point x="1260" y="62.1474"/>
      <point x="1260" y="161" type="qcurve" smooth="yes"/>
      <point x="1260" y="230" type="line" smooth="yes"/>
      <point x="1260" y="319.043"/>
      <point x="1155.04" y="398.209"/>
      <point x="1066" y="405" type="qcurve"/>
      <point x="1148.25" y="419.337"/>
      <point x="1230" y="496.123"/>
      <point x="1230" y="558" type="qcurve" smooth="yes"/>
      <point x="1230" y="631" type="line" smooth="yes"/>
      <point x="1230" y="705.705"/>
      <point x="1120.15" y="797"/>
      <point x="1013" y="797" type="qcurve" smooth="yes"/>
      <point x="1008" y="797" type="line" smooth="yes"/>
      <point x="954.75" y="797"/>
      <point x="873.625" y="777.938"/>
      <point x="818.875" y="740.062"/>
      <point x="791" y="683.5"/>
      <point x="791" y="646" type="qcurve" smooth="yes"/>
      <point x="791" y="579" type="line"/>
      <point x="991" y="543" type="line"/>
      <point x="991" y="616" type="line"/>
      <point x="991" y="616"/>
      <point x="991" y="616"/>
      <point x="991" y="616" type="qcurve"/>
      <point x="993" y="616" type="line" smooth="yes"/>
      <point x="1008.09" y="616"/>
      <point x="1030" y="600.337"/>
      <point x="1030" y="586" type="qcurve" smooth="yes"/>
      <point x="1030" y="526" type="line" smooth="yes"/>
      <point x="1030" y="504.871"/>
      <point x="1000.88" y="480"/>
      <point x="979" y="480" type="qcurve" smooth="yes"/>
      <point x="968" y="480" type="line"/>
      <point x="968" y="315" type="line"/>
      <point x="999" y="315" type="line" smooth="yes"/>
      <point x="1025.41" y="315"/>
      <point x="1060" y="283.902"/>
      <point x="1060" y="259" type="qcurve" smooth="yes"/>
      <point x="1060" y="202" type="line" smooth="yes"/>
      <point x="1060" y="186.908"/>
      <point x="1041.09" y="168"/>
      <point x="1026" y="168" type="qcurve" smooth="yes"/>
      <point x="984" y="168" type="line"/>
      <point x="984" y="168"/>
      <point x="984" y="168"/>
      <point x="984" y="168" type="qcurve"/>
      <point x="984" y="241" type="line"/>
    </contour>
  </outline>
  <guideline angle="90" color="0.4,0.4,0.4,1" name="halfwidth" x="658.5" y="0"/>
</glyph>
<glyph name="fiveeighths" format="2">
  <advance width="1348"/>
  <unicode hex="215D"/>
  <outline>
    <contour>
      <point x="232" y="614" type="qcurve" smooth="yes"/>
      <point x="275.125" y="614"/>
      <point x="357.469" y="634.688"/>
      <point x="421.781" y="691.312"/>
      <point x="461" y="791.5"/>
      <point x="461" y="871" type="qcurve" smooth="yes"/>
      <point x="461" y="934"/>
      <point x="435" y="1031.31"/>
      <point x="385.5" y="1097.69"/>
      <point x="313.75" y="1132"/>
      <point x="268" y="1132" type="qcurve" smooth="yes"/>
      <point x="252.153" y="1132"/>
      <point x="210.11" y="1128.02"/>
      <point x="192" y="1125" type="qcurve"/>
      <point x="197" y="1224" type="line"/>
      <point x="373" y="1224" type="line"/>
      <point x="411" y="1405" type="line"/>
      <point x="48" y="1405" type="line"/>
      <point x="22" y="927" type="line"/>
      <point x="50.6748" y="935.301"/>
      <point x="125.178" y="954"/>
      <point x="165.702" y="954" type="qcurve" smooth="yes"/>
      <point x="192.814" y="954"/>
      <point x="229.372" y="943.312"/>
      <point x="251.553" y="922.688"/>
      <point x="261" y="892.5"/>
      <point x="261" y="873" type="qcurve" smooth="yes"/>
      <point x="261" y="826.215"/>
      <point x="210.1" y="788"/>
      <point x="173.506" y="788" type="qcurve" smooth="yes"/>
      <point x="133.13" y="788"/>
      <point x="47.1472" y="819.681"/>
      <point x="23" y="831" type="qcurve"/>
      <point x="70" y="648" type="line"/>
      <point x="103.957" y="632.908"/>
      <point x="198.798" y="614"/>
    </contour>
    <contour>
      <point x="971" y="1400" type="line"/>
      <point x="43" y="0" type="line"/>
      <point x="266" y="0" type="line"/>
      <point x="1194" y="1400" type="line"/>
    </contour>
    <contour>
      <point x="1005" y="189" type="qcurve" smooth="yes"/>
      <point x="1005" y="265" type="line" smooth="yes"/>
      <point x="1005" y="282.356"/>
      <point x="1023.4" y="306"/>
      <point x="1040" y="306" type="qcurve" smooth="yes"/>
      <point x="1061" y="306" type="line" smooth="yes"/>
      <point x="1069.25" y="306"/>
      <point x="1082.56" y="299.656"/>
      <point x="1091.94" y="288.594"/>
      <point x="1097" y="273.625"/>
      <point x="1097" y="265" type="qcurve" smooth="yes"/>
      <point x="1097" y="189" type="line" smooth="yes"/>
      <point x="1097" y="176.172"/>
      <point x="1078.83" y="160"/>
      <point x="1066" y="160" type="qcurve" smooth="yes"/>
      <point x="1037" y="160" type="line" smooth="yes"/>
      <point x="1023.42" y="160"/>
      <point x="1005" y="176.172"/>
    </contour>
    <contour>
      <point x="1084" y="597" type="qcurve" smooth="yes"/>
      <point x="1084" y="512" type="line" smooth="yes"/>
      <point x="1084" y="498.417"/>
      <point x="1069.83" y="479"/>
      <point x="1057" y="479" type="qcurve" smooth="yes"/>
      <point x="1045" y="479" type="line" smooth="yes"/>
      <point x="1032.17" y="479"/>
      <point x="1018" y="498.417"/>
      <point x="1018" y="512" type="qcurve" smooth="yes"/>
      <point x="1018" y="597" type="line" smooth="yes"/>
      <point x="1018" y="609.828"/>
      <point x="1036.42" y="624"/>
      <point x="1050" y="624" type="qcurve" smooth="yes"/>
      <point x="1053" y="624" type="line" smooth="yes"/>
      <point x="1065.83" y="624"/>
      <point x="1084" y="609.074"/>
    </contour>
    <contour>
      <point x="805" y="161" type="line" smooth="yes"/>
      <point x="805" y="62.1474"/>
      <point x="933.902" y="-13"/>
      <point x="1032" y="-13" type="qcurve" smooth="yes"/>
      <point x="1070" y="-13" type="line" smooth="yes"/>
      <point x="1169.61" y="-13"/>
      <point x="1297" y="62.1474"/>
      <point x="1297" y="161" type="qcurve" smooth="yes"/>
      <point x="1297" y="244" type="line" smooth="yes"/>
      <point x="1297" y="329.27"/>
      <point x="1236.2" y="391.209"/>
      <point x="1203" y="398" type="qcurve"/>
      <point x="1231.67" y="408.564"/>
      <point x="1284" y="488.104"/>
      <point x="1284" y="553" type="qcurve" smooth="yes"/>
      <point x="1284" y="630" type="line" smooth="yes"/>
      <point x="1284" y="705.46"/>
      <point x="1177.15" y="797"/>
      <point x="1070" y="797" type="qcurve" smooth="yes"/>
      <point x="1032" y="797" type="line" smooth="yes"/>
      <point x="924.847" y="797"/>
      <point x="818" y="705.46"/>
      <point x="818" y="630" type="qcurve" smooth="yes"/>
      <point x="818" y="553" type="line" smooth="yes"/>
      <point x="818" y="488.104"/>
      <point x="868.816" y="408.564"/>
      <point x="899" y="398" type="qcurve"/>
      <point x="865.798" y="391.209"/>
      <point x="805" y="327.761"/>
      <point x="805" y="244" type="qcurve" smooth="yes"/>
    </contour>
  </outline>
</glyph>
<glyph name="arrowleft" format="2">
  <advance width="1473"/>
  <unicode hex="2190"/>
  <outline>
    <contour>
      <point x="649" y="493" type="line"/>
      <point x="649" y="614" type="line"/>
      <point x="1458" y="614" type="line"/>
      <point x="1458" y="844" type="line"/>
      <point x="649" y="844" type="line"/>
      <point x="649" y="965" type="line"/>
      <point x="0" y="729" type="line"/>
    </contour>
  </outline>
</glyph>
<glyph name="greaterequal" format="2">
  <advance width="908"/>
  <unicode hex="2265"/>
  <outline>
    <contour>
      <point x="46" y="0" type="line"/>
      <point x="862" y="0" type="line"/>
      <point x="862" y="208" type="line"/>
      <point x="46" y="208" type="line"/>
    </contour>
    <contour>
      <point x="46" y="332" type="line"/>
      <point x="862" y="707" type="line"/>
      <point x="862" y="905" type="line"/>
      <point x="46" y="1280" type="line"/>
      <point x="46" y="1064" type="line"/>
      <point x="695" y="766" type="line"/>
      <point x="695" y="846" type="line"/>
      <point x="46" y="548" type="line"/>
    </contour>
  </outline>
</glyph>
<glyph name="uni25A1" format="2">
  <advance width="1544"/>
  <unicode hex="25A1"/>
  <outline>
    <contour>
      <point x="72" y="0" type="line"/>
      <point x="1472" y="0" type="line"/>
      <point x="1472" y="1400" type="line"/>
      <point x="72" y="1400" type="line"/>
    </contour>
    <contour>
      <point x="336" y="240" type="line"/>
      <point x="336" y="1160" type="line"/>
      <point x="1208" y="1160" type="line"/>
      <point x="1208" y="240" type="line"/>
    </contour>
  </outline>
</glyph>
<glyph name="uni25B3" format="2">
  <advance width="1690"/>
  <unicode hex="25B3"/>
  <outline>
    <contour>
      <point x="0" y="0" type="line"/>
      <point x="1690" y="0" type="line"/>
      <point x="845" y="1463" type="line"/>
    </contour>
    <contour>
      <point x="437" y="252" type="line"/>
      <point x="845" y="959" type="line"/>
      <point x="1253" y="252" type="line"/>
    </contour>
  </outline>
</glyph>
<glyph name="uni25C7" format="2">
  <advance width="1525"/>
  <unicode hex="25C7"/>
  <outline>
    <contour>
      <point x="762" y="-63" type="line"/>
      <point x="1525" y="700" type="line"/>
      <point x="762" y="1463" type="line"/>
      <point x="0" y="700" type="line"/>
    </contour>
    <contour>
      <point x="762" y="293" type="line"/>
      <point x="356" y="700" type="line"/>
      <point x="762" y="1107" type="line"/>
      <point x="1169" y="700" type="line"/>
    </contour>
  </outline>
</glyph>
<glyph name="uni27E9" format="2">
  <advance width="480"/>
  <unicode hex="27E9"/>
  <outline>
    <contour>
      <point x="222" y="1400" type="line"/>
      <point x="24" y="1400" type="line"/>
      <point x="256" y="700" type="line"/>
      <point x="24" y="0" type="line"/>
      <point x="222" y="0" type="line"/>
      <point x="454" y="700" type="line"/>
    </contour>
  </outline>
</glyph>
<glyph name="acircumflex.sc" format="2">
  <advance width="696"/>
  <anchor x="348" y="1560" name="top"/>
  <anchor x="348" y="-150" name="bottom"/>
  <anchor x="616" y="0" name="ogonek"/>
  <anchor x="581" y="1303" name="topright"/>
  <outline>
    <contour>
      <point x="-10" y="0" type="line"/>
      <point x="209" y="0" type="line"/>
      <point x="346" y="521" type="line"/>
      <point x="463" y="0" type="line"/>
      <point x="706" y="0" type="line"/>
      <point x="445" y="1060" type="line"/>
      <point x="251" y="1060" type="line"/>
    </contour>
    <contour>
      <point x="123" y="108" type="line"/>
      <point x="572" y="108" type="line"/>
      <point x="474" y="331" type="line"/>
      <point x="219" y="331" type="line"/>
    </contour>
    <contour>
      <point x="117" y="1145" type="line"/>
      <point x="306" y="1145" type="line"/>
      <point x="344" y="1273" type="line"/>
      <point x="382" y="1145" type="line"/>
      <point x="581" y="1145" type="line"/>
      <point x="426" y="1460" type="line"/>
      <point x="272" y="1460" type="line"/>
    </contour>
  </outline>
</glyph>
<glyph name="agrave.sc" format="2">
  <advance width="696"/>
  <anchor x="348" y="1210" name="top"/>
  <anchor x="348" y="-150" name="bottom"/>
  <anchor x="616" y="0" name="ogonek"/>
  <outline>
    <contour>
      <point x="-10" y="0" type="line"/>
      <point x="209" y="0" type="line"/>
      <point x="346" y="521" type="line"/>
      <point x="463" y="0" type="line"/>
      <point x="706" y="0" type="line"/>
      <point x="445" y="1060" type="line"/>
      <point x="251" y="1060" type="line"/>
    </contour>
    <contour>
      <point x="123" y="108" type="line"/>
      <point x="572" y="108" type="line"/>
      <point x="474" y="331" type="line"/>
      <point x="219" y="331" type="line"/>
    </contour>
    <contour>
      <point x="285" y="1145" type="line"/>
      <point x="489" y="1145" type="line"/>
      <point x="278" y="1460" type="line"/>
      <point x="50" y="1460" type="line"/>
    </contour>
  </outline>
</glyph>
<glyph name="ccaron.sc" format="2">
  <advance width="730"/>
  <anchor x="375" y="1578" name="top"/>
  <anchor x="375" y="-168" name="bottom"/>
  <anchor x="144" y="1320" name="topright"/>
  <outline>
    <contour>
      <point x="62" y="845" type="qcurve" smooth="yes"/>
      <point x="62" y="228" type="line" smooth="yes"/>
      <point x="62" y="95.1904"/>
      <point x="192.289" y="-15"/>
      <point x="350" y="-15" type="qcurve" smooth="yes"/>
      <point x="411" y="-15" type="line" smooth="yes"/>
      <point x="568.711" y="-15"/>
      <point x="702" y="95.1904"/>
      <point x="702" y="228" type="qcurve" smooth="yes"/>
      <point x="702" y="347" type="line"/>
      <point x="452" y="400" type="line"/>
      <point x="452" y="234" type="line"/>
      <point x="452" y="234"/>
      <point x="452" y="234"/>
      <point x="452" y="234" type="qcurve"/>
      <point x="312" y="234" type="line"/>
      <point x="312" y="234"/>
      <point x="312" y="234"/>
      <point x="312" y="234" type="qcurve"/>
      <point x="312" y="826" type="line"/>
      <point x="312" y="826"/>
      <point x="312" y="826"/>
      <point x="312" y="826" type="qcurve"/>
      <point x="444" y="826" type="line"/>
      <point x="444" y="826"/>
      <point x="444" y="826"/>
      <point x="444" y="826" type="qcurve"/>
      <point x="444" y="680" type="line"/>
      <point x="694" y="728" type="line"/>
      <point x="694" y="845" type="line" smooth="yes"/>
      <point x="694" y="968.75"/>
      <point x="570.5" y="1075"/>
      <point x="404" y="1075" type="qcurve" smooth="yes"/>
      <point x="350" y="1075" type="line" smooth="yes"/>
      <point x="196.25" y="1075"/>
      <point x="62" y="968.75"/>
    </contour>
    <contour>
      <point x="608" y="1478" type="line"/>
      <point x="419" y="1478" type="line"/>
      <point x="381" y="1350" type="line"/>
      <point x="343" y="1478" type="line"/>
      <point x="144" y="1478" type="line"/>
      <point x="299" y="1163" type="line"/>
      <point x="453" y="1163" type="line"/>
    </contour>
  </outline>
</glyph>
<glyph name="dollar.alt2" format="2">
  <advance width="744"/>
  <outline>
    <contour>
      <point x="324" y="12" type="qcurve" smooth="yes"/>
      <point x="422" y="12" type="line" smooth="yes"/>
      <point x="479.75" y="12"/>
      <point x="586.062" y="35"/>
      <point x="667.438" y="98"/>
      <point x="716" y="209.5"/>
      <point x="716" y="298" type="qcurve" smooth="yes"/>
      <point x="716" y="556" type="line" smooth="yes"/>
      <point x="716" y="638.5"/>
      <point x="661.812" y="744.75"/>
      <point x="576.688" y="806.25"/>
      <point x="472.25" y="830"/>
      <point x="422" y="830" type="qcurve" smooth="yes"/>
      <point x="304" y="830" type="line"/>
      <point x="304" y="830"/>
      <point x="304" y="830"/>
      <point x="304" y="830" type="qcurve"/>
      <point x="304" y="1144" type="line"/>
      <point x="304" y="1144"/>
      <point x="304" y="1144"/>
      <point x="304" y="1144" type="qcurve"/>
      <point x="444" y="1144" type="line"/>
      <point x="444" y="1144"/>
      <point x="444" y="1144"/>
      <point x="444" y="1144" type="qcurve"/>
      <point x="444" y="990" type="line"/>
      <point x="696" y="1040" type="line"/>
      <point x="696" y="1114" type="line" smooth="yes"/>
      <point x="696" y="1199.5"/>
      <point x="636.812" y="1306.5"/>
      <point x="551.688" y="1366.5"/>
      <point x="457.25" y="1388"/>
      <point x="422" y="1388" type="qcurve" smooth="yes"/>
      <point x="325" y="1388" type="line" smooth="yes"/>
      <point x="278.875" y="1388"/>
      <point x="182.031" y="1366.5"/>
      <point x="102.719" y="1306.5"/>
      <point x="52" y="1199.5"/>
      <point x="52" y="1114" type="qcurve" smooth="yes"/>
      <point x="52" y="874" type="line" smooth="yes"/>
      <point x="52" y="789.25"/>
      <point x="99.8438" y="678.062"/>
      <point x="176.906" y="612.438"/>
      <point x="273.875" y="586"/>
      <point x="323" y="586" type="qcurve" smooth="yes"/>
      <point x="464" y="586" type="line"/>
      <point x="464" y="586"/>
      <point x="464" y="586"/>
      <point x="464" y="586" type="qcurve"/>
      <point x="464" y="256" type="line"/>
      <point x="464" y="256"/>
      <point x="464" y="256"/>
      <point x="464" y="256" type="qcurve"/>
      <point x="284" y="256" type="line"/>
      <point x="284" y="256"/>
      <point x="284" y="256"/>
      <point x="284" y="256" type="qcurve"/>
      <point x="284" y="430" type="line"/>
      <point x="32" y="378" type="line"/>
      <point x="32" y="298" type="line" smooth="yes"/>
      <point x="32" y="209.5"/>
      <point x="76" y="98"/>
      <point x="154" y="35"/>
      <point x="261" y="12"/>
    </contour>
    <contour>
      <point x="281" y="-164" type="line"/>
      <point x="365" y="-164" type="line"/>
      <point x="365" y="1564" type="line"/>
      <point x="281" y="1564" type="line"/>
    </contour>
    <contour>
      <point x="381" y="-164" type="line"/>
      <point x="465" y="-164" type="line"/>
      <point x="465" y="1564" type="line"/>
      <point x="381" y="1564" type="line"/>
    </contour>
  </outline>
</glyph>
<glyph name="ecaron.sc" format="2">
  <advance width="603"/>
  <anchor x="319" y="1550" name="top"/>
  <anchor x="319" y="-150" name="bottom"/>
  <anchor x="479" y="0" name="ogonek"/>
  <anchor x="88" y="1292" name="topright"/>
  <outline>
    <contour>
      <point x="72" y="0" type="line"/>
      <point x="565" y="0" type="line"/>
      <point x="565" y="249" type="line"/>
      <point x="322" y="249" type="line"/>
      <point x="322" y="419" type="line"/>
      <point x="538" y="419" type="line"/>
      <point x="538" y="668" type="line"/>
      <point x="322" y="668" type="line"/>
      <point x="322" y="811" type="line"/>
      <point x="553" y="811" type="line"/>
      <point x="553" y="1060" type="line"/>
      <point x="72" y="1060" type="line"/>
    </contour>
    <contour>
      <point x="552" y="1450" type="line"/>
      <point x="363" y="1450" type="line"/>
      <point x="325" y="1322" type="line"/>
      <point x="287" y="1450" type="line"/>
      <point x="88" y="1450" type="line"/>
      <point x="243" y="1135" type="line"/>
      <point x="397" y="1135" type="line"/>
    </contour>
  </outline>
  <guideline angle="90" color="1,0,0,1" x="479" y="0"/>
</glyph>
<glyph name="eight.sinf" format="2">
  <advance width="492"/>
  <outline>
    <contour>
      <point x="200" y="-98" type="qcurve" smooth="yes"/>
      <point x="200" y="-22" type="line" smooth="yes"/>
      <point x="200" y="-4.6442"/>
      <point x="218.399" y="19"/>
      <point x="235" y="19" type="qcurve" smooth="yes"/>
      <point x="256" y="19" type="line" smooth="yes"/>
      <point x="264.25" y="19"/>
      <point x="277.562" y="12.6562"/>
      <point x="286.938" y="1.59375"/>
      <point x="292" y="-13.375"/>
      <point x="292" y="-22" type="qcurve" smooth="yes"/>
      <point x="292" y="-98" type="line" smooth="yes"/>
      <point x="292" y="-110.828"/>
      <point x="273.828" y="-127"/>
      <point x="261" y="-127" type="qcurve" smooth="yes"/>
      <point x="232" y="-127" type="line" smooth="yes"/>
      <point x="218.417" y="-127"/>
      <point x="200" y="-110.828"/>
    </contour>
    <contour>
      <point x="279" y="310" type="qcurve" smooth="yes"/>
      <point x="279" y="225" type="line" smooth="yes"/>
      <point x="279" y="211.417"/>
      <point x="264.828" y="192"/>
      <point x="252" y="192" type="qcurve" smooth="yes"/>
      <point x="240" y="192" type="line" smooth="yes"/>
      <point x="227.172" y="192"/>
      <point x="213" y="211.417"/>
      <point x="213" y="225" type="qcurve" smooth="yes"/>
      <point x="213" y="310" type="line" smooth="yes"/>
      <point x="213" y="322.828"/>
      <point x="231.417" y="337"/>
      <point x="245" y="337" type="qcurve" smooth="yes"/>
      <point x="248" y="337" type="line" smooth="yes"/>
      <point x="260.828" y="337"/>
      <point x="279" y="322.074"/>
    </contour>
    <contour>
      <point x="0" y="-126" type="line" smooth="yes"/>
      <point x="0" y="-224.853"/>
      <point x="128.902" y="-300"/>
      <point x="227" y="-300" type="qcurve" smooth="yes"/>
      <point x="265" y="-300" type="line" smooth="yes"/>
      <point x="364.607" y="-300"/>
      <point x="492" y="-224.853"/>
      <point x="492" y="-126" type="qcurve" smooth="yes"/>
      <point x="492" y="-43" type="line" smooth="yes"/>
      <point x="492" y="42.2698"/>
      <point x="431.202" y="104.209"/>
      <point x="398" y="111" type="qcurve"/>
      <point x="426.675" y="121.564"/>
      <point x="479" y="201.104"/>
      <point x="479" y="266" type="qcurve" smooth="yes"/>
      <point x="479" y="343" type="line" smooth="yes"/>
      <point x="479" y="418.46"/>
      <point x="372.153" y="510"/>
      <point x="265" y="510" type="qcurve" smooth="yes"/>
      <point x="227" y="510" type="line" smooth="yes"/>
      <point x="119.847" y="510"/>
      <point x="13" y="418.46"/>
      <point x="13" y="343" type="qcurve" smooth="yes"/>
      <point x="13" y="266" type="line" smooth="yes"/>
      <point x="13" y="201.104"/>
      <point x="63.816" y="121.564"/>
      <point x="94" y="111" type="qcurve"/>
      <point x="60.7976" y="104.209"/>
      <point x="0" y="40.7606"/>
      <point x="0" y="-43" type="qcurve" smooth="yes"/>
    </contour>
  </outline>
</glyph>
